<svg width="1405" height="907" viewBox="0 0 1405 907" fill="none" xmlns="http://www.w3.org/2000/svg">
<path d="M-312.129 302.556C-311.989 302.538 -311.782 302.512 -311.508 302.481C-310.959 302.419 -310.139 302.337 -309.054 302.251C-306.885 302.08 -303.654 301.899 -299.395 301.859C-290.876 301.778 -278.245 302.257 -261.772 304.494C-228.825 308.968 -180.513 320.472 -118.994 348.585C4.04437 404.81 179.894 527.459 391.302 793.136C602.63 1058.71 778.349 1181.24 901.196 1237.37C962.618 1265.44 1010.83 1276.92 1043.67 1281.38C1060.09 1283.61 1072.66 1284.08 1081.13 1284C1085.37 1283.96 1088.57 1283.78 1090.72 1283.61C1091.79 1283.53 1092.6 1283.45 1093.13 1283.38C1093.4 1283.35 1093.6 1283.33 1093.74 1283.31C1093.8 1283.3 1093.85 1283.3 1093.88 1283.29L1093.93 1283.29C1093.93 1283.29 1093.93 1283.3 1094.01 1283.83C1094.09 1284.37 1094.09 1284.37 1094.09 1284.37C1094.08 1284.37 1094.08 1284.37 1094.07 1284.37C1094.07 1284.37 1094.05 1284.37 1094.03 1284.38C1094 1284.38 1093.95 1284.39 1093.88 1284.4C1093.74 1284.42 1093.53 1284.44 1093.26 1284.47C1092.71 1284.53 1091.89 1284.62 1090.8 1284.7C1088.63 1284.87 1085.4 1285.05 1081.14 1285.09C1072.62 1285.18 1059.99 1284.7 1043.52 1282.46C1010.57 1277.99 962.259 1266.48 900.741 1238.37C777.702 1182.14 601.853 1059.49 390.445 793.817C179.118 528.243 3.39884 405.717 -119.448 349.58C-180.871 321.511 -229.081 310.038 -261.92 305.578C-278.339 303.349 -290.917 302.872 -299.384 302.953C-303.618 302.993 -306.824 303.173 -308.968 303.342C-310.04 303.427 -310.848 303.508 -311.385 303.568C-311.653 303.598 -311.855 303.623 -311.988 303.64C-312.055 303.649 -312.106 303.656 -312.138 303.66L-312.183 303.667C-312.184 303.665 -312.189 303.636 -312.264 303.126C-312.334 302.641 -312.34 302.59 -312.339 302.584L-312.286 302.577C-312.251 302.572 -312.198 302.565 -312.129 302.556ZM-304.73 292.631C-304.591 292.613 -304.383 292.587 -304.109 292.556C-303.56 292.494 -302.74 292.412 -301.656 292.327C-299.486 292.156 -296.255 291.975 -291.996 291.934C-283.477 291.853 -270.846 292.332 -254.373 294.569C-221.426 299.043 -173.114 310.548 -111.595 338.66C11.4432 394.885 187.293 517.535 398.701 783.211C610.029 1048.79 785.748 1171.31 908.594 1227.45C970.017 1255.52 1018.23 1266.99 1051.07 1271.45C1067.48 1273.68 1080.06 1274.16 1088.53 1274.08C1092.76 1274.04 1095.97 1273.86 1098.12 1273.69C1099.19 1273.6 1099.99 1273.52 1100.53 1273.46C1100.8 1273.43 1101 1273.41 1101.13 1273.39C1101.2 1273.38 1101.25 1273.37 1101.28 1273.37L1101.33 1273.36C1101.33 1273.36 1101.33 1273.38 1101.41 1273.9C1101.49 1274.43 1101.49 1274.44 1101.48 1274.45C1101.48 1274.45 1101.48 1274.45 1101.47 1274.45C1101.46 1274.45 1101.45 1274.45 1101.43 1274.45C1101.4 1274.46 1101.34 1274.46 1101.28 1274.47C1101.14 1274.49 1100.93 1274.52 1100.65 1274.55C1100.11 1274.61 1099.29 1274.69 1098.2 1274.78C1096.03 1274.95 1092.8 1275.13 1088.54 1275.17C1080.02 1275.25 1067.39 1274.77 1050.92 1272.54C1017.97 1268.06 969.659 1256.56 908.139 1228.44C785.101 1172.22 609.252 1049.57 397.844 783.893C186.517 518.318 10.7977 395.792 -112.049 339.655C-173.472 311.586 -221.682 300.113 -254.521 295.654C-270.94 293.424 -283.518 292.947 -291.985 293.028C-296.219 293.068 -299.425 293.248 -301.57 293.417C-302.642 293.502 -303.449 293.583 -303.986 293.643C-304.254 293.674 -304.456 293.698 -304.589 293.716C-304.656 293.724 -304.707 293.731 -304.739 293.736L-304.784 293.742C-304.786 293.74 -304.792 293.703 -304.865 293.201C-304.939 292.693 -304.942 292.662 -304.94 292.659L-304.888 292.652C-304.852 292.647 -304.799 292.64 -304.73 292.631ZM-297.332 282.706C-297.193 282.688 -296.985 282.662 -296.711 282.631C-296.162 282.57 -295.342 282.487 -294.258 282.402C-292.089 282.231 -288.857 282.05 -284.598 282.009C-276.079 281.928 -263.448 282.408 -246.975 284.645C-214.028 289.118 -165.716 300.623 -104.197 328.735C18.8411 384.96 194.691 507.61 406.099 773.286C617.426 1038.86 793.146 1161.39 915.992 1217.53C977.415 1245.59 1025.62 1257.07 1058.46 1261.53C1074.88 1263.76 1087.46 1264.23 1095.93 1264.15C1100.16 1264.11 1103.37 1263.93 1105.51 1263.76C1106.58 1263.68 1107.39 1263.6 1107.93 1263.54C1108.2 1263.51 1108.4 1263.48 1108.53 1263.46C1108.6 1263.45 1108.65 1263.45 1108.68 1263.44L1108.73 1263.44C1108.73 1263.44 1108.73 1263.45 1108.81 1263.98C1108.89 1264.52 1108.88 1264.52 1108.88 1264.52C1108.88 1264.52 1108.88 1264.52 1108.87 1264.52C1108.86 1264.52 1108.85 1264.52 1108.83 1264.53C1108.8 1264.53 1108.74 1264.54 1108.67 1264.55C1108.53 1264.57 1108.33 1264.59 1108.05 1264.62C1107.5 1264.68 1106.68 1264.77 1105.6 1264.85C1103.43 1265.02 1100.2 1265.2 1095.94 1265.25C1087.42 1265.33 1074.79 1264.85 1058.32 1262.61C1025.37 1258.14 977.056 1246.63 915.537 1218.52C792.499 1162.29 616.65 1039.64 405.242 773.968C193.915 508.393 18.1956 385.868 -104.651 329.73C-166.074 301.662 -214.284 290.188 -247.123 285.729C-263.542 283.5 -276.12 283.023 -284.587 283.103C-288.821 283.144 -292.027 283.324 -294.172 283.493C-295.244 283.577 -296.051 283.658 -296.588 283.719C-296.856 283.749 -297.058 283.774 -297.191 283.791C-297.258 283.8 -297.309 283.806 -297.342 283.811L-297.386 283.817C-297.388 283.814 -297.395 283.772 -297.467 283.277C-297.541 282.771 -297.544 282.737 -297.542 282.735L-297.49 282.727C-297.454 282.722 -297.401 282.715 -297.332 282.706ZM-289.933 272.782C-289.794 272.764 -289.586 272.738 -289.312 272.708C-288.763 272.646 -287.943 272.563 -286.859 272.478C-284.689 272.307 -281.458 272.126 -277.199 272.086C-268.68 272.005 -256.049 272.484 -239.576 274.721C-206.629 279.195 -158.317 290.699 -96.798 318.812C26.2401 375.037 202.09 497.687 413.498 763.363C624.825 1028.94 800.545 1151.46 923.391 1207.6C984.814 1235.67 1033.02 1247.14 1065.86 1251.6C1082.28 1253.83 1094.86 1254.31 1103.33 1254.23C1107.56 1254.19 1110.77 1254.01 1112.91 1253.84C1113.98 1253.75 1114.79 1253.67 1115.33 1253.61C1115.6 1253.58 1115.8 1253.56 1115.93 1253.54C1116 1253.53 1116.05 1253.52 1116.08 1253.52L1116.13 1253.51C1116.13 1253.52 1116.14 1253.56 1116.21 1254.05C1116.28 1254.58 1116.28 1254.6 1116.28 1254.6C1116.28 1254.6 1116.27 1254.6 1116.27 1254.6C1116.26 1254.6 1116.25 1254.6 1116.23 1254.6C1116.19 1254.61 1116.14 1254.62 1116.07 1254.62C1115.93 1254.64 1115.73 1254.67 1115.45 1254.7C1114.9 1254.76 1114.08 1254.84 1113 1254.93C1110.83 1255.1 1107.6 1255.28 1103.34 1255.32C1094.82 1255.4 1082.19 1254.92 1065.72 1252.69C1032.77 1248.21 984.455 1236.71 922.936 1208.6C799.898 1152.37 624.049 1029.72 412.641 764.044C201.314 498.47 25.5946 375.944 -97.252 319.806C-158.675 291.738 -206.885 280.264 -239.724 275.805C-256.143 273.576 -268.721 273.099 -277.188 273.179C-281.422 273.22 -284.628 273.4 -286.773 273.569C-287.845 273.653 -288.652 273.734 -289.189 273.795C-289.457 273.825 -289.659 273.85 -289.792 273.867C-289.859 273.876 -289.91 273.883 -289.943 273.887L-289.987 273.894C-289.989 273.892 -289.993 273.863 -290.068 273.353C-290.142 272.844 -290.145 272.813 -290.143 272.811L-290.091 272.803C-290.055 272.799 -290.002 272.791 -289.933 272.782ZM-282.535 262.858C-282.396 262.84 -282.189 262.814 -281.914 262.783C-281.365 262.721 -280.545 262.639 -279.461 262.553C-277.292 262.383 -274.06 262.201 -269.801 262.161C-261.282 262.08 -248.651 262.559 -232.178 264.796C-199.231 269.27 -150.919 280.775 -89.4001 308.887C33.638 365.112 209.488 487.762 420.896 753.438C632.223 1019.01 807.943 1141.54 930.789 1197.68C992.212 1225.75 1040.42 1237.22 1073.26 1241.68C1089.68 1243.91 1102.26 1244.38 1110.73 1244.3C1114.96 1244.26 1118.17 1244.08 1120.31 1243.91C1121.38 1243.83 1122.19 1243.75 1122.73 1243.69C1122.99 1243.66 1123.2 1243.63 1123.33 1243.61C1123.4 1243.61 1123.45 1243.6 1123.48 1243.6L1123.52 1243.59C1123.53 1243.59 1123.53 1243.61 1123.61 1244.13C1123.68 1244.67 1123.68 1244.67 1123.68 1244.67C1123.68 1244.67 1123.67 1244.67 1123.67 1244.67C1123.66 1244.68 1123.65 1244.68 1123.63 1244.68C1123.59 1244.68 1123.54 1244.69 1123.47 1244.7C1123.33 1244.72 1123.12 1244.74 1122.85 1244.77C1122.3 1244.84 1121.48 1244.92 1120.4 1245C1118.23 1245.18 1115 1245.36 1110.74 1245.4C1102.22 1245.48 1089.59 1245 1073.11 1242.76C1040.17 1238.29 991.853 1226.78 930.334 1198.67C807.296 1142.45 631.447 1019.8 420.039 754.12C208.712 488.545 32.9925 366.019 -89.8541 309.882C-151.277 281.813 -199.487 270.34 -232.326 265.881C-248.745 263.651 -261.323 263.174 -269.791 263.255C-274.024 263.295 -277.23 263.475 -279.375 263.644C-280.447 263.729 -281.254 263.81 -281.791 263.87C-282.06 263.901 -282.261 263.925 -282.395 263.943C-282.461 263.951 -282.512 263.958 -282.545 263.962L-282.589 263.969C-282.591 263.967 -282.596 263.938 -282.67 263.428C-282.744 262.921 -282.747 262.889 -282.745 262.886L-282.693 262.879C-282.657 262.874 -282.604 262.867 -282.535 262.858ZM-275.139 252.933C-275 252.915 -274.793 252.889 -274.518 252.859C-273.969 252.797 -273.149 252.714 -272.065 252.629C-269.896 252.458 -266.664 252.277 -262.405 252.237C-253.887 252.155 -241.255 252.635 -224.782 254.872C-191.835 259.345 -143.523 270.85 -82.0042 298.963C41.034 355.188 216.884 477.837 428.292 743.514C639.619 1009.09 815.339 1131.61 938.185 1187.75C999.608 1215.82 1047.82 1227.29 1080.66 1231.75C1097.08 1233.98 1109.65 1234.46 1118.12 1234.38C1122.35 1234.34 1125.56 1234.16 1127.71 1233.99C1128.78 1233.91 1129.58 1233.82 1130.12 1233.76C1130.39 1233.73 1130.59 1233.71 1130.73 1233.69C1130.79 1233.68 1130.84 1233.68 1130.87 1233.67L1130.92 1233.66C1130.92 1233.66 1130.92 1233.68 1131 1234.21C1131.08 1234.75 1131.08 1234.75 1131.08 1234.75C1131.07 1234.75 1131.07 1234.75 1131.06 1234.75C1131.06 1234.75 1131.04 1234.75 1131.02 1234.75C1130.99 1234.76 1130.94 1234.77 1130.87 1234.78C1130.73 1234.79 1130.52 1234.82 1130.25 1234.85C1129.7 1234.91 1128.88 1235 1127.79 1235.08C1125.62 1235.25 1122.39 1235.43 1118.13 1235.47C1109.61 1235.55 1096.98 1235.07 1080.51 1232.84C1047.56 1228.36 999.249 1216.86 937.73 1188.75C814.692 1132.52 638.843 1009.87 427.435 744.195C216.108 478.62 40.3885 356.095 -82.4581 299.957C-143.881 271.889 -192.091 260.415 -224.93 255.956C-241.349 253.727 -253.928 253.25 -262.395 253.33C-266.628 253.371 -269.834 253.551 -271.979 253.72C-273.051 253.804 -273.858 253.885 -274.395 253.946C-274.664 253.976 -274.865 254.001 -274.999 254.018C-275.065 254.027 -275.116 254.034 -275.149 254.038L-275.193 254.045C-275.195 254.042 -275.201 254.007 -275.274 253.504C-275.347 253.005 -275.351 252.965 -275.349 252.962L-275.297 252.954C-275.261 252.95 -275.208 252.942 -275.139 252.933ZM-267.74 243.009C-267.601 242.991 -267.394 242.965 -267.119 242.934C-266.57 242.872 -265.75 242.79 -264.666 242.704C-262.497 242.533 -259.265 242.352 -255.006 242.312C-246.488 242.231 -233.856 242.71 -217.383 244.947C-184.436 249.421 -136.124 260.925 -74.6053 289.038C48.4328 345.263 224.283 467.913 435.691 733.589C647.018 999.164 822.737 1121.69 945.584 1177.83C1007.01 1205.9 1055.22 1217.37 1088.05 1221.83C1104.47 1224.06 1117.05 1224.53 1125.52 1224.45C1129.75 1224.41 1132.96 1224.23 1135.1 1224.07C1136.18 1223.98 1136.98 1223.9 1137.52 1223.84C1137.79 1223.81 1137.99 1223.78 1138.12 1223.77C1138.19 1223.76 1138.24 1223.75 1138.27 1223.75L1138.32 1223.74C1138.32 1223.74 1138.32 1223.76 1138.4 1224.28C1138.47 1224.78 1138.48 1224.82 1138.47 1224.82C1138.47 1224.82 1138.47 1224.82 1138.46 1224.82C1138.45 1224.83 1138.44 1224.83 1138.42 1224.83C1138.39 1224.83 1138.33 1224.84 1138.26 1224.85C1138.13 1224.87 1137.92 1224.89 1137.64 1224.93C1137.09 1224.99 1136.28 1225.07 1135.19 1225.16C1133.02 1225.33 1129.79 1225.51 1125.53 1225.55C1117.01 1225.63 1104.38 1225.15 1087.91 1222.91C1054.96 1218.44 1006.65 1206.93 945.129 1178.82C822.091 1122.6 646.242 999.947 434.834 734.27C223.507 468.696 47.7873 346.17 -75.0592 290.033C-136.482 261.964 -184.692 250.49 -217.531 246.031C-233.95 243.802 -246.529 243.325 -254.996 243.406C-259.229 243.446 -262.435 243.626 -264.58 243.795C-265.652 243.879 -266.459 243.961 -266.996 244.021C-267.265 244.051 -267.466 244.076 -267.6 244.093C-267.666 244.102 -267.717 244.109 -267.75 244.113L-267.794 244.12C-267.796 244.116 -267.803 244.074 -267.875 243.579C-267.949 243.071 -267.952 243.039 -267.95 243.037L-267.898 243.03C-267.862 243.025 -267.809 243.018 -267.74 243.009ZM-260.342 233.084C-260.203 233.066 -259.996 233.04 -259.722 233.009C-259.172 232.947 -258.353 232.865 -257.268 232.78C-255.099 232.609 -251.868 232.428 -247.608 232.387C-239.09 232.306 -226.458 232.786 -209.985 235.022C-177.038 239.496 -128.726 251.001 -67.2074 279.113C55.8307 335.338 231.681 457.988 443.089 723.664C654.416 989.239 830.135 1111.77 952.982 1167.9C1014.4 1195.97 1062.61 1207.45 1095.45 1211.9C1111.87 1214.13 1124.45 1214.61 1132.92 1214.53C1137.15 1214.49 1140.36 1214.31 1142.5 1214.14C1143.57 1214.06 1144.38 1213.97 1144.92 1213.91C1145.19 1213.88 1145.39 1213.86 1145.52 1213.84C1145.59 1213.83 1145.64 1213.83 1145.67 1213.82L1145.72 1213.81C1145.72 1213.81 1145.72 1213.83 1145.8 1214.36C1145.88 1214.9 1145.87 1214.9 1145.87 1214.9C1145.87 1214.9 1145.87 1214.9 1145.86 1214.9C1145.85 1214.9 1145.84 1214.9 1145.82 1214.9C1145.78 1214.91 1145.73 1214.92 1145.66 1214.93C1145.52 1214.94 1145.32 1214.97 1145.04 1215C1144.49 1215.06 1143.67 1215.15 1142.59 1215.23C1140.42 1215.4 1137.19 1215.58 1132.93 1215.62C1124.41 1215.7 1111.78 1215.23 1095.31 1212.99C1062.36 1208.51 1014.05 1197.01 952.527 1168.9C829.489 1112.67 653.639 990.022 442.232 724.346C230.905 458.771 55.1852 336.246 -67.6613 280.108C-129.084 252.039 -177.294 240.566 -210.133 236.107C-226.553 233.877 -239.131 233.4 -247.598 233.481C-251.831 233.521 -255.037 233.701 -257.182 233.87C-258.254 233.955 -259.061 234.036 -259.599 234.097C-259.867 234.127 -260.068 234.151 -260.202 234.169C-260.269 234.177 -260.319 234.184 -260.352 234.189L-260.396 234.195C-260.398 234.191 -260.406 234.142 -260.477 233.654C-260.551 233.146 -260.554 233.115 -260.552 233.113L-260.5 233.105C-260.464 233.1 -260.412 233.093 -260.342 233.084ZM-252.944 223.16C-252.805 223.142 -252.598 223.116 -252.324 223.085C-251.774 223.024 -250.954 222.941 -249.87 222.856C-247.701 222.685 -244.469 222.504 -240.21 222.463C-231.692 222.382 -219.06 222.862 -202.587 225.099C-169.64 229.572 -121.328 241.077 -59.8094 269.189C63.2288 325.414 239.079 448.064 450.487 713.74C661.814 979.315 837.533 1101.84 960.38 1157.98C1021.8 1186.05 1070.01 1197.52 1102.85 1201.98C1119.27 1204.21 1131.85 1204.69 1140.32 1204.61C1144.55 1204.56 1147.76 1204.39 1149.9 1204.22C1150.97 1204.13 1151.78 1204.05 1152.32 1203.99C1152.59 1203.96 1152.79 1203.93 1152.92 1203.92C1152.99 1203.91 1153.04 1203.9 1153.07 1203.9L1153.11 1203.89C1153.12 1203.89 1153.12 1203.91 1153.2 1204.43C1153.27 1204.97 1153.27 1204.97 1153.27 1204.97C1153.27 1204.98 1153.26 1204.98 1153.26 1204.98C1153.25 1204.98 1153.24 1204.98 1153.22 1204.98C1153.18 1204.99 1153.13 1204.99 1153.06 1205C1152.92 1205.02 1152.71 1205.05 1152.44 1205.08C1151.89 1205.14 1151.07 1205.22 1149.99 1205.31C1147.82 1205.48 1144.59 1205.66 1140.33 1205.7C1131.81 1205.78 1119.18 1205.3 1102.7 1203.06C1069.76 1198.59 1021.44 1187.09 959.925 1158.97C836.887 1102.75 661.038 980.098 449.63 714.422C238.303 448.847 62.5832 326.322 -60.2633 270.184C-121.686 242.116 -169.896 230.642 -202.735 226.183C-219.155 223.954 -231.733 223.477 -240.2 223.557C-244.433 223.598 -247.639 223.778 -249.784 223.947C-250.856 224.031 -251.663 224.112 -252.2 224.173C-252.469 224.203 -252.67 224.228 -252.804 224.245C-252.87 224.254 -252.921 224.26 -252.954 224.265L-252.998 224.271C-253 224.269 -253.006 224.229 -253.079 223.731C-253.152 223.232 -253.156 223.192 -253.154 223.189L-253.102 223.181C-253.067 223.176 -253.013 223.169 -252.944 223.16ZM-245.547 213.236C-245.408 213.218 -245.201 213.192 -244.927 213.161C-244.377 213.099 -243.557 213.017 -242.473 212.931C-240.304 212.761 -237.072 212.579 -232.813 212.539C-224.295 212.458 -211.663 212.937 -195.19 215.174C-162.243 219.648 -113.931 231.153 -52.4124 259.265C70.6257 315.49 246.476 438.14 457.884 703.816C669.211 969.391 844.93 1091.92 967.777 1148.05C1029.2 1176.12 1077.41 1187.6 1110.25 1192.06C1126.67 1194.29 1139.25 1194.76 1147.71 1194.68C1151.95 1194.64 1155.15 1194.46 1157.3 1194.29C1158.37 1194.21 1159.18 1194.13 1159.71 1194.07C1159.98 1194.03 1160.18 1194.01 1160.32 1193.99C1160.38 1193.98 1160.43 1193.98 1160.47 1193.97L1160.51 1193.97C1160.51 1193.97 1160.52 1194 1160.59 1194.51C1160.67 1195.03 1160.67 1195.05 1160.67 1195.05C1160.66 1195.05 1160.66 1195.05 1160.66 1195.05C1160.65 1195.05 1160.63 1195.05 1160.62 1195.06C1160.58 1195.06 1160.53 1195.07 1160.46 1195.08C1160.32 1195.1 1160.11 1195.12 1159.84 1195.15C1159.29 1195.21 1158.47 1195.3 1157.38 1195.38C1155.21 1195.55 1151.98 1195.73 1147.72 1195.77C1139.21 1195.86 1126.57 1195.38 1110.1 1193.14C1077.15 1188.67 1028.84 1177.16 967.322 1149.05C844.284 1092.82 668.435 970.174 457.027 704.498C245.7 438.923 69.9802 316.397 -52.8664 260.26C-114.29 232.191 -162.499 220.718 -195.338 216.259C-211.758 214.029 -224.336 213.552 -232.803 213.633C-237.036 213.673 -240.242 213.853 -242.387 214.022C-243.459 214.107 -244.266 214.188 -244.804 214.248C-245.072 214.279 -245.273 214.303 -245.407 214.321C-245.473 214.329 -245.524 214.336 -245.557 214.34L-245.601 214.347C-245.603 214.345 -245.608 214.316 -245.682 213.806C-245.756 213.297 -245.759 213.267 -245.757 213.264L-245.705 213.257C-245.67 213.252 -245.617 213.245 -245.547 213.236ZM-238.149 203.311C-238.01 203.293 -237.803 203.267 -237.529 203.236C-236.979 203.174 -236.16 203.092 -235.075 203.007C-232.906 202.836 -229.675 202.655 -225.416 202.614C-216.897 202.533 -204.266 203.013 -187.793 205.249C-154.846 209.723 -106.533 221.228 -45.0145 249.34C78.0236 305.565 253.874 428.215 465.282 693.891C676.609 959.466 852.328 1081.99 975.175 1138.13C1036.6 1166.2 1084.81 1177.67 1117.65 1182.13C1134.07 1184.36 1146.64 1184.84 1155.11 1184.76C1159.34 1184.72 1162.55 1184.54 1164.7 1184.37C1165.77 1184.28 1166.57 1184.2 1167.11 1184.14C1167.38 1184.11 1167.58 1184.09 1167.72 1184.07C1167.78 1184.06 1167.83 1184.05 1167.86 1184.05L1167.91 1184.04C1167.91 1184.04 1167.91 1184.06 1167.99 1184.58C1168.07 1185.12 1168.07 1185.13 1168.06 1185.13C1168.06 1185.13 1168.06 1185.13 1168.05 1185.13C1168.04 1185.13 1168.03 1185.13 1168.01 1185.13C1167.98 1185.14 1167.92 1185.14 1167.86 1185.15C1167.72 1185.17 1167.51 1185.2 1167.23 1185.23C1166.69 1185.29 1165.87 1185.37 1164.78 1185.46C1162.61 1185.63 1159.38 1185.81 1155.12 1185.85C1146.6 1185.93 1133.97 1185.45 1117.5 1183.22C1084.55 1178.74 1036.24 1167.24 974.72 1139.12C851.682 1082.9 675.832 960.249 464.425 694.573C253.097 428.998 77.3781 306.473 -45.4685 250.335C-106.892 222.266 -155.102 210.793 -187.94 206.334C-204.36 204.104 -216.938 203.628 -225.405 203.708C-229.639 203.748 -232.845 203.929 -234.989 204.098C-236.061 204.182 -236.868 204.263 -237.406 204.324C-237.674 204.354 -237.876 204.379 -238.009 204.396C-238.076 204.405 -238.126 204.411 -238.159 204.416L-238.203 204.422C-238.205 204.418 -238.213 204.372 -238.284 203.881C-238.359 203.373 -238.362 203.342 -238.359 203.34L-238.307 203.332C-238.272 203.327 -238.219 203.32 -238.149 203.311ZM-230.75 193.387C-230.611 193.369 -230.404 193.343 -230.13 193.312C-229.58 193.251 -228.76 193.168 -227.676 193.083C-225.507 192.912 -222.275 192.731 -218.017 192.69C-209.498 192.609 -196.866 193.089 -180.394 195.326C-147.447 199.799 -99.1341 211.304 -37.6155 239.416C85.4226 295.642 261.273 418.292 472.681 683.967C684.008 949.542 859.727 1072.07 982.574 1128.21C1044 1156.27 1092.21 1167.75 1125.04 1172.21C1141.46 1174.44 1154.04 1174.91 1162.51 1174.83C1166.74 1174.79 1169.95 1174.61 1172.09 1174.44C1173.17 1174.36 1173.97 1174.28 1174.51 1174.22C1174.78 1174.19 1174.98 1174.16 1175.11 1174.14C1175.18 1174.14 1175.23 1174.13 1175.26 1174.12L1175.31 1174.12C1175.31 1174.12 1175.32 1174.17 1175.39 1174.66C1175.47 1175.18 1175.47 1175.2 1175.46 1175.2C1175.46 1175.2 1175.46 1175.2 1175.45 1175.2C1175.44 1175.2 1175.43 1175.21 1175.41 1175.21C1175.38 1175.21 1175.32 1175.22 1175.25 1175.23C1175.12 1175.25 1174.91 1175.27 1174.63 1175.3C1174.08 1175.37 1173.26 1175.45 1172.18 1175.53C1170.01 1175.71 1166.78 1175.89 1162.52 1175.93C1154 1176.01 1141.37 1175.53 1124.9 1173.29C1091.95 1168.82 1043.64 1157.31 982.119 1129.2C859.081 1072.98 683.231 950.325 471.824 684.649C260.497 419.075 84.7771 296.549 -38.0695 240.411C-99.4924 212.343 -147.703 200.869 -180.541 196.41C-196.961 194.181 -209.539 193.704 -218.006 193.784C-222.239 193.825 -225.446 194.005 -227.59 194.174C-228.662 194.258 -229.469 194.339 -230.007 194.4C-230.275 194.43 -230.477 194.455 -230.61 194.472C-230.676 194.481 -230.727 194.487 -230.76 194.492L-230.804 194.498C-230.806 194.497 -230.811 194.468 -230.885 193.958C-230.96 193.449 -230.963 193.418 -230.96 193.416L-230.908 193.408C-230.873 193.403 -230.82 193.396 -230.75 193.387ZM-223.354 183.463C-223.214 183.445 -223.007 183.419 -222.733 183.388C-222.183 183.326 -221.364 183.244 -220.279 183.158C-218.11 182.988 -214.879 182.806 -210.62 182.766C-202.101 182.685 -189.47 183.164 -172.997 185.401C-140.05 189.875 -91.7373 201.38 -30.2186 229.492C92.8195 285.717 268.67 408.367 480.077 674.043C691.405 939.618 867.124 1062.14 989.971 1118.28C1051.39 1146.35 1099.6 1157.82 1132.44 1162.28C1148.86 1164.51 1161.44 1164.99 1169.91 1164.91C1174.14 1164.87 1177.35 1164.69 1179.49 1164.52C1180.56 1164.43 1181.37 1164.35 1181.91 1164.29C1182.18 1164.26 1182.38 1164.24 1182.51 1164.22C1182.58 1164.21 1182.63 1164.2 1182.66 1164.2L1182.71 1164.19C1182.71 1164.2 1182.71 1164.24 1182.79 1164.74C1182.86 1165.27 1182.86 1165.28 1182.86 1165.28C1182.86 1165.28 1182.85 1165.28 1182.85 1165.28C1182.84 1165.28 1182.83 1165.28 1182.81 1165.28C1182.77 1165.29 1182.72 1165.3 1182.65 1165.3C1182.51 1165.32 1182.31 1165.35 1182.03 1165.38C1181.48 1165.44 1180.66 1165.52 1179.58 1165.61C1177.41 1165.78 1174.18 1165.96 1169.92 1166C1161.4 1166.08 1148.77 1165.6 1132.29 1163.37C1099.35 1158.89 1051.03 1147.39 989.516 1119.28C866.478 1063.05 690.628 940.401 479.221 674.725C267.893 409.15 92.174 286.624 -30.6725 230.487C-92.0957 202.418 -140.306 190.945 -173.144 186.486C-189.564 184.256 -202.142 183.779 -210.609 183.86C-214.843 183.9 -218.049 184.08 -220.193 184.249C-221.265 184.334 -222.072 184.415 -222.61 184.475C-222.878 184.506 -223.08 184.53 -223.213 184.548C-223.28 184.556 -223.33 184.563 -223.363 184.567L-223.408 184.574C-223.409 184.573 -223.414 184.543 -223.488 184.033C-223.562 183.528 -223.566 183.494 -223.563 183.491L-223.511 183.484C-223.476 183.479 -223.423 183.472 -223.354 183.463ZM-215.957 173.538C-215.817 173.52 -215.61 173.494 -215.336 173.463C-214.786 173.402 -213.967 173.319 -212.882 173.234C-210.713 173.063 -207.482 172.882 -203.223 172.841C-194.704 172.76 -182.073 173.24 -165.6 175.477C-132.653 179.95 -84.3405 191.455 -22.8217 219.567C100.216 275.792 276.066 398.442 487.474 664.118C698.802 929.694 874.521 1052.22 997.368 1108.36C1058.79 1136.43 1107 1147.9 1139.84 1152.36C1156.26 1154.59 1168.84 1155.06 1177.3 1154.98C1181.54 1154.94 1184.74 1154.76 1186.89 1154.59C1187.96 1154.51 1188.77 1154.43 1189.3 1154.37C1189.57 1154.34 1189.77 1154.31 1189.91 1154.3C1189.97 1154.29 1190.02 1154.28 1190.06 1154.28L1190.1 1154.27C1190.1 1154.27 1190.11 1154.28 1190.18 1154.81C1190.26 1155.35 1190.26 1155.35 1190.26 1155.35C1190.26 1155.35 1190.25 1155.35 1190.25 1155.35C1190.24 1155.36 1190.22 1155.36 1190.21 1155.36C1190.17 1155.36 1190.12 1155.37 1190.05 1155.38C1189.91 1155.4 1189.7 1155.42 1189.43 1155.45C1188.88 1155.52 1188.06 1155.6 1186.97 1155.69C1184.81 1155.86 1181.57 1156.04 1177.31 1156.08C1168.8 1156.16 1156.16 1155.68 1139.69 1153.44C1106.74 1148.97 1058.43 1137.46 996.913 1109.35C873.875 1053.13 698.025 930.476 486.617 664.8C275.29 399.225 99.571 276.7 -23.2756 220.562C-84.6989 192.494 -132.909 181.02 -165.747 176.561C-182.167 174.332 -194.745 173.855 -203.212 173.935C-207.446 173.976 -210.652 174.156 -212.796 174.325C-213.868 174.409 -214.675 174.49 -215.213 174.551C-215.481 174.581 -215.683 174.606 -215.816 174.623C-215.883 174.632 -215.933 174.638 -215.966 174.643L-216.011 174.649C-216.012 174.647 -216.018 174.613 -216.091 174.109C-216.165 173.605 -216.169 173.57 -216.167 173.567L-216.114 173.559C-216.079 173.554 -216.026 173.547 -215.957 173.538ZM-208.559 163.614C-208.419 163.596 -208.212 163.57 -207.938 163.539C-207.389 163.477 -206.569 163.395 -205.484 163.309C-203.315 163.138 -200.084 162.957 -195.825 162.917C-187.306 162.836 -174.675 163.315 -158.202 165.552C-125.255 170.026 -76.9424 181.53 -15.4238 209.643C107.614 265.868 283.464 388.518 494.872 654.194C706.2 919.769 881.919 1042.29 1004.77 1098.43C1066.19 1126.5 1114.4 1137.97 1147.24 1142.43C1163.66 1144.66 1176.23 1145.14 1184.7 1145.06C1188.94 1145.02 1192.14 1144.84 1194.29 1144.67C1195.36 1144.59 1196.17 1144.5 1196.7 1144.44C1196.97 1144.41 1197.17 1144.39 1197.31 1144.37C1197.37 1144.36 1197.42 1144.36 1197.45 1144.35L1197.5 1144.34C1197.5 1144.35 1197.51 1144.38 1197.58 1144.89C1197.66 1145.4 1197.66 1145.43 1197.66 1145.43C1197.65 1145.43 1197.65 1145.43 1197.64 1145.43C1197.64 1145.43 1197.62 1145.43 1197.6 1145.43C1197.57 1145.44 1197.52 1145.45 1197.45 1145.46C1197.31 1145.47 1197.1 1145.5 1196.83 1145.53C1196.28 1145.59 1195.46 1145.68 1194.37 1145.76C1192.2 1145.93 1188.97 1146.11 1184.71 1146.15C1176.19 1146.23 1163.56 1145.75 1147.09 1143.52C1114.14 1139.04 1065.83 1127.54 1004.31 1099.43C881.272 1043.2 705.423 920.551 494.015 654.875C282.688 389.301 106.969 266.775 -15.8777 210.638C-77.3007 182.569 -125.511 171.095 -158.35 166.636C-174.769 164.407 -187.347 163.93 -195.814 164.011C-200.048 164.051 -203.254 164.231 -205.398 164.4C-206.47 164.484 -207.277 164.566 -207.815 164.626C-208.083 164.656 -208.285 164.681 -208.418 164.698C-208.485 164.707 -208.536 164.714 -208.568 164.718L-208.613 164.725C-208.614 164.723 -208.619 164.694 -208.694 164.184C-208.768 163.675 -208.771 163.644 -208.769 163.642L-208.716 163.635C-208.681 163.63 -208.628 163.623 -208.559 163.614ZM-201.162 153.689C-201.022 153.671 -200.815 153.645 -200.541 153.614C-199.992 153.552 -199.172 153.47 -198.088 153.385C-195.918 153.214 -192.687 153.033 -188.428 152.992C-179.909 152.911 -167.278 153.391 -150.805 155.627C-117.858 160.101 -69.5457 171.606 -8.02685 199.718C115.011 255.943 290.861 378.593 502.269 644.269C713.597 909.844 889.316 1032.37 1012.16 1088.51C1073.59 1116.58 1121.79 1128.05 1154.63 1132.51C1171.05 1134.74 1183.63 1135.21 1192.1 1135.13C1196.33 1135.09 1199.54 1134.91 1201.68 1134.75C1202.76 1134.66 1203.56 1134.58 1204.1 1134.52C1204.37 1134.49 1204.57 1134.46 1204.7 1134.45C1204.77 1134.44 1204.82 1134.43 1204.85 1134.43L1204.9 1134.42C1204.9 1134.42 1204.9 1134.44 1204.98 1134.96C1205.06 1135.49 1205.06 1135.5 1205.05 1135.5C1205.05 1135.5 1205.05 1135.5 1205.04 1135.51C1205.03 1135.51 1205.02 1135.51 1205 1135.51C1204.97 1135.51 1204.91 1135.52 1204.84 1135.53C1204.7 1135.55 1204.5 1135.57 1204.22 1135.61C1203.67 1135.67 1202.85 1135.75 1201.77 1135.84C1199.6 1136.01 1196.37 1136.19 1192.11 1136.23C1183.59 1136.31 1170.96 1135.83 1154.49 1133.59C1121.54 1129.12 1073.23 1117.62 1011.71 1089.5C888.669 1033.28 712.82 910.627 501.412 644.951C290.085 379.376 114.366 256.851 -8.48078 200.713C-69.904 172.644 -118.114 161.171 -150.953 156.712C-167.372 154.482 -179.95 154.006 -188.417 154.086C-192.651 154.126 -195.857 154.307 -198.001 154.476C-199.074 154.56 -199.881 154.641 -200.418 154.702C-200.686 154.732 -200.888 154.757 -201.021 154.774C-201.088 154.783 -201.139 154.789 -201.171 154.794L-201.216 154.8C-201.217 154.799 -201.222 154.77 -201.297 154.259C-201.371 153.751 -201.374 153.72 -201.372 153.718L-201.32 153.71C-201.284 153.705 -201.231 153.698 -201.162 153.689ZM-193.764 143.765C-193.624 143.747 -193.417 143.722 -193.143 143.691C-192.594 143.629 -191.774 143.546 -190.69 143.461C-188.52 143.29 -185.289 143.109 -181.03 143.069C-172.511 142.988 -159.88 143.467 -143.407 145.704C-110.46 150.178 -62.1477 161.682 -0.628817 189.795C122.409 246.02 298.259 368.669 509.667 634.346C720.995 899.921 896.714 1022.45 1019.56 1078.58C1080.98 1106.65 1129.19 1118.13 1162.03 1122.59C1178.45 1124.82 1191.03 1125.29 1199.5 1125.21C1203.73 1125.17 1206.94 1124.99 1209.08 1124.82C1210.15 1124.74 1210.96 1124.66 1211.5 1124.59C1211.77 1124.56 1211.97 1124.54 1212.1 1124.52C1212.17 1124.51 1212.22 1124.51 1212.25 1124.5L1212.3 1124.5C1212.3 1124.5 1212.3 1124.54 1212.38 1125.04C1212.46 1125.58 1212.45 1125.58 1212.45 1125.58C1212.45 1125.58 1212.44 1125.58 1212.44 1125.58C1212.43 1125.58 1212.42 1125.58 1212.4 1125.59C1212.36 1125.59 1212.31 1125.6 1212.24 1125.61C1212.1 1125.63 1211.89 1125.65 1211.62 1125.68C1211.07 1125.74 1210.25 1125.83 1209.17 1125.91C1207 1126.08 1203.77 1126.26 1199.51 1126.3C1190.99 1126.39 1178.36 1125.91 1161.88 1123.67C1128.94 1119.2 1080.62 1107.69 1019.11 1079.58C896.067 1023.35 720.218 900.703 508.81 635.027C297.483 369.452 121.764 246.927 -1.08274 190.789C-62.506 162.721 -110.716 151.247 -143.555 146.788C-159.974 144.559 -172.552 144.082 -181.019 144.162C-185.253 144.203 -188.459 144.383 -190.603 144.552C-191.675 144.636 -192.483 144.718 -193.02 144.778C-193.288 144.808 -193.49 144.833 -193.623 144.85C-193.69 144.859 -193.741 144.866 -193.773 144.87L-193.818 144.877C-193.819 144.875 -193.824 144.846 -193.899 144.336C-193.97 143.849 -193.975 143.799 -193.974 143.794L-193.922 143.786C-193.886 143.782 -193.833 143.774 -193.764 143.765ZM-186.366 133.841C-186.227 133.823 -186.019 133.797 -185.745 133.766C-185.196 133.704 -184.376 133.622 -183.292 133.536C-181.122 133.366 -177.891 133.184 -173.632 133.144C-165.113 133.063 -152.482 133.542 -136.009 135.779C-103.062 140.253 -54.7495 151.758 6.76908 179.87C129.807 236.095 305.657 358.745 517.065 624.421C728.393 889.996 904.112 1012.52 1026.96 1068.66C1088.38 1096.73 1136.59 1108.2 1169.43 1112.66C1185.85 1114.89 1198.43 1115.37 1206.89 1115.29C1211.13 1115.25 1214.33 1115.07 1216.48 1114.9C1217.55 1114.81 1218.36 1114.73 1218.9 1114.67C1219.16 1114.64 1219.37 1114.62 1219.5 1114.6C1219.56 1114.59 1219.62 1114.58 1219.65 1114.58L1219.69 1114.57C1219.7 1114.58 1219.7 1114.62 1219.77 1115.11C1219.85 1115.63 1219.85 1115.65 1219.85 1115.66C1219.85 1115.66 1219.84 1115.66 1219.84 1115.66C1219.83 1115.66 1219.81 1115.66 1219.8 1115.66C1219.76 1115.67 1219.71 1115.67 1219.64 1115.68C1219.5 1115.7 1219.29 1115.73 1219.02 1115.76C1218.47 1115.82 1217.65 1115.9 1216.57 1115.99C1214.4 1116.16 1211.16 1116.34 1206.91 1116.38C1198.39 1116.46 1185.76 1115.98 1169.28 1113.75C1136.34 1109.27 1088.02 1097.77 1026.5 1069.65C903.465 1013.43 727.616 890.779 516.208 625.103C304.881 359.528 129.162 237.002 6.31515 180.865C-55.1078 152.796 -103.318 141.323 -136.157 136.864C-152.576 134.634 -165.154 134.157 -173.621 134.238C-177.855 134.278 -181.061 134.458 -183.206 134.627C-184.277 134.712 -185.085 134.793 -185.622 134.853C-185.89 134.884 -186.092 134.908 -186.225 134.926C-186.292 134.934 -186.343 134.941 -186.375 134.945L-186.42 134.952C-186.421 134.95 -186.426 134.921 -186.501 134.411C-186.575 133.902 -186.578 133.872 -186.576 133.869L-186.524 133.862C-186.488 133.857 -186.435 133.85 -186.366 133.841ZM-178.969 123.916C-178.83 123.898 -178.622 123.872 -178.348 123.841C-177.799 123.78 -176.979 123.697 -175.895 123.612C-173.725 123.441 -170.494 123.26 -166.235 123.219C-157.716 123.138 -145.085 123.618 -128.612 125.855C-95.665 130.328 -47.3528 141.833 14.166 169.945C137.204 226.17 313.054 348.82 524.462 614.496C735.79 880.072 911.509 1002.6 1034.36 1058.74C1095.78 1086.8 1143.99 1098.28 1176.83 1102.74C1193.25 1104.97 1205.82 1105.44 1214.29 1105.36C1218.53 1105.32 1221.73 1105.14 1223.88 1104.97C1224.95 1104.89 1225.75 1104.81 1226.29 1104.75C1226.56 1104.72 1226.76 1104.69 1226.9 1104.67C1226.96 1104.66 1227.01 1104.66 1227.04 1104.65L1227.09 1104.65C1227.09 1104.65 1227.1 1104.68 1227.17 1105.19C1227.25 1105.72 1227.25 1105.73 1227.25 1105.73C1227.24 1105.73 1227.24 1105.73 1227.23 1105.73C1227.23 1105.73 1227.21 1105.73 1227.19 1105.74C1227.16 1105.74 1227.11 1105.75 1227.04 1105.76C1226.9 1105.78 1226.69 1105.8 1226.42 1105.83C1225.87 1105.89 1225.05 1105.98 1223.96 1106.06C1221.79 1106.23 1218.56 1106.41 1214.3 1106.46C1205.78 1106.54 1193.15 1106.06 1176.68 1103.82C1143.73 1099.35 1095.42 1087.84 1033.9 1059.73C910.862 1003.5 735.013 880.854 523.605 615.178C312.278 349.603 136.559 227.078 13.7121 170.94C-47.7111 142.872 -95.9209 131.398 -128.76 126.939C-145.179 124.71 -157.757 124.233 -166.224 124.313C-170.458 124.354 -173.664 124.534 -175.809 124.703C-176.881 124.787 -177.688 124.868 -178.225 124.929C-178.493 124.959 -178.695 124.984 -178.828 125.001C-178.895 125.01 -178.946 125.016 -178.978 125.021L-179.023 125.027C-179.025 125.026 -179.029 124.997 -179.104 124.487C-179.178 123.979 -179.181 123.947 -179.179 123.945L-179.127 123.937C-179.091 123.932 -179.038 123.925 -178.969 123.916ZM-171.571 113.992C-171.432 113.974 -171.224 113.948 -170.95 113.917C-170.401 113.855 -169.581 113.773 -168.497 113.687C-166.328 113.516 -163.096 113.335 -158.837 113.295C-150.318 113.214 -137.687 113.693 -121.214 115.93C-88.2672 120.404 -39.9548 131.908 21.5639 160.021C144.602 216.246 320.452 338.896 531.86 604.572C743.187 870.147 918.907 992.673 1041.75 1048.81C1103.18 1076.88 1151.39 1088.35 1184.22 1092.81C1200.64 1095.04 1213.22 1095.52 1221.69 1095.44C1225.92 1095.4 1229.13 1095.22 1231.27 1095.05C1232.35 1094.96 1233.15 1094.88 1233.69 1094.82C1233.96 1094.79 1234.16 1094.77 1234.29 1094.75C1234.36 1094.74 1234.41 1094.73 1234.44 1094.73L1234.49 1094.72C1234.49 1094.72 1234.49 1094.74 1234.57 1095.26C1234.65 1095.81 1234.65 1095.81 1234.64 1095.81C1234.64 1095.81 1234.64 1095.81 1234.63 1095.81C1234.62 1095.81 1234.61 1095.81 1234.59 1095.81C1234.56 1095.82 1234.5 1095.82 1234.43 1095.83C1234.29 1095.85 1234.09 1095.88 1233.81 1095.91C1233.26 1095.97 1232.44 1096.05 1231.36 1096.14C1229.19 1096.31 1225.96 1096.49 1221.7 1096.53C1213.18 1096.61 1200.55 1096.13 1184.08 1093.9C1151.13 1089.42 1102.82 1077.92 1041.3 1049.81C918.26 993.58 742.411 870.929 531.003 605.253C319.676 339.679 143.957 217.153 21.11 161.016C-40.3132 132.947 -88.5231 121.473 -121.362 117.014C-137.781 114.785 -150.359 114.308 -158.827 114.389C-163.06 114.429 -166.266 114.609 -168.411 114.778C-169.483 114.862 -170.29 114.944 -170.827 115.004C-171.095 115.034 -171.297 115.059 -171.431 115.076C-171.497 115.085 -171.548 115.092 -171.581 115.096L-171.625 115.103C-171.627 115.1 -171.633 115.061 -171.706 114.562C-171.779 114.062 -171.783 114.023 -171.781 114.02L-171.729 114.013C-171.693 114.008 -171.64 114.001 -171.571 113.992ZM-164.173 104.067C-164.034 104.049 -163.827 104.023 -163.552 103.992C-163.003 103.93 -162.183 103.848 -161.099 103.763C-158.93 103.592 -155.698 103.411 -151.439 103.37C-142.921 103.289 -130.289 103.769 -113.816 106.005C-80.8692 110.479 -32.5569 121.984 28.9618 150.096C152 206.321 327.85 328.971 539.258 594.647C750.585 860.222 926.304 982.748 1049.15 1038.89C1110.57 1066.95 1158.78 1078.43 1191.62 1082.89C1208.04 1085.12 1220.62 1085.59 1229.09 1085.51C1233.32 1085.47 1236.53 1085.29 1238.67 1085.12C1239.74 1085.04 1240.55 1084.96 1241.09 1084.9C1241.36 1084.87 1241.56 1084.84 1241.69 1084.82C1241.76 1084.82 1241.81 1084.81 1241.84 1084.8L1241.89 1084.8C1241.89 1084.8 1241.89 1084.82 1241.97 1085.34C1242.04 1085.85 1242.04 1085.88 1242.04 1085.88C1242.04 1085.88 1242.03 1085.88 1242.03 1085.88C1242.02 1085.88 1242.01 1085.89 1241.99 1085.89C1241.95 1085.89 1241.9 1085.9 1241.83 1085.91C1241.69 1085.93 1241.49 1085.95 1241.21 1085.98C1240.66 1086.05 1239.84 1086.13 1238.76 1086.21C1236.59 1086.39 1233.36 1086.57 1229.1 1086.61C1220.58 1086.69 1207.95 1086.21 1191.48 1083.97C1158.53 1079.5 1110.22 1067.99 1048.7 1039.88C925.658 983.656 749.809 861.005 538.401 595.329C327.074 329.754 151.354 207.229 28.5079 151.091C-32.9153 123.022 -81.1252 111.549 -113.964 107.09C-130.383 104.86 -142.962 104.383 -151.429 104.464C-155.662 104.504 -158.868 104.684 -161.013 104.853C-162.085 104.938 -162.892 105.019 -163.429 105.08C-163.698 105.11 -163.899 105.135 -164.033 105.152C-164.099 105.16 -164.15 105.167 -164.183 105.172L-164.227 105.178C-164.229 105.177 -164.234 105.148 -164.308 104.637C-164.382 104.129 -164.385 104.098 -164.383 104.096L-164.331 104.088C-164.295 104.083 -164.242 104.076 -164.173 104.067ZM-156.776 94.1424C-156.637 94.1244 -156.43 94.0986 -156.155 94.0677C-155.606 94.0058 -154.786 93.9235 -153.702 93.8381C-151.533 93.6673 -148.301 93.4861 -144.042 93.4456C-135.524 93.3645 -122.892 93.844 -106.419 96.0808C-73.4723 100.555 -25.1601 112.059 36.3587 140.172C159.397 196.397 335.247 319.046 546.655 584.723C757.982 850.298 933.701 972.824 1056.55 1028.96C1117.97 1057.03 1166.18 1068.5 1199.02 1072.96C1215.44 1075.19 1228.02 1075.67 1236.48 1075.59C1240.72 1075.55 1243.92 1075.37 1246.07 1075.2C1247.14 1075.11 1247.95 1075.03 1248.49 1074.97C1248.75 1074.94 1248.95 1074.92 1249.09 1074.9C1249.15 1074.89 1249.2 1074.88 1249.24 1074.88L1249.28 1074.87C1249.28 1074.87 1249.29 1074.89 1249.36 1075.41C1249.44 1075.96 1249.44 1075.96 1249.44 1075.96C1249.44 1075.96 1249.43 1075.96 1249.43 1075.96C1249.42 1075.96 1249.4 1075.96 1249.39 1075.96C1249.35 1075.97 1249.3 1075.98 1249.23 1075.98C1249.09 1076 1248.88 1076.03 1248.61 1076.06C1248.06 1076.12 1247.24 1076.2 1246.15 1076.29C1243.99 1076.46 1240.75 1076.64 1236.49 1076.68C1227.98 1076.76 1215.35 1076.28 1198.87 1074.05C1165.93 1069.57 1117.61 1058.07 1056.09 1029.96C933.055 973.731 757.206 851.08 545.798 585.404C334.471 319.829 158.751 197.304 35.9048 141.166C-25.5184 113.098 -73.7283 101.624 -106.567 97.1653C-122.987 94.9358 -135.565 94.459 -144.032 94.5395C-148.265 94.5798 -151.471 94.76 -153.616 94.9289C-154.688 95.0133 -155.495 95.0945 -156.032 95.155C-156.301 95.1852 -156.502 95.21 -156.636 95.2272C-156.702 95.2359 -156.753 95.2427 -156.786 95.2472L-156.83 95.2536C-156.832 95.2497 -156.839 95.2044 -156.911 94.7128C-156.985 94.2043 -156.988 94.1732 -156.986 94.1711L-156.934 94.1635C-156.898 94.1586 -156.846 94.1514 -156.776 94.1424ZM-149.378 84.2187C-149.239 84.2007 -149.032 84.1748 -148.757 84.144C-148.208 84.0821 -147.388 83.9998 -146.304 83.9144C-144.135 83.7436 -140.903 83.5624 -136.644 83.5219C-128.126 83.4409 -115.494 83.9204 -99.0212 86.1572C-66.0743 90.6309 -17.762 102.136 43.7568 130.248C166.795 186.473 342.645 309.123 554.053 574.799C765.38 840.374 941.099 962.9 1063.95 1019.04C1125.37 1047.11 1173.58 1058.58 1206.42 1063.04C1222.84 1065.27 1235.42 1065.74 1243.88 1065.66C1248.12 1065.62 1251.32 1065.44 1253.47 1065.28C1254.54 1065.19 1255.35 1065.11 1255.88 1065.05C1256.15 1065.02 1256.35 1064.99 1256.49 1064.98C1256.55 1064.97 1256.6 1064.96 1256.64 1064.96L1256.68 1064.95C1256.68 1064.95 1256.69 1064.97 1256.76 1065.49C1256.84 1066.03 1256.84 1066.03 1256.84 1066.03C1256.83 1066.03 1256.83 1066.03 1256.83 1066.03C1256.82 1066.04 1256.8 1066.04 1256.78 1066.04C1256.75 1066.04 1256.7 1066.05 1256.63 1066.06C1256.49 1066.08 1256.28 1066.1 1256.01 1066.14C1255.46 1066.2 1254.64 1066.28 1253.55 1066.37C1251.38 1066.54 1248.15 1066.72 1243.89 1066.76C1235.37 1066.84 1222.74 1066.36 1206.27 1064.12C1173.32 1059.65 1125.01 1048.15 1063.49 1020.03C940.453 963.808 764.604 841.157 553.196 575.481C341.869 309.906 166.149 187.38 43.3028 131.243C-18.1203 103.174 -66.3302 91.7006 -99.169 87.2416C-115.588 85.0121 -128.167 84.5353 -136.634 84.6158C-140.867 84.6561 -144.073 84.8363 -146.218 85.0052C-147.29 85.0896 -148.097 85.1709 -148.634 85.2314C-148.903 85.2616 -149.104 85.2863 -149.238 85.3036C-149.304 85.3122 -149.355 85.319 -149.388 85.3235L-149.432 85.33C-149.434 85.328 -149.439 85.2952 -149.513 84.7891C-149.585 84.2956 -149.59 84.2516 -149.588 84.2474L-149.536 84.2398C-149.5 84.2349 -149.447 84.2277 -149.378 84.2187ZM-141.979 74.2939C-141.84 74.2759 -141.633 74.2501 -141.359 74.2192C-140.809 74.1573 -139.989 74.075 -138.905 73.9896C-136.736 73.8188 -133.504 73.6376 -129.245 73.5971C-120.727 73.5161 -108.095 73.9956 -91.6224 76.2324C-58.6754 80.7061 -10.3631 92.2108 51.1556 120.323C174.194 176.548 350.044 299.198 561.452 564.874C772.779 830.449 948.498 952.975 1071.34 1009.11C1132.77 1037.18 1180.98 1048.66 1213.82 1053.11C1230.24 1055.34 1242.81 1055.82 1251.28 1055.74C1255.51 1055.7 1258.72 1055.52 1260.87 1055.35C1261.94 1055.27 1262.74 1055.18 1263.28 1055.12C1263.55 1055.09 1263.75 1055.07 1263.89 1055.05C1263.95 1055.04 1264 1055.04 1264.03 1055.03L1264.08 1055.02C1264.08 1055.03 1264.09 1055.05 1264.16 1055.57C1264.24 1056.09 1264.24 1056.11 1264.23 1056.11C1264.23 1056.11 1264.23 1056.11 1264.22 1056.11C1264.22 1056.11 1264.2 1056.11 1264.18 1056.11C1264.15 1056.12 1264.1 1056.13 1264.03 1056.14C1263.89 1056.15 1263.68 1056.18 1263.41 1056.21C1262.86 1056.27 1262.04 1056.36 1260.95 1056.44C1258.78 1056.61 1255.55 1056.79 1251.29 1056.83C1242.77 1056.91 1230.14 1056.44 1213.67 1054.2C1180.72 1049.72 1132.41 1038.22 1070.89 1010.11C947.852 953.883 772.003 831.232 560.595 565.556C349.268 299.981 173.548 177.456 50.7017 121.318C-10.7215 93.2493 -58.9313 81.7758 -91.7701 77.3168C-108.19 75.0873 -120.768 74.6105 -129.235 74.691C-133.468 74.7313 -136.674 74.9115 -138.819 75.0804C-139.891 75.1648 -140.698 75.2461 -141.235 75.3066C-141.504 75.3368 -141.705 75.3615 -141.839 75.3788C-141.905 75.3874 -141.956 75.3942 -141.989 75.3987L-142.033 75.4052C-142.035 75.4037 -142.04 75.3746 -142.114 74.8643C-142.188 74.3556 -142.191 74.3248 -142.189 74.3226L-142.137 74.315C-142.101 74.3101 -142.049 74.3029 -141.979 74.2939ZM-134.582 64.3694C-134.443 64.3514 -134.236 64.3256 -133.962 64.2947C-133.412 64.2328 -132.593 64.1505 -131.508 64.0651C-129.339 63.8943 -126.108 63.7131 -121.848 63.6726C-113.33 63.5916 -100.699 64.0711 -84.2254 66.3079C-51.2785 70.7816 -2.96625 82.2863 58.5526 110.399C181.591 166.624 357.441 289.273 568.849 554.95C780.176 820.525 955.895 943.051 1078.74 999.188C1140.16 1027.26 1188.37 1038.73 1221.21 1043.19C1237.63 1045.42 1250.21 1045.89 1258.68 1045.81C1262.91 1045.77 1266.12 1045.59 1268.26 1045.43C1269.33 1045.34 1270.14 1045.26 1270.68 1045.2C1270.95 1045.17 1271.15 1045.14 1271.28 1045.13C1271.35 1045.12 1271.4 1045.11 1271.43 1045.11L1271.48 1045.1C1271.48 1045.1 1271.48 1045.12 1271.56 1045.64C1271.64 1046.18 1271.63 1046.18 1271.63 1046.18C1271.63 1046.18 1271.63 1046.18 1271.62 1046.19C1271.61 1046.19 1271.6 1046.19 1271.58 1046.19C1271.54 1046.2 1271.49 1046.2 1271.42 1046.21C1271.28 1046.23 1271.08 1046.26 1270.8 1046.29C1270.25 1046.35 1269.43 1046.43 1268.35 1046.52C1266.18 1046.69 1262.95 1046.87 1258.69 1046.91C1250.17 1046.99 1237.54 1046.51 1221.07 1044.27C1188.12 1039.8 1139.81 1028.3 1078.29 1000.18C955.249 943.958 779.4 821.307 567.992 555.631C356.665 290.056 180.945 167.531 58.0986 111.394C-3.32459 83.3248 -51.5344 71.8513 -84.3732 67.3923C-100.793 65.1628 -113.371 64.686 -121.838 64.7665C-126.071 64.8068 -129.277 64.987 -131.422 65.1559C-132.494 65.2403 -133.301 65.3216 -133.839 65.3821C-134.107 65.4123 -134.308 65.437 -134.442 65.4543C-134.509 65.4629 -134.559 65.4697 -134.592 65.4742L-134.636 65.4807C-134.638 65.4777 -134.645 65.4381 -134.717 64.9398C-134.791 64.4312 -134.794 64.4003 -134.792 64.3981L-134.74 64.3905C-134.705 64.3856 -134.652 64.3784 -134.582 64.3694ZM-127.185 54.4449C-127.046 54.4269 -126.839 54.401 -126.565 54.3702C-126.015 54.3083 -125.195 54.226 -124.111 54.1406C-121.942 53.9698 -118.71 53.7886 -114.451 53.7481C-105.933 53.6671 -93.3014 54.1466 -76.8285 56.3834C-43.8816 60.8571 4.43089 72.3619 65.9495 100.474C188.988 156.699 364.838 279.349 576.246 545.025C787.573 810.6 963.292 933.126 1086.14 989.264C1147.56 1017.33 1195.77 1028.81 1228.61 1033.27C1245.03 1035.49 1257.61 1035.97 1266.08 1035.89C1270.31 1035.85 1273.51 1035.67 1275.66 1035.5C1276.73 1035.42 1277.54 1035.33 1278.08 1035.27C1278.34 1035.24 1278.55 1035.22 1278.68 1035.2C1278.75 1035.19 1278.8 1035.19 1278.83 1035.18L1278.87 1035.18C1278.88 1035.18 1278.88 1035.19 1278.95 1035.72C1279.03 1036.26 1279.03 1036.26 1279.03 1036.26C1279.03 1036.26 1279.02 1036.26 1279.02 1036.26C1279.01 1036.26 1278.99 1036.26 1278.98 1036.27C1278.94 1036.27 1278.89 1036.28 1278.82 1036.29C1278.68 1036.3 1278.47 1036.33 1278.2 1036.36C1277.65 1036.42 1276.83 1036.51 1275.75 1036.59C1273.58 1036.76 1270.34 1036.94 1266.09 1036.98C1257.57 1037.06 1244.94 1036.59 1228.46 1034.35C1195.52 1029.88 1147.2 1018.37 1085.68 990.259C962.646 934.034 786.796 811.383 575.389 545.707C364.062 280.132 188.342 157.607 65.4956 101.469C4.07255 73.4004 -44.1376 61.9268 -76.9763 57.4678C-93.3956 55.2383 -105.974 54.7615 -114.441 54.842C-118.674 54.8823 -121.881 55.0625 -124.025 55.2314C-125.097 55.3158 -125.904 55.397 -126.442 55.4575C-126.71 55.4877 -126.912 55.5125 -127.045 55.5298C-127.111 55.5384 -127.162 55.5452 -127.195 55.5497L-127.239 55.5562C-127.241 55.5511 -127.25 55.5004 -127.32 55.0153C-127.394 54.5086 -127.397 54.4759 -127.395 54.4736L-127.343 54.466C-127.308 54.4611 -127.255 54.4539 -127.185 54.4449ZM-119.786 44.5211C-119.647 44.5031 -119.44 44.4772 -119.166 44.4463C-118.616 44.3845 -117.797 44.3022 -116.712 44.2168C-114.543 44.0459 -111.312 43.8648 -107.052 43.8243C-98.5338 43.7432 -85.9025 44.2227 -69.4295 46.4595C-36.4825 50.9333 11.8298 62.438 73.3485 90.5503C196.387 146.775 372.237 269.425 583.645 535.101C794.972 800.676 970.691 923.202 1093.54 979.34C1154.96 1007.41 1203.17 1018.88 1236.01 1023.34C1252.43 1025.57 1265.01 1026.05 1273.47 1025.97C1277.71 1025.93 1280.91 1025.75 1283.06 1025.58C1284.13 1025.49 1284.94 1025.41 1285.47 1025.35C1285.74 1025.32 1285.94 1025.3 1286.08 1025.28C1286.14 1025.27 1286.19 1025.26 1286.23 1025.26L1286.27 1025.25C1286.27 1025.26 1286.28 1025.3 1286.35 1025.79C1286.43 1026.32 1286.43 1026.34 1286.43 1026.34C1286.43 1026.34 1286.42 1026.34 1286.42 1026.34C1286.41 1026.34 1286.39 1026.34 1286.38 1026.34C1286.34 1026.35 1286.29 1026.35 1286.22 1026.36C1286.08 1026.38 1285.87 1026.41 1285.6 1026.44C1285.05 1026.5 1284.23 1026.58 1283.14 1026.67C1280.98 1026.84 1277.74 1027.02 1273.48 1027.06C1264.97 1027.14 1252.33 1026.66 1235.86 1024.43C1202.91 1019.95 1154.6 1008.45 1093.08 980.335C970.045 924.11 794.195 801.459 582.788 535.783C371.461 270.208 195.741 147.683 72.8946 91.5452C11.4714 63.4765 -36.7385 52.003 -69.5772 47.544C-85.9967 45.3145 -98.5748 44.8376 -107.042 44.9182C-111.275 44.9584 -114.482 45.1387 -116.626 45.3076C-117.698 45.392 -118.505 45.4732 -119.043 45.5337C-119.311 45.5639 -119.512 45.5887 -119.646 45.6059C-119.713 45.6145 -119.763 45.6214 -119.796 45.6258L-119.84 45.6323C-119.842 45.6309 -119.847 45.6015 -119.921 45.0915C-119.994 44.5901 -119.998 44.5528 -119.996 44.5498L-119.944 44.5421C-119.909 44.5372 -119.856 44.53 -119.786 44.5211ZM-112.388 34.5964C-112.249 34.5785 -112.042 34.5526 -111.768 34.5217C-111.218 34.4599 -110.399 34.3775 -109.314 34.2921C-107.145 34.1213 -103.914 33.9401 -99.6546 33.8996C-91.136 33.8186 -78.5047 34.2981 -62.0316 36.5349C-29.0846 41.0086 19.2276 52.5133 80.7464 80.6257C203.785 136.851 379.634 259.5 591.042 525.177C802.37 790.752 978.089 913.278 1100.94 969.415C1162.36 997.484 1210.57 1008.96 1243.41 1013.42C1259.83 1015.65 1272.4 1016.12 1280.87 1016.04C1285.11 1016 1288.31 1015.82 1290.46 1015.65C1291.53 1015.57 1292.34 1015.49 1292.87 1015.43C1293.14 1015.4 1293.34 1015.37 1293.48 1015.35C1293.54 1015.35 1293.59 1015.34 1293.63 1015.33L1293.67 1015.33C1293.67 1015.33 1293.67 1015.34 1293.75 1015.87C1293.83 1016.41 1293.83 1016.41 1293.83 1016.41C1293.82 1016.41 1293.82 1016.41 1293.82 1016.41C1293.81 1016.41 1293.79 1016.41 1293.77 1016.42C1293.74 1016.42 1293.69 1016.43 1293.62 1016.44C1293.48 1016.46 1293.27 1016.48 1293 1016.51C1292.45 1016.58 1291.63 1016.66 1290.54 1016.74C1288.37 1016.91 1285.14 1017.09 1280.88 1017.14C1272.36 1017.22 1259.73 1016.74 1243.26 1014.5C1210.31 1010.03 1162 998.523 1100.48 970.41C977.443 914.185 801.593 791.534 590.186 525.858C378.858 260.283 203.139 137.758 80.2925 81.6205C18.8692 53.5518 -29.3406 42.0783 -62.1794 37.6193C-78.5988 35.3898 -91.177 34.913 -99.644 34.9935C-103.878 35.0338 -107.084 35.214 -109.228 35.3829C-110.3 35.4673 -111.107 35.5486 -111.645 35.6091C-111.913 35.6393 -112.115 35.664 -112.248 35.6813C-112.315 35.6899 -112.365 35.6967 -112.398 35.7012L-112.443 35.7077C-112.444 35.7055 -112.45 35.6708 -112.523 35.1668C-112.597 34.6656 -112.6 34.6282 -112.598 34.6251L-112.546 34.6175C-112.511 34.6126 -112.458 34.6054 -112.388 34.5964ZM-104.99 24.6717C-104.85 24.6537 -104.643 24.6278 -104.369 24.5969C-103.82 24.5351 -103 24.4527 -101.915 24.3673C-99.7462 24.1965 -96.5147 24.0153 -92.2557 23.9748C-83.7371 23.8938 -71.1057 24.3733 -54.6327 26.6101C-21.6858 31.0838 26.6265 42.5885 88.1453 70.7009C211.183 126.926 387.033 249.576 598.441 515.252C809.769 780.827 985.488 903.353 1108.33 959.491C1169.76 987.559 1217.97 999.033 1250.81 1003.49C1267.23 1005.72 1279.8 1006.2 1288.27 1006.12C1292.5 1006.08 1295.71 1005.9 1297.86 1005.73C1298.93 1005.64 1299.73 1005.56 1300.27 1005.5C1300.54 1005.47 1300.74 1005.45 1300.87 1005.43C1300.94 1005.42 1300.99 1005.41 1301.02 1005.41L1301.07 1005.4C1301.07 1005.4 1301.08 1005.43 1301.15 1005.94C1301.22 1006.44 1301.23 1006.48 1301.22 1006.49C1301.22 1006.49 1301.22 1006.49 1301.21 1006.49C1301.2 1006.49 1301.19 1006.49 1301.17 1006.49C1301.14 1006.5 1301.08 1006.5 1301.02 1006.51C1300.88 1006.53 1300.67 1006.56 1300.39 1006.59C1299.85 1006.65 1299.03 1006.73 1297.94 1006.82C1295.77 1006.99 1292.54 1007.17 1288.28 1007.21C1279.76 1007.29 1267.13 1006.81 1250.66 1004.58C1217.71 1000.1 1169.4 988.598 1107.88 960.486C984.841 904.26 808.992 781.61 597.584 515.933C386.257 250.359 210.538 127.833 87.6913 71.6957C26.2682 43.6271 -21.9417 32.1536 -54.7805 27.6945C-71.1999 25.465 -83.7781 24.9882 -92.2452 25.0687C-96.4785 25.109 -99.6847 25.2892 -101.829 25.4581C-102.901 25.5425 -103.708 25.6238 -104.246 25.6843C-104.514 25.7145 -104.716 25.7393 -104.849 25.7565C-104.916 25.7651 -104.967 25.7719 -104.999 25.7764L-105.044 25.7829C-105.045 25.7796 -105.052 25.7378 -105.125 25.242C-105.199 24.7336 -105.202 24.7025 -105.2 24.7003L-105.147 24.6927C-105.112 24.6878 -105.059 24.6806 -104.99 24.6717ZM-97.5916 14.748C-97.4523 14.73 -97.2452 14.7041 -96.9709 14.6732C-96.4215 14.6114 -95.6019 14.5291 -94.5174 14.4436C-92.3482 14.2728 -89.1168 14.0916 -84.8577 14.0511C-76.339 13.9701 -63.7078 14.4496 -47.2347 16.6864C-14.2877 21.1601 34.0245 32.6648 95.5433 60.7772C218.581 117.002 394.431 239.652 605.839 505.328C817.167 770.903 992.886 893.429 1115.73 949.567C1177.16 977.635 1225.36 989.109 1258.2 993.568C1274.62 995.798 1287.2 996.273 1295.67 996.193C1299.9 996.153 1303.11 995.973 1305.25 995.804C1306.33 995.72 1307.13 995.638 1307.67 995.577C1307.94 995.547 1308.14 995.522 1308.27 995.505C1308.34 995.497 1308.39 995.49 1308.42 995.485L1308.47 995.479C1308.47 995.481 1308.47 995.516 1308.55 996.021C1308.63 996.559 1308.63 996.562 1308.62 996.562C1308.62 996.563 1308.62 996.563 1308.61 996.564C1308.6 996.565 1308.59 996.566 1308.57 996.569C1308.54 996.574 1308.48 996.581 1308.41 996.59C1308.27 996.608 1308.07 996.634 1307.79 996.665C1307.24 996.727 1306.42 996.81 1305.34 996.895C1303.17 997.066 1299.94 997.246 1295.68 997.287C1287.16 997.368 1274.53 996.889 1258.06 994.652C1225.11 990.179 1176.8 978.674 1115.28 950.562C992.24 894.337 816.39 771.686 604.982 506.01C393.655 240.435 217.936 117.91 95.0894 61.7721C33.6661 33.7033 -14.5437 22.2299 -47.3825 17.7708C-63.802 15.5413 -76.38 15.0645 -84.8471 15.145C-89.0807 15.1853 -92.2867 15.3655 -94.4313 15.5344C-95.5034 15.6189 -96.3104 15.7001 -96.8478 15.7606C-97.1162 15.7908 -97.3177 15.8156 -97.4511 15.8328C-97.5178 15.8414 -97.5685 15.8482 -97.6012 15.8527L-97.6456 15.8592C-97.6473 15.8577 -97.6521 15.8284 -97.7265 15.3183C-97.7994 14.8185 -97.8035 14.7799 -97.8016 14.7766L-97.7494 14.769C-97.7138 14.7641 -97.661 14.7569 -97.5916 14.748ZM-90.1967 4.82278C-90.0575 4.80478 -89.8503 4.7789 -89.576 4.74803C-89.0267 4.68619 -88.2069 4.60386 -87.1225 4.51845C-84.9534 4.34762 -81.7219 4.16646 -77.4628 4.12594C-68.9442 4.04491 -56.3128 4.52444 -39.8398 6.76121C-6.89294 11.2349 41.4195 22.7397 102.938 50.852C225.976 107.077 401.826 229.727 613.234 495.403C824.562 760.978 1000.28 883.504 1123.13 939.642C1184.55 967.71 1232.76 979.184 1265.6 983.643C1282.02 985.873 1294.6 986.348 1303.06 986.268C1307.3 986.227 1310.5 986.048 1312.65 985.879C1313.72 985.795 1314.53 985.713 1315.06 985.652C1315.33 985.622 1315.53 985.597 1315.67 985.58C1315.73 985.571 1315.78 985.565 1315.82 985.56L1315.86 985.554C1315.86 985.554 1315.87 985.57 1315.94 986.095C1316.02 986.636 1316.02 986.637 1316.02 986.637C1316.02 986.638 1316.01 986.638 1316.01 986.639C1316 986.64 1315.98 986.641 1315.97 986.644C1315.93 986.649 1315.88 986.656 1315.81 986.665C1315.67 986.683 1315.46 986.709 1315.19 986.74C1314.64 986.801 1313.82 986.885 1312.73 986.97C1310.57 987.141 1307.33 987.321 1303.07 987.362C1294.56 987.443 1281.92 986.964 1265.45 984.727C1232.5 980.254 1184.19 968.749 1122.67 940.637C999.634 884.412 823.785 761.76 612.377 496.085C401.05 230.51 225.331 107.984 102.484 51.8469C41.0611 23.7783 -7.14887 12.3047 -39.9876 7.84565C-56.407 5.61618 -68.9852 5.13932 -77.4523 5.21986C-81.6857 5.26013 -84.8919 5.44035 -87.0365 5.60925C-88.1084 5.69367 -88.9156 5.77491 -89.453 5.8354C-89.7212 5.86561 -89.9229 5.89037 -90.0563 5.90762C-90.1229 5.91623 -90.1737 5.92304 -90.2063 5.92753L-90.2508 5.93402C-90.2528 5.92915 -90.2607 5.87925 -90.3316 5.39315C-90.4058 4.8848 -90.4089 4.85362 -90.4067 4.85144L-90.3545 4.84383C-90.319 4.83893 -90.266 4.83174 -90.1967 4.82278ZM-82.7977 -5.10104C-82.6585 -5.11904 -82.4512 -5.14493 -82.177 -5.17579C-81.6276 -5.23763 -80.8078 -5.31999 -79.7235 -5.40537C-77.5543 -5.5762 -74.3228 -5.75737 -70.0638 -5.79789C-61.5452 -5.87889 -48.9138 -5.39939 -32.4408 -3.16261C0.506137 1.31114 48.8185 12.8159 110.337 40.9282C233.375 97.1533 409.225 219.803 620.633 485.479C831.961 751.054 1007.68 873.58 1130.53 929.718C1191.95 957.786 1240.16 969.26 1273 973.719C1289.42 975.949 1302 976.424 1310.46 976.344C1314.7 976.304 1317.9 976.124 1320.05 975.955C1321.12 975.871 1321.93 975.789 1322.46 975.728C1322.73 975.698 1322.93 975.673 1323.07 975.656C1323.13 975.648 1323.18 975.641 1323.22 975.636L1323.26 975.63C1323.26 975.633 1323.27 975.673 1323.34 976.172C1323.42 976.692 1323.42 976.712 1323.42 976.713C1323.41 976.714 1323.41 976.714 1323.41 976.715C1323.4 976.716 1323.38 976.717 1323.37 976.72C1323.33 976.725 1323.28 976.732 1323.21 976.741C1323.07 976.759 1322.86 976.785 1322.59 976.816C1322.04 976.878 1321.22 976.961 1320.13 977.046C1317.96 977.217 1314.73 977.397 1310.47 977.438C1301.95 977.519 1289.32 977.04 1272.85 974.803C1239.9 970.33 1191.59 958.825 1130.07 930.713C1007.03 874.488 831.184 751.837 619.776 486.161C408.449 220.586 232.73 98.0607 109.883 41.923C48.4602 13.8544 0.250206 2.38088 -32.5886 -2.07817C-49.0079 -4.30765 -61.5862 -4.78448 -70.0533 -4.70397C-74.2866 -4.6637 -77.4929 -4.48347 -79.6375 -4.31458C-80.7093 -4.23016 -81.5165 -4.14891 -82.0539 -4.08842C-82.3221 -4.05823 -82.5238 -4.03345 -82.6573 -4.01621C-82.7237 -4.00761 -82.7746 -4.00079 -82.8073 -3.99629L-82.8518 -3.98981C-82.8534 -3.99128 -82.8582 -4.02054 -82.9326 -4.53068C-83.0069 -5.03947 -83.0099 -5.0702 -83.0077 -5.07239L-82.9555 -5.08C-82.9199 -5.0849 -82.8669 -5.0921 -82.7977 -5.10104ZM-75.3998 -15.0257C-75.2606 -15.0437 -75.0535 -15.0696 -74.7791 -15.1004C-74.2297 -15.1623 -73.4101 -15.2446 -72.3256 -15.33C-70.1564 -15.5009 -66.9251 -15.682 -62.6659 -15.7225C-54.1473 -15.8036 -41.5161 -15.3241 -25.0429 -13.0873C7.90403 -8.61354 56.2162 2.89115 117.735 31.0035C240.773 87.2285 416.623 209.878 628.031 475.555C839.359 741.13 1015.08 863.656 1137.92 919.793C1199.35 947.862 1247.56 959.335 1280.4 963.795C1296.81 966.024 1309.39 966.5 1317.86 966.419C1322.09 966.379 1325.3 966.2 1327.45 966.031C1328.52 965.946 1329.32 965.864 1329.86 965.804C1330.13 965.773 1330.33 965.749 1330.46 965.731C1330.53 965.723 1330.58 965.716 1330.61 965.712L1330.66 965.705C1330.66 965.705 1330.66 965.721 1330.74 966.247C1330.82 966.788 1330.82 966.788 1330.81 966.789C1330.81 966.789 1330.81 966.79 1330.8 966.79C1330.79 966.792 1330.78 966.793 1330.76 966.795C1330.73 966.8 1330.67 966.807 1330.61 966.816C1330.47 966.834 1330.26 966.86 1329.98 966.891C1329.44 966.953 1328.62 967.036 1327.53 967.122C1325.36 967.292 1322.13 967.473 1317.87 967.513C1309.35 967.594 1296.72 967.116 1280.25 964.879C1247.3 960.405 1198.99 948.901 1137.47 920.788C1014.43 864.563 838.582 741.912 627.174 476.236C415.847 210.661 240.128 88.1359 117.281 31.9984C55.8579 3.92969 7.64807 -7.54381 -25.1907 -12.0028C-41.6102 -14.2323 -54.1883 -14.7092 -62.6554 -14.6286C-66.889 -14.5884 -70.095 -14.4081 -72.2396 -14.2392C-73.3117 -14.1548 -74.1186 -14.0736 -74.656 -14.0131C-74.9245 -13.9829 -75.1259 -13.9581 -75.2594 -13.9409C-75.3261 -13.9322 -75.3767 -13.9254 -75.4094 -13.9209L-75.4539 -13.9145C-75.4557 -13.9176 -75.4622 -13.9582 -75.5347 -14.4553C-75.6089 -14.9639 -75.612 -14.9949 -75.6098 -14.997L-75.5576 -15.0046C-75.522 -15.0096 -75.4692 -15.0167 -75.3998 -15.0257ZM-68.0019 -24.9503C-67.8627 -24.9683 -67.6554 -24.9942 -67.3812 -25.0251C-66.8319 -25.0869 -66.0121 -25.1693 -64.9277 -25.2547C-62.7586 -25.4255 -59.527 -25.6067 -55.268 -25.6472C-46.7495 -25.7282 -34.118 -25.2487 -17.645 -23.0119C15.3019 -18.5382 63.6143 -7.03338 125.133 21.0789C248.171 77.3038 424.021 199.954 635.429 465.63C846.756 731.205 1022.48 853.731 1145.32 909.869C1206.75 937.937 1254.95 949.411 1287.79 953.87C1304.21 956.099 1316.79 956.575 1325.26 956.495C1329.49 956.454 1332.7 956.275 1334.84 956.106C1335.91 956.022 1336.72 955.94 1337.26 955.879C1337.53 955.849 1337.73 955.824 1337.86 955.807C1337.93 955.798 1337.98 955.792 1338.01 955.787L1338.06 955.78C1338.06 955.781 1338.06 955.797 1338.14 956.322C1338.22 956.863 1338.21 956.864 1338.21 956.864C1338.21 956.864 1338.21 956.865 1338.2 956.866C1338.19 956.867 1338.18 956.868 1338.16 956.871C1338.13 956.876 1338.07 956.883 1338 956.892C1337.86 956.91 1337.66 956.936 1337.38 956.966C1336.83 957.028 1336.01 957.112 1334.93 957.197C1332.76 957.368 1329.53 957.548 1325.27 957.588C1316.75 957.669 1304.12 957.191 1287.65 954.954C1254.7 950.48 1206.39 938.976 1144.87 910.864C1021.83 854.638 845.98 731.987 634.572 466.311C423.245 200.737 247.526 78.2113 124.679 22.0737C63.256 -5.99484 15.0459 -17.4685 -17.7928 -21.9275C-34.2122 -24.1569 -46.7904 -24.6338 -55.2575 -24.5533C-59.4909 -24.513 -62.6971 -24.3328 -64.8417 -24.1639C-65.9136 -24.0795 -66.7208 -23.9982 -67.2582 -23.9377C-67.5264 -23.9075 -67.7281 -23.8827 -67.8615 -23.8655C-67.928 -23.8569 -67.9789 -23.8501 -68.0115 -23.8456L-68.056 -23.8391C-68.0579 -23.8439 -68.0659 -23.8934 -68.1369 -24.38C-68.2109 -24.8873 -68.214 -24.9194 -68.2119 -24.9217L-68.1597 -24.9293C-68.1242 -24.9342 -68.0712 -24.9414 -68.0019 -24.9503ZM-60.6039 -34.874C-60.4646 -34.892 -60.2574 -34.9179 -59.9832 -34.9488C-59.4338 -35.0106 -58.614 -35.093 -57.5297 -35.1784C-55.3605 -35.3492 -52.129 -35.5304 -47.87 -35.5709C-39.3513 -35.6519 -26.72 -35.1724 -10.247 -32.9356C22.7 -28.4618 71.0123 -16.9571 132.531 11.1552C255.569 67.3803 431.419 190.03 642.827 455.706C854.155 721.281 1029.87 843.807 1152.72 899.945C1214.14 928.013 1262.35 939.487 1295.19 943.946C1311.61 946.176 1324.19 946.651 1332.66 946.571C1336.89 946.531 1340.1 946.351 1342.24 946.182C1343.31 946.098 1344.12 946.016 1344.66 945.955C1344.93 945.925 1345.13 945.9 1345.26 945.883C1345.33 945.875 1345.38 945.868 1345.41 945.863L1345.46 945.857C1345.46 945.86 1345.46 945.901 1345.54 946.399C1345.61 946.924 1345.61 946.94 1345.61 946.94C1345.61 946.941 1345.6 946.941 1345.6 946.942C1345.59 946.943 1345.58 946.945 1345.56 946.947C1345.52 946.952 1345.47 946.959 1345.4 946.968C1345.26 946.986 1345.05 947.012 1344.78 947.043C1344.23 947.105 1343.41 947.188 1342.33 947.273C1340.16 947.444 1336.93 947.624 1332.67 947.665C1324.15 947.746 1311.52 947.267 1295.04 945.03C1262.1 940.557 1213.78 929.052 1152.27 900.94C1029.23 844.715 853.378 722.064 641.97 456.388C430.643 190.813 254.924 68.2877 132.077 12.1501C70.654 -15.9186 22.444 -27.3921 -10.3948 -31.8512C-26.8141 -34.0806 -39.3923 -34.5575 -47.8594 -34.477C-52.0929 -34.4367 -55.299 -34.2564 -57.4436 -34.0876C-58.5156 -34.0031 -59.3227 -33.9219 -59.8601 -33.8614C-60.1283 -33.8312 -60.33 -33.8064 -60.4634 -33.7892C-60.53 -33.7806 -60.5808 -33.7738 -60.6135 -33.7693L-60.6579 -33.7628C-60.6596 -33.7643 -60.6644 -33.7936 -60.7388 -34.3037C-60.813 -34.8125 -60.816 -34.8432 -60.8139 -34.8454L-60.7617 -34.853C-60.7261 -34.8579 -60.6731 -34.8651 -60.6039 -34.874ZM-53.207 -44.7985C-53.0677 -44.8165 -52.8606 -44.8424 -52.5863 -44.8733C-52.0369 -44.9351 -51.2173 -45.0175 -50.1328 -45.1029C-47.9635 -45.2737 -44.7323 -45.4549 -40.473 -45.4954C-31.9544 -45.5764 -19.3232 -45.0969 -2.85007 -42.8601C30.0969 -38.3864 78.409 -26.8817 139.928 1.23067C262.966 57.4557 438.816 180.105 650.224 445.782C861.551 711.357 1037.27 833.883 1160.12 890.02C1221.54 918.089 1269.75 929.563 1302.59 934.022C1319.01 936.251 1331.59 936.727 1340.05 936.646C1344.29 936.606 1347.49 936.427 1349.64 936.258C1350.71 936.174 1351.52 936.091 1352.05 936.031C1352.32 936.001 1352.52 935.976 1352.66 935.959C1352.72 935.95 1352.77 935.943 1352.81 935.939L1352.85 935.932C1352.85 935.934 1352.86 935.962 1352.93 936.474C1353.01 937.015 1353.01 937.016 1353.01 937.016C1353 937.016 1353 937.017 1353 937.017C1352.99 937.019 1352.97 937.02 1352.96 937.022C1352.92 937.027 1352.87 937.034 1352.8 937.043C1352.66 937.061 1352.45 937.087 1352.18 937.118C1351.63 937.18 1350.81 937.263 1349.72 937.349C1347.55 937.52 1344.32 937.7 1340.06 937.74C1331.55 937.821 1318.91 937.343 1302.44 935.106C1269.49 930.632 1221.18 919.128 1159.66 891.015C1036.62 834.79 860.775 712.139 649.367 446.463C438.04 180.888 262.321 58.3631 139.474 2.22555C78.0507 -25.8432 29.841 -37.3167 -2.99783 -41.7757C-19.4174 -44.0052 -31.9954 -44.482 -40.4625 -44.4015C-44.6961 -44.3612 -47.9021 -44.181 -50.0467 -44.0121C-51.1188 -43.9276 -51.9258 -43.8464 -52.4632 -43.7859C-52.7316 -43.7557 -52.9331 -43.7309 -53.0665 -43.7137C-53.1332 -43.7051 -53.1839 -43.6983 -53.2166 -43.6938L-53.261 -43.6873C-53.2627 -43.6888 -53.2675 -43.7181 -53.3419 -44.2282C-53.4145 -44.7259 -53.4188 -44.7663 -53.417 -44.7699L-53.3648 -44.7775C-53.3292 -44.7824 -53.2764 -44.7896 -53.207 -44.7985ZM-45.8091 -54.7232C-45.6699 -54.7412 -45.4625 -54.7671 -45.1884 -54.7979C-44.639 -54.8598 -43.8192 -54.9421 -42.7349 -55.0275C-40.5657 -55.1983 -37.3341 -55.3795 -33.0751 -55.42C-24.5566 -55.501 -11.9252 -55.0215 4.54782 -52.7848C37.4948 -48.311 85.8071 -36.8063 147.326 -8.69398C270.364 47.531 446.214 170.181 657.622 435.857C868.949 701.432 1044.67 823.958 1167.52 880.096C1228.94 908.164 1277.15 919.638 1309.99 924.097C1326.41 926.327 1338.98 926.802 1347.45 926.722C1351.68 926.681 1354.89 926.502 1357.04 926.333C1358.11 926.249 1358.91 926.167 1359.45 926.106C1359.72 926.076 1359.92 926.051 1360.06 926.034C1360.12 926.025 1360.17 926.019 1360.2 926.014L1360.25 926.008C1360.25 926.008 1360.25 926.024 1360.33 926.549C1360.41 927.09 1360.41 927.091 1360.41 927.091C1360.4 927.092 1360.4 927.092 1360.39 927.093C1360.39 927.094 1360.37 927.095 1360.35 927.098C1360.32 927.103 1360.27 927.11 1360.2 927.119C1360.06 927.137 1359.85 927.163 1359.58 927.194C1359.03 927.255 1358.21 927.339 1357.12 927.424C1354.95 927.595 1351.72 927.775 1347.46 927.816C1338.94 927.897 1326.31 927.418 1309.84 925.181C1276.89 920.708 1228.58 909.203 1167.06 881.091C1044.02 824.866 868.173 702.215 656.765 436.539C445.438 170.964 269.718 48.4384 146.872 -7.6991C85.4488 -35.7677 37.2388 -47.2413 4.40007 -51.7003C-12.0193 -53.9298 -24.5976 -54.4066 -33.0646 -54.3261C-37.298 -54.2858 -40.5043 -54.1056 -42.6488 -53.9367C-43.7207 -53.8523 -44.5279 -53.771 -45.0653 -53.7106C-45.3335 -53.6804 -45.5352 -53.6556 -45.6686 -53.6383C-45.7351 -53.6298 -45.786 -53.6229 -45.8187 -53.6184L-45.8631 -53.6119C-45.8649 -53.6151 -45.8715 -53.6558 -45.944 -54.1528C-46.0167 -54.6516 -46.0209 -54.6911 -46.0191 -54.6945L-45.9669 -54.7021C-45.9313 -54.707 -45.8783 -54.7142 -45.8091 -54.7232ZM-38.4112 -64.6478C-38.2719 -64.6658 -38.0647 -64.6917 -37.7905 -64.7226C-37.2411 -64.7844 -36.4214 -64.8668 -35.337 -64.9522C-33.1677 -65.123 -29.9364 -65.3042 -25.6772 -65.3447C-17.1586 -65.4257 -4.52735 -64.9462 11.9457 -62.7094C44.8927 -58.2357 93.2049 -46.731 154.724 -18.6186C277.762 37.6064 453.612 160.256 665.02 425.932C876.347 691.508 1052.07 814.034 1174.91 870.171C1236.34 898.24 1284.55 909.713 1317.38 914.172C1333.8 916.402 1346.38 916.878 1354.85 916.797C1359.08 916.757 1362.29 916.578 1364.43 916.409C1365.51 916.324 1366.31 916.242 1366.85 916.182C1367.12 916.151 1367.32 916.127 1367.45 916.109C1367.52 916.101 1367.57 916.094 1367.6 916.09L1367.65 916.083C1367.65 916.084 1367.65 916.108 1367.73 916.625C1367.81 917.153 1367.81 917.166 1367.8 917.167C1367.8 917.167 1367.8 917.168 1367.79 917.168C1367.78 917.169 1367.77 917.171 1367.75 917.173C1367.72 917.178 1367.66 917.185 1367.59 917.194C1367.45 917.212 1367.25 917.238 1366.97 917.269C1366.42 917.331 1365.6 917.414 1364.52 917.499C1362.35 917.67 1359.12 917.851 1354.86 917.891C1346.34 917.972 1333.71 917.493 1317.24 915.257C1284.29 910.783 1235.98 899.279 1174.46 871.166C1051.42 814.941 875.571 692.29 664.163 426.614C452.836 161.039 277.116 38.5138 154.27 -17.6237C92.8466 -45.6925 44.6368 -57.1659 11.798 -61.625C-4.62149 -63.8545 -17.1996 -64.3313 -25.6667 -64.2508C-29.9002 -64.2105 -33.1063 -64.0303 -35.2509 -63.8614C-36.3229 -63.7769 -37.13 -63.6957 -37.6674 -63.6352C-37.9357 -63.605 -38.1373 -63.5802 -38.2707 -63.563C-38.3373 -63.5544 -38.3881 -63.5476 -38.4208 -63.5431L-38.4652 -63.5366C-38.4669 -63.5381 -38.4717 -63.5671 -38.5461 -64.0775C-38.6203 -64.5862 -38.6233 -64.617 -38.6212 -64.6192L-38.569 -64.6268C-38.5334 -64.6317 -38.4805 -64.6389 -38.4112 -64.6478ZM-31.0143 -74.5723C-30.875 -74.5903 -30.6678 -74.6162 -30.3935 -74.6471C-29.8442 -74.7089 -29.0245 -74.7913 -27.9401 -74.8767C-25.7709 -75.0475 -22.5394 -75.2287 -18.2803 -75.2692C-9.76174 -75.3502 2.86958 -74.8707 19.3427 -72.6339C52.2896 -68.1602 100.602 -56.6554 162.121 -28.5431C285.159 27.6819 461.009 150.332 672.417 416.008C883.744 681.583 1059.46 804.109 1182.31 860.247C1243.73 888.315 1291.94 899.789 1324.78 904.248C1341.2 906.477 1353.78 906.953 1362.25 906.873C1366.48 906.832 1369.69 906.653 1371.83 906.484C1372.9 906.4 1373.71 906.318 1374.25 906.257C1374.52 906.227 1374.72 906.202 1374.85 906.185C1374.92 906.176 1374.97 906.17 1375 906.165L1375.04 906.158C1375.05 906.159 1375.05 906.175 1375.13 906.7C1375.2 907.241 1375.2 907.242 1375.2 907.242C1375.2 907.242 1375.19 907.243 1375.19 907.244C1375.18 907.245 1375.17 907.246 1375.15 907.249C1375.11 907.254 1375.06 907.261 1374.99 907.27C1374.85 907.288 1374.64 907.314 1374.37 907.344C1373.82 907.406 1373 907.49 1371.92 907.575C1369.75 907.746 1366.52 907.926 1362.26 907.966C1353.74 908.047 1341.11 907.569 1324.63 905.332C1291.69 900.858 1243.37 889.354 1181.86 861.242C1058.82 805.016 882.968 682.365 671.56 416.689C460.233 151.115 284.513 28.5893 161.667 -27.5483C100.244 -55.6169 52.0337 -67.0905 19.1949 -71.5495C2.77544 -73.779 -9.80272 -74.2558 -18.2698 -74.1753C-22.5033 -74.135 -25.7094 -73.9548 -27.854 -73.7859C-28.926 -73.7014 -29.7331 -73.6202 -30.2705 -73.5597C-30.5388 -73.5295 -30.7404 -73.5047 -30.8738 -73.4875C-30.9404 -73.4789 -30.9912 -73.4721 -31.0238 -73.4676L-31.0683 -73.4611C-31.0702 -73.4648 -31.0772 -73.5084 -31.1492 -74.002C-31.2233 -74.5105 -31.2264 -74.5415 -31.2242 -74.5437L-31.172 -74.5513C-31.1365 -74.5562 -31.0836 -74.5634 -31.0143 -74.5723ZM-23.6152 -84.4962C-23.476 -84.5142 -23.2686 -84.5401 -22.9945 -84.5709C-22.4451 -84.6328 -21.6252 -84.7151 -20.541 -84.8005C-18.3718 -84.9713 -15.1402 -85.1525 -10.8813 -85.193C-2.3627 -85.274 10.2688 -84.7945 26.7417 -82.5577C59.6886 -78.084 108.001 -66.5792 169.52 -38.467C292.558 17.7582 468.408 140.408 679.816 406.084C891.143 671.659 1066.86 794.185 1189.71 850.323C1251.13 878.391 1299.34 889.865 1332.18 894.324C1348.6 896.554 1361.18 897.029 1369.65 896.949C1373.88 896.908 1377.09 896.729 1379.23 896.56C1380.3 896.476 1381.11 896.394 1381.65 896.333C1381.91 896.303 1382.12 896.278 1382.25 896.261C1382.32 896.252 1382.37 896.246 1382.4 896.241L1382.44 896.235C1382.45 896.239 1382.45 896.286 1382.52 896.776C1382.6 897.296 1382.6 897.317 1382.6 897.318C1382.6 897.319 1382.59 897.319 1382.59 897.32C1382.58 897.321 1382.56 897.322 1382.55 897.325C1382.51 897.33 1382.46 897.337 1382.39 897.346C1382.25 897.364 1382.04 897.39 1381.77 897.421C1381.22 897.482 1380.4 897.566 1379.32 897.651C1377.15 897.822 1373.91 898.002 1369.66 898.043C1361.14 898.124 1348.51 897.645 1332.03 895.408C1299.09 890.935 1250.77 879.43 1189.25 851.318C1066.22 795.093 890.367 672.442 678.959 406.766C467.632 141.191 291.912 18.6656 169.066 -37.4721C107.643 -65.5407 59.4327 -77.0142 26.5939 -81.4733C10.1747 -83.7028 -2.40368 -84.1796 -10.8708 -84.0991C-15.1041 -84.0588 -18.3104 -83.8786 -20.455 -83.7097C-21.5268 -83.6253 -22.334 -83.544 -22.8715 -83.4835C-23.1396 -83.4534 -23.3413 -83.4286 -23.4748 -83.4113C-23.5412 -83.4027 -23.5921 -83.3959 -23.6248 -83.3914L-23.6693 -83.3849C-23.6709 -83.3864 -23.6758 -83.4158 -23.7502 -83.9258C-23.8244 -84.4346 -23.8274 -84.4653 -23.8252 -84.4675L-23.773 -84.4751C-23.7374 -84.48 -23.6844 -84.4872 -23.6152 -84.4962ZM-16.2183 -94.4207C-16.079 -94.4387 -15.8719 -94.4645 -15.5976 -94.4954C-15.0482 -94.5573 -14.2285 -94.6396 -13.1441 -94.725C-10.9749 -94.8958 -7.7435 -95.077 -3.48438 -95.1175C5.03426 -95.1985 17.6655 -94.719 34.1386 -92.4822C67.0856 -88.0085 115.398 -76.5038 176.917 -48.3915C299.955 7.83358 475.805 130.483 687.213 396.16C898.54 661.735 1074.26 784.261 1197.11 840.398C1258.53 868.467 1306.74 879.941 1339.58 884.4C1356 886.629 1368.58 887.105 1377.04 887.024C1381.28 886.984 1384.48 886.805 1386.63 886.636C1387.7 886.551 1388.51 886.469 1389.04 886.409C1389.31 886.378 1389.51 886.354 1389.65 886.336C1389.71 886.328 1389.76 886.321 1389.8 886.317L1389.84 886.31C1389.84 886.312 1389.85 886.344 1389.92 886.852C1390 887.383 1390 887.393 1390 887.394C1389.99 887.394 1389.99 887.395 1389.99 887.395C1389.98 887.397 1389.96 887.398 1389.94 887.4C1389.91 887.405 1389.86 887.412 1389.79 887.421C1389.65 887.439 1389.44 887.465 1389.17 887.496C1388.62 887.558 1387.8 887.641 1386.71 887.727C1384.54 887.897 1381.31 888.078 1377.05 888.118C1368.53 888.199 1355.9 887.721 1339.43 885.484C1306.48 881.01 1258.17 869.506 1196.65 841.393C1073.61 785.168 897.764 662.517 686.356 396.841C475.029 131.266 299.309 8.74101 176.463 -47.3966C115.039 -75.4653 66.8296 -86.9388 33.9908 -91.3978C17.5714 -93.6273 4.99324 -94.1041 -3.47384 -94.0236C-7.70734 -93.9833 -10.9134 -93.8031 -13.058 -93.6342C-14.13 -93.5498 -14.9371 -93.4685 -15.4745 -93.4081C-15.7428 -93.3778 -15.9444 -93.3531 -16.0778 -93.3358C-16.1445 -93.3272 -16.1952 -93.3204 -16.2279 -93.3159L-16.2724 -93.3094C-16.274 -93.3109 -16.2788 -93.3401 -16.3532 -93.8503C-16.4274 -94.3591 -16.4304 -94.3898 -16.4283 -94.392L-16.3761 -94.3996C-16.3405 -94.4045 -16.2876 -94.4117 -16.2183 -94.4207ZM-8.82042 -104.345C-8.68118 -104.363 -8.47397 -104.389 -8.19971 -104.42C-7.65033 -104.482 -6.8306 -104.564 -5.74622 -104.65C-3.57702 -104.82 -0.345575 -105.002 3.91351 -105.042C12.4321 -105.123 25.0634 -104.644 41.5365 -102.407C74.4834 -97.9332 122.796 -86.4284 184.314 -58.3161C307.353 -2.09111 483.203 120.559 694.611 386.235C905.938 651.81 1081.66 774.336 1204.5 830.474C1265.93 858.542 1314.14 870.016 1346.97 874.475C1363.39 876.704 1375.97 877.18 1384.44 877.1C1388.67 877.059 1391.88 876.88 1394.02 876.711C1395.1 876.627 1395.9 876.545 1396.44 876.484C1396.71 876.454 1396.91 876.429 1397.04 876.412C1397.11 876.403 1397.16 876.397 1397.19 876.392L1397.24 876.385C1397.24 876.386 1397.24 876.402 1397.32 876.927C1397.4 877.468 1397.4 877.469 1397.39 877.469C1397.39 877.469 1397.39 877.47 1397.38 877.471C1397.37 877.472 1397.36 877.473 1397.34 877.476C1397.31 877.481 1397.25 877.488 1397.18 877.497C1397.05 877.515 1396.84 877.541 1396.56 877.571C1396.01 877.633 1395.19 877.717 1394.11 877.802C1391.94 877.973 1388.71 878.153 1384.45 878.194C1375.93 878.275 1363.3 877.796 1346.83 875.559C1313.88 871.085 1265.57 859.581 1204.05 831.469C1081.01 775.243 905.161 652.593 693.754 386.916C482.426 121.342 306.707 -1.1837 183.861 -57.3212C122.437 -85.3899 74.2275 -96.8635 41.3887 -101.322C24.9693 -103.552 12.3911 -104.029 3.92406 -103.948C-0.309439 -103.908 -3.51558 -103.728 -5.66014 -103.559C-6.73215 -103.474 -7.53924 -103.393 -8.07663 -103.333C-8.34492 -103.303 -8.54655 -103.278 -8.67995 -103.26C-8.74654 -103.252 -8.79736 -103.245 -8.83001 -103.241L-8.87446 -103.234C-8.87622 -103.237 -8.88242 -103.275 -8.95533 -103.775C-9.02868 -104.278 -9.03239 -104.314 -9.0304 -104.317L-8.97822 -104.324C-8.94263 -104.329 -8.88971 -104.336 -8.82042 -104.345ZM-1.42252 -114.27C-1.28325 -114.288 -1.07596 -114.314 -0.801814 -114.345C-0.252405 -114.407 0.567383 -114.489 1.65168 -114.574C3.82091 -114.745 7.05241 -114.926 11.3114 -114.967C19.83 -115.048 32.4614 -114.568 48.9344 -112.332C81.8813 -107.858 130.194 -96.3531 191.712 -68.2408C314.751 -12.0157 490.601 110.634 702.008 376.31C913.336 641.885 1089.06 764.411 1211.9 820.549C1273.32 848.617 1321.53 860.091 1354.37 864.55C1370.79 866.78 1383.37 867.255 1391.84 867.175C1396.07 867.135 1399.28 866.955 1401.42 866.787C1402.49 866.702 1403.3 866.62 1403.84 866.559C1404.11 866.529 1404.31 866.504 1404.44 866.487C1404.51 866.479 1404.56 866.472 1404.59 866.467L1404.64 866.461C1404.64 866.462 1404.64 866.492 1404.72 867.003C1404.79 867.518 1404.79 867.543 1404.79 867.544C1404.79 867.545 1404.79 867.545 1404.78 867.546C1404.77 867.547 1404.76 867.549 1404.74 867.551C1404.7 867.556 1404.65 867.563 1404.58 867.572C1404.44 867.59 1404.24 867.616 1403.96 867.647C1403.41 867.709 1402.59 867.792 1401.51 867.877C1399.34 868.048 1396.11 868.228 1391.85 868.269C1383.33 868.35 1370.7 867.871 1354.23 865.635C1321.28 861.161 1272.97 849.656 1211.45 821.544C1088.41 765.319 912.559 642.668 701.152 376.992C489.824 111.417 314.105 -11.1083 191.258 -67.2459C129.835 -95.3145 81.6254 -106.788 48.7866 -111.247C32.3673 -113.477 19.789 -113.953 11.322 -113.873C7.08858 -113.833 3.88235 -113.652 1.73776 -113.484C0.665871 -113.399 -0.141309 -113.318 -0.678733 -113.257C-0.946898 -113.227 -1.14862 -113.202 -1.28205 -113.185C-1.34852 -113.177 -1.3994 -113.17 -1.43211 -113.165L-1.47656 -113.159C-1.4782 -113.16 -1.48299 -113.189 -1.55743 -113.7C-1.63163 -114.208 -1.63465 -114.239 -1.6325 -114.241L-1.58032 -114.249C-1.5447 -114.254 -1.49169 -114.261 -1.42252 -114.27Z" fill="url(#paint0_radial_102_823)"/>
<defs>
<radialGradient id="paint0_radial_102_823" cx="0" cy="0" r="1" gradientTransform="matrix(1186.54 733.04 -768.926 1244.63 -56.8905 223.741)" gradientUnits="userSpaceOnUse">
<stop stop-color="#000099"/>
<stop offset="0.488621" stop-color="#647CF2" stop-opacity="0.34"/>
<stop offset="1" stop-color="#648CF2" stop-opacity="0.16"/>
</radialGradient>
</defs>
</svg>
