<svg width="779" height="907" viewBox="0 0 779 907" fill="none" xmlns="http://www.w3.org/2000/svg">
<path d="M1635.03 184.989C1634.89 184.988 1634.68 184.988 1634.4 184.991C1633.85 184.997 1633.02 185.015 1631.94 185.063C1629.76 185.158 1626.54 185.373 1622.3 185.853C1613.84 186.814 1601.36 188.833 1585.28 193.066C1553.13 201.531 1506.59 218.853 1448.96 254.271C1333.72 325.107 1174.17 468.323 996.804 757.839C819.508 1047.24 660.075 1190.32 545.008 1261.05C487.474 1296.41 441.028 1313.69 408.98 1322.13C392.956 1326.34 380.53 1328.35 372.116 1329.31C367.909 1329.79 364.705 1330 362.556 1330.09C361.482 1330.14 360.671 1330.16 360.13 1330.16C359.86 1330.17 359.657 1330.17 359.523 1330.17C359.456 1330.17 359.405 1330.16 359.372 1330.16L359.326 1330.16C359.325 1330.17 359.324 1330.2 359.312 1330.71C359.3 1331.25 359.302 1331.26 359.305 1331.26C359.307 1331.26 359.311 1331.26 359.316 1331.26C359.325 1331.26 359.339 1331.26 359.357 1331.26C359.392 1331.26 359.446 1331.26 359.516 1331.26C359.656 1331.26 359.865 1331.26 360.141 1331.26C360.694 1331.25 361.517 1331.23 362.604 1331.19C364.778 1331.09 368.007 1330.88 372.239 1330.4C380.704 1329.44 393.182 1327.42 409.259 1323.18C441.412 1314.72 487.958 1297.4 545.581 1261.98C660.828 1191.14 820.374 1047.93 997.738 758.41C1175.03 469.005 1334.47 325.929 1449.53 255.203C1507.07 219.84 1553.51 202.562 1585.56 194.124C1601.59 189.905 1614.01 187.895 1622.43 186.94C1626.63 186.463 1629.84 186.25 1631.99 186.156C1633.06 186.109 1633.87 186.091 1634.41 186.085C1634.68 186.082 1634.89 186.082 1635.02 186.083C1635.09 186.083 1635.14 186.084 1635.17 186.085L1635.22 186.086C1635.22 186.084 1635.22 186.054 1635.23 185.539C1635.24 185.031 1635.24 184.995 1635.24 184.992L1635.19 184.991C1635.15 184.99 1635.1 184.99 1635.03 184.989ZM1626.47 176.043C1626.33 176.042 1626.12 176.042 1625.85 176.044C1625.3 176.05 1624.47 176.069 1623.39 176.116C1621.21 176.212 1617.98 176.427 1613.75 176.907C1605.29 177.867 1592.81 179.887 1576.73 184.119C1544.58 192.585 1498.03 209.906 1440.41 245.324C1325.16 316.161 1165.62 459.377 988.251 748.892C810.955 1038.3 651.522 1181.37 536.455 1252.1C478.921 1287.46 432.475 1304.74 400.427 1313.18C384.403 1317.4 371.977 1319.41 363.563 1320.36C359.356 1320.84 356.152 1321.05 354.003 1321.15C352.929 1321.19 352.118 1321.21 351.577 1321.22C351.307 1321.22 351.104 1321.22 350.97 1321.22C350.903 1321.22 350.852 1321.22 350.819 1321.22L350.773 1321.22C350.772 1321.22 350.771 1321.23 350.759 1321.76C350.747 1322.31 350.749 1322.31 350.752 1322.31C350.754 1322.31 350.758 1322.31 350.762 1322.31C350.772 1322.31 350.786 1322.31 350.803 1322.31C350.839 1322.31 350.893 1322.31 350.963 1322.31C351.103 1322.31 351.312 1322.31 351.588 1322.31C352.141 1322.31 352.964 1322.29 354.051 1322.24C356.225 1322.15 359.454 1321.93 363.686 1321.45C372.151 1320.49 384.629 1318.47 400.705 1314.24C432.859 1305.77 479.404 1288.45 537.028 1253.03C652.275 1182.2 811.821 1038.98 989.185 749.464C1166.48 460.059 1325.91 316.982 1440.98 246.256C1498.52 210.893 1544.96 193.615 1577.01 185.178C1593.03 180.959 1605.46 178.949 1613.87 177.994C1618.08 177.517 1621.28 177.304 1623.43 177.21C1624.51 177.162 1625.32 177.144 1625.86 177.139C1626.13 177.136 1626.33 177.136 1626.47 177.137C1626.53 177.137 1626.58 177.138 1626.62 177.138L1626.66 177.139C1626.66 177.137 1626.67 177.1 1626.68 176.592C1626.69 176.079 1626.69 176.048 1626.69 176.046L1626.63 176.044C1626.6 176.044 1626.54 176.043 1626.47 176.043ZM1617.92 167.096C1617.78 167.096 1617.57 167.095 1617.29 167.098C1616.74 167.104 1615.92 167.122 1614.83 167.17C1612.66 167.265 1609.43 167.48 1605.19 167.961C1596.73 168.921 1584.25 170.94 1568.18 175.173C1536.02 183.638 1489.48 200.96 1431.85 236.378C1316.61 307.214 1157.06 450.43 979.696 739.946C802.4 1029.35 642.967 1172.43 527.9 1243.15C470.366 1278.52 423.92 1295.8 391.872 1304.23C375.848 1308.45 363.422 1310.46 355.008 1311.42C350.802 1311.89 347.597 1312.11 345.448 1312.2C344.374 1312.25 343.563 1312.27 343.022 1312.27C342.752 1312.27 342.549 1312.27 342.414 1312.27C342.348 1312.27 342.297 1312.27 342.264 1312.27L342.218 1312.27C342.217 1312.27 342.216 1312.29 342.204 1312.82C342.192 1313.36 342.194 1313.37 342.197 1313.37C342.199 1313.37 342.203 1313.37 342.207 1313.37C342.217 1313.37 342.231 1313.37 342.248 1313.37C342.284 1313.37 342.338 1313.37 342.408 1313.37C342.548 1313.37 342.757 1313.37 343.033 1313.37C343.586 1313.36 344.409 1313.34 345.496 1313.29C347.67 1313.2 350.899 1312.98 355.131 1312.5C363.596 1311.54 376.074 1309.52 392.15 1305.29C424.304 1296.83 470.849 1279.5 528.473 1244.09C643.72 1173.25 803.266 1030.03 980.63 740.518C1157.93 451.113 1317.36 308.036 1432.43 237.31C1489.96 201.947 1536.41 184.669 1568.45 176.231C1584.48 172.012 1596.9 170.002 1605.32 169.048C1609.52 168.57 1612.73 168.357 1614.88 168.263C1615.95 168.216 1616.76 168.198 1617.3 168.192C1617.57 168.19 1617.78 168.189 1617.91 168.19C1617.98 168.191 1618.03 168.191 1618.06 168.192L1618.11 168.193C1618.11 168.189 1618.11 168.143 1618.12 167.646C1618.13 167.136 1618.13 167.102 1618.13 167.099L1618.08 167.098C1618.04 167.098 1617.99 167.097 1617.92 167.096ZM1609.36 158.151C1609.22 158.15 1609.01 158.15 1608.74 158.153C1608.18 158.158 1607.36 158.177 1606.27 158.224C1604.1 158.32 1600.87 158.535 1596.64 159.015C1588.17 159.976 1575.7 161.995 1559.62 166.227C1527.47 174.693 1480.92 192.014 1423.3 227.432C1308.05 298.269 1148.5 441.485 971.14 731C793.844 1020.41 634.411 1163.48 519.344 1234.21C461.81 1269.57 415.364 1286.85 383.316 1295.29C367.292 1299.51 354.866 1301.52 346.452 1302.47C342.246 1302.95 339.041 1303.16 336.892 1303.26C335.818 1303.3 335.007 1303.32 334.466 1303.33C334.196 1303.33 333.993 1303.33 333.858 1303.33C333.792 1303.33 333.741 1303.33 333.708 1303.33L333.662 1303.33C333.661 1303.33 333.659 1303.38 333.648 1303.87C333.636 1304.4 333.638 1304.42 333.641 1304.42C333.643 1304.42 333.647 1304.42 333.651 1304.42C333.661 1304.42 333.675 1304.42 333.692 1304.42C333.728 1304.42 333.782 1304.42 333.852 1304.42C333.992 1304.42 334.201 1304.42 334.477 1304.42C335.03 1304.41 335.853 1304.4 336.94 1304.35C339.114 1304.25 342.343 1304.04 346.575 1303.56C355.04 1302.6 367.518 1300.58 383.594 1296.35C415.748 1287.88 462.293 1270.56 519.917 1235.14C635.163 1164.3 794.71 1021.09 972.074 731.572C1149.37 442.168 1308.8 299.091 1423.87 228.364C1481.4 193.001 1527.85 175.724 1559.9 167.286C1575.92 163.067 1588.35 161.057 1596.76 160.102C1600.97 159.625 1604.17 159.412 1606.32 159.318C1607.4 159.27 1608.21 159.252 1608.75 159.247C1609.02 159.244 1609.22 159.244 1609.36 159.245C1609.42 159.245 1609.47 159.246 1609.51 159.246L1609.55 159.247C1609.55 159.246 1609.55 159.216 1609.57 158.701C1609.58 158.186 1609.58 158.156 1609.57 158.154L1609.52 158.153C1609.49 158.152 1609.43 158.151 1609.36 158.151ZM1600.81 149.205C1600.67 149.204 1600.46 149.203 1600.18 149.206C1599.63 149.212 1598.81 149.23 1597.72 149.278C1595.55 149.374 1592.32 149.589 1588.08 150.069C1579.62 151.029 1567.14 153.048 1551.06 157.281C1518.91 165.747 1472.37 183.068 1414.74 218.486C1299.5 289.322 1139.95 432.538 962.585 722.054C785.289 1011.46 625.856 1154.54 510.789 1225.26C453.255 1260.63 406.809 1277.9 374.761 1286.34C358.737 1290.56 346.311 1292.57 337.897 1293.52C333.69 1294 330.486 1294.21 328.337 1294.31C327.263 1294.36 326.452 1294.37 325.911 1294.38C325.641 1294.38 325.438 1294.38 325.303 1294.38C325.236 1294.38 325.186 1294.38 325.153 1294.38L325.107 1294.38C325.106 1294.38 325.104 1294.42 325.093 1294.93C325.081 1295.47 325.083 1295.47 325.086 1295.47C325.088 1295.47 325.092 1295.47 325.096 1295.47C325.106 1295.47 325.12 1295.47 325.137 1295.47C325.173 1295.47 325.227 1295.47 325.297 1295.47C325.437 1295.48 325.646 1295.48 325.922 1295.47C326.474 1295.47 327.298 1295.45 328.385 1295.4C330.559 1295.31 333.788 1295.09 338.02 1294.61C346.485 1293.65 358.963 1291.63 375.039 1287.4C407.193 1278.93 453.738 1261.61 511.362 1226.19C626.608 1155.36 786.155 1012.14 963.519 722.626C1140.82 433.221 1300.25 290.144 1415.32 219.418C1472.85 184.055 1519.3 166.777 1551.34 158.339C1567.37 154.12 1579.79 152.11 1588.21 151.156C1592.41 150.678 1595.62 150.466 1597.77 150.371C1598.84 150.324 1599.65 150.306 1600.19 150.3C1600.46 150.298 1600.67 150.298 1600.8 150.298C1600.87 150.299 1600.92 150.299 1600.95 150.3L1601 150.301C1601 150.299 1601 150.269 1601.01 149.754C1601.02 149.245 1601.02 149.21 1601.02 149.207L1600.97 149.206C1600.93 149.206 1600.88 149.205 1600.81 149.205ZM1592.25 140.258C1592.11 140.257 1591.9 140.257 1591.63 140.26C1591.08 140.265 1590.25 140.284 1589.16 140.332C1586.99 140.427 1583.76 140.642 1579.53 141.122C1571.06 142.083 1558.59 144.102 1542.51 148.335C1510.36 156.8 1463.81 174.121 1406.19 209.539C1290.94 280.376 1131.39 423.592 954.031 713.107C776.734 1002.51 617.302 1145.59 502.234 1216.32C444.701 1251.68 398.255 1268.96 366.207 1277.39C350.183 1281.61 337.756 1283.62 329.343 1284.58C325.136 1285.05 321.932 1285.27 319.783 1285.36C318.709 1285.41 317.898 1285.43 317.357 1285.43C317.087 1285.44 316.884 1285.44 316.749 1285.43C316.682 1285.43 316.632 1285.43 316.599 1285.43L316.553 1285.43C316.552 1285.43 316.551 1285.45 316.539 1285.98C316.527 1286.53 316.529 1286.53 316.531 1286.53C316.534 1286.53 316.538 1286.53 316.542 1286.53C316.552 1286.53 316.566 1286.53 316.583 1286.53C316.619 1286.53 316.672 1286.53 316.742 1286.53C316.883 1286.53 317.092 1286.53 317.368 1286.53C317.92 1286.52 318.744 1286.5 319.831 1286.46C322.005 1286.36 325.234 1286.14 329.466 1285.66C337.931 1284.7 350.409 1282.69 366.485 1278.45C398.639 1269.99 445.184 1252.67 502.808 1217.25C618.054 1146.41 777.601 1003.19 954.965 713.679C1132.26 424.274 1291.69 281.198 1406.76 210.471C1464.29 175.108 1510.74 157.831 1542.79 149.393C1558.81 145.174 1571.24 143.164 1579.65 142.209C1583.86 141.732 1587.06 141.519 1589.21 141.425C1590.29 141.378 1591.1 141.36 1591.64 141.354C1591.91 141.351 1592.11 141.351 1592.25 141.352C1592.31 141.352 1592.36 141.353 1592.4 141.353L1592.44 141.354C1592.44 141.353 1592.45 141.323 1592.46 140.808C1592.47 140.302 1592.47 140.264 1592.47 140.261L1592.41 140.26C1592.38 140.259 1592.32 140.259 1592.25 140.258ZM1583.7 131.312C1583.56 131.311 1583.35 131.31 1583.07 131.313C1582.52 131.319 1581.7 131.338 1580.61 131.385C1578.44 131.481 1575.21 131.696 1570.97 132.176C1562.51 133.136 1550.03 135.155 1533.96 139.388C1501.8 147.854 1455.26 165.175 1397.63 200.593C1282.39 271.43 1122.84 414.646 945.476 704.161C768.18 993.566 608.747 1136.64 493.679 1207.37C436.146 1242.73 389.7 1260.01 357.652 1268.45C341.628 1272.67 329.201 1274.68 320.788 1275.63C316.581 1276.11 313.377 1276.32 311.228 1276.42C310.154 1276.46 309.343 1276.48 308.802 1276.49C308.532 1276.49 308.329 1276.49 308.194 1276.49C308.127 1276.49 308.077 1276.49 308.044 1276.49L307.998 1276.49C307.996 1276.49 307.996 1276.5 307.984 1277.03C307.972 1277.58 307.974 1277.58 307.976 1277.58C307.979 1277.58 307.983 1277.58 307.987 1277.58C307.997 1277.58 308.011 1277.58 308.028 1277.58C308.064 1277.58 308.118 1277.58 308.187 1277.58C308.328 1277.58 308.537 1277.58 308.813 1277.58C309.365 1277.57 310.189 1277.56 311.276 1277.51C313.45 1277.41 316.679 1277.2 320.911 1276.72C329.376 1275.76 341.854 1273.74 357.93 1269.51C390.084 1261.04 436.629 1243.72 494.252 1208.3C609.499 1137.47 769.046 994.248 946.41 704.733C1123.71 415.328 1283.14 272.251 1398.21 201.525C1455.74 166.162 1502.19 148.884 1534.23 140.446C1550.26 136.228 1562.68 134.217 1571.1 133.263C1575.3 132.786 1578.51 132.573 1580.66 132.478C1581.73 132.431 1582.54 132.413 1583.08 132.408C1583.35 132.405 1583.56 132.405 1583.69 132.406C1583.76 132.406 1583.81 132.407 1583.84 132.407L1583.89 132.408C1583.89 132.405 1583.89 132.363 1583.9 131.861C1583.91 131.355 1583.91 131.317 1583.91 131.314L1583.86 131.313C1583.82 131.313 1583.77 131.312 1583.7 131.312ZM1575.14 122.365C1575 122.364 1574.79 122.364 1574.52 122.367C1573.97 122.373 1573.14 122.391 1572.05 122.439C1569.88 122.534 1566.65 122.749 1562.42 123.229C1553.95 124.19 1541.48 126.209 1525.4 130.442C1493.25 138.907 1446.7 156.229 1389.08 191.647C1273.83 262.483 1114.28 405.699 936.921 695.215C759.624 984.62 600.192 1127.7 485.124 1198.42C427.591 1233.79 381.145 1251.06 349.097 1259.5C333.073 1263.72 320.646 1265.73 312.233 1266.68C308.026 1267.16 304.822 1267.38 302.673 1267.47C301.599 1267.52 300.787 1267.53 300.247 1267.54C299.977 1267.54 299.774 1267.54 299.639 1267.54C299.572 1267.54 299.522 1267.54 299.489 1267.54L299.443 1267.54C299.441 1267.54 299.44 1267.57 299.429 1268.09C299.417 1268.59 299.419 1268.63 299.421 1268.63C299.424 1268.63 299.428 1268.63 299.432 1268.63C299.441 1268.63 299.456 1268.63 299.473 1268.63C299.509 1268.63 299.562 1268.64 299.632 1268.64C299.773 1268.64 299.982 1268.64 300.258 1268.63C300.81 1268.63 301.634 1268.61 302.721 1268.56C304.894 1268.47 308.124 1268.25 312.356 1267.77C320.821 1266.81 333.299 1264.79 349.375 1260.56C381.529 1252.09 428.074 1234.77 485.697 1199.36C600.944 1128.52 760.491 985.302 937.855 695.786C1115.15 406.382 1274.58 263.305 1389.65 192.579C1447.18 157.216 1493.63 139.938 1525.68 131.5C1541.7 127.281 1554.13 125.271 1562.54 124.316C1566.75 123.839 1569.95 123.626 1572.1 123.532C1573.18 123.485 1573.99 123.467 1574.53 123.461C1574.8 123.458 1575 123.458 1575.14 123.459C1575.2 123.46 1575.25 123.46 1575.29 123.461L1575.33 123.462C1575.33 123.459 1575.34 123.42 1575.35 122.915C1575.36 122.401 1575.36 122.37 1575.35 122.368L1575.3 122.367C1575.27 122.366 1575.21 122.366 1575.14 122.365ZM1566.59 113.42C1566.45 113.419 1566.24 113.419 1565.96 113.421C1565.41 113.427 1564.59 113.446 1563.5 113.493C1561.33 113.589 1558.1 113.804 1553.87 114.284C1545.4 115.244 1532.92 117.264 1516.85 121.496C1484.69 129.962 1438.15 147.283 1380.52 182.701C1265.28 253.538 1105.73 396.754 928.367 686.269C751.07 975.674 591.638 1118.75 476.57 1189.48C419.037 1224.84 372.591 1242.12 340.543 1250.56C324.519 1254.78 312.092 1256.78 303.679 1257.74C299.472 1258.22 296.268 1258.43 294.119 1258.52C293.044 1258.57 292.233 1258.59 291.693 1258.59C291.423 1258.6 291.22 1258.6 291.085 1258.6C291.018 1258.6 290.968 1258.6 290.935 1258.6L290.889 1258.59C290.887 1258.6 290.886 1258.64 290.875 1259.14C290.863 1259.68 290.865 1259.69 290.867 1259.69C290.87 1259.69 290.874 1259.69 290.878 1259.69C290.887 1259.69 290.901 1259.69 290.919 1259.69C290.955 1259.69 291.008 1259.69 291.078 1259.69C291.219 1259.69 291.427 1259.69 291.703 1259.69C292.256 1259.68 293.08 1259.67 294.167 1259.62C296.34 1259.52 299.57 1259.31 303.802 1258.83C312.267 1257.87 324.745 1255.85 340.821 1251.61C372.975 1243.15 419.52 1225.83 477.143 1190.41C592.39 1119.57 751.937 976.356 929.3 686.841C1106.6 397.436 1266.03 254.36 1381.1 183.633C1438.63 148.27 1485.08 130.992 1517.13 122.555C1533.15 118.336 1545.58 116.326 1553.99 115.371C1558.2 114.894 1561.4 114.681 1563.55 114.587C1564.62 114.539 1565.43 114.521 1565.97 114.516C1566.24 114.513 1566.45 114.513 1566.58 114.514C1566.65 114.514 1566.7 114.515 1566.73 114.515L1566.78 114.516C1566.78 114.514 1566.78 114.485 1566.79 113.969C1566.8 113.464 1566.8 113.425 1566.8 113.423L1566.75 113.421C1566.71 113.421 1566.66 113.42 1566.59 113.42ZM1558.03 104.473C1557.89 104.473 1557.68 104.472 1557.41 104.475C1556.85 104.481 1556.03 104.499 1554.94 104.547C1552.77 104.642 1549.54 104.857 1545.31 105.338C1536.84 106.298 1524.37 108.317 1508.29 112.55C1476.14 121.015 1429.59 138.337 1371.97 173.755C1256.72 244.591 1097.17 387.807 919.811 677.323C742.514 966.728 583.082 1109.81 468.014 1180.53C410.481 1215.89 364.035 1233.17 331.987 1241.61C315.963 1245.83 303.536 1247.84 295.123 1248.79C290.916 1249.27 287.712 1249.48 285.563 1249.58C284.488 1249.63 283.677 1249.64 283.137 1249.65C282.867 1249.65 282.664 1249.65 282.529 1249.65C282.462 1249.65 282.412 1249.65 282.379 1249.65L282.333 1249.65C282.331 1249.65 282.33 1249.66 282.319 1250.2C282.306 1250.74 282.309 1250.74 282.311 1250.74C282.314 1250.74 282.318 1250.74 282.322 1250.74C282.331 1250.74 282.345 1250.74 282.363 1250.74C282.399 1250.74 282.452 1250.74 282.522 1250.74C282.663 1250.74 282.871 1250.75 283.147 1250.74C283.7 1250.74 284.524 1250.72 285.611 1250.67C287.784 1250.58 291.014 1250.36 295.246 1249.88C303.711 1248.92 316.189 1246.9 332.265 1242.67C364.419 1234.2 410.964 1216.88 468.587 1181.46C583.834 1110.63 743.381 967.41 920.744 677.895C1098.04 388.49 1257.47 245.413 1372.54 174.687C1430.07 139.324 1476.52 122.046 1508.57 113.608C1524.59 109.389 1537.02 107.379 1545.43 106.425C1549.64 105.947 1552.84 105.734 1554.99 105.64C1556.07 105.593 1556.88 105.575 1557.42 105.569C1557.69 105.566 1557.89 105.566 1558.03 105.567C1558.09 105.568 1558.14 105.568 1558.18 105.569L1558.22 105.57C1558.22 105.568 1558.23 105.538 1558.24 105.023C1558.25 104.517 1558.25 104.479 1558.24 104.476L1558.19 104.475C1558.16 104.474 1558.1 104.474 1558.03 104.473ZM1549.48 95.527C1549.34 95.5261 1549.13 95.5258 1548.85 95.5286C1548.3 95.5344 1547.48 95.5528 1546.39 95.6005C1544.22 95.696 1540.99 95.911 1536.76 96.3912C1528.29 97.3515 1515.81 99.3708 1499.74 103.603C1467.58 112.069 1421.04 129.39 1363.41 164.808C1248.17 235.645 1088.62 378.861 911.257 668.376C733.96 957.781 574.528 1100.86 459.46 1171.59C401.927 1206.95 355.481 1224.23 323.433 1232.66C307.409 1236.88 294.982 1238.89 286.569 1239.85C282.362 1240.32 279.158 1240.54 277.009 1240.63C275.934 1240.68 275.123 1240.7 274.583 1240.7C274.313 1240.7 274.11 1240.7 273.975 1240.7C273.908 1240.7 273.858 1240.7 273.825 1240.7L273.779 1240.7C273.777 1240.7 273.776 1240.72 273.764 1241.25C273.752 1241.8 273.754 1241.8 273.757 1241.8C273.76 1241.8 273.764 1241.8 273.768 1241.8C273.777 1241.8 273.791 1241.8 273.809 1241.8C273.845 1241.8 273.898 1241.8 273.968 1241.8C274.108 1241.8 274.317 1241.8 274.593 1241.8C275.146 1241.79 275.97 1241.77 277.056 1241.72C279.23 1241.63 282.46 1241.41 286.692 1240.93C295.157 1239.97 307.635 1237.95 323.711 1233.72C355.864 1225.26 402.41 1207.94 460.033 1172.52C575.28 1101.68 734.827 958.463 912.19 668.948C1089.49 379.543 1248.92 236.467 1363.99 165.74C1421.52 130.377 1467.97 113.099 1500.02 104.662C1516.04 100.443 1528.46 98.4327 1536.88 97.4782C1541.09 97.0009 1544.29 96.7881 1546.44 96.6937C1547.51 96.6465 1548.32 96.6285 1548.86 96.6229C1549.13 96.6201 1549.34 96.62 1549.47 96.6208C1549.54 96.6212 1549.59 96.6218 1549.62 96.6223L1549.67 96.6233C1549.67 96.6199 1549.67 96.5782 1549.68 96.0766C1549.69 95.5695 1549.69 95.5325 1549.69 95.5298L1549.64 95.5286C1549.6 95.5281 1549.55 95.5274 1549.48 95.527ZM1540.92 86.5805C1540.78 86.5797 1540.57 86.5793 1540.3 86.5822C1539.75 86.5879 1538.92 86.6064 1537.84 86.6541C1535.66 86.7496 1532.43 86.9646 1528.2 87.4447C1519.74 88.4052 1507.26 90.4244 1491.18 94.657C1459.03 103.123 1412.48 120.444 1354.86 155.862C1239.61 226.698 1080.07 369.915 902.702 659.43C725.405 948.835 565.973 1091.91 450.905 1162.64C393.372 1198 346.926 1215.28 314.878 1223.72C298.854 1227.94 286.427 1229.95 278.014 1230.9C273.807 1231.38 270.603 1231.59 268.454 1231.69C267.379 1231.73 266.568 1231.75 266.028 1231.76C265.758 1231.76 265.554 1231.76 265.42 1231.76C265.353 1231.76 265.302 1231.76 265.27 1231.76L265.224 1231.75C265.222 1231.76 265.221 1231.79 265.209 1232.3C265.198 1232.82 265.2 1232.85 265.202 1232.85C265.204 1232.85 265.209 1232.85 265.213 1232.85C265.222 1232.85 265.236 1232.85 265.254 1232.85C265.29 1232.85 265.343 1232.85 265.413 1232.85C265.553 1232.85 265.762 1232.85 266.038 1232.85C266.591 1232.84 267.415 1232.83 268.501 1232.78C270.675 1232.68 273.905 1232.47 278.137 1231.99C286.601 1231.03 299.08 1229.01 315.156 1224.78C347.309 1216.31 393.855 1198.99 451.478 1163.57C566.725 1092.73 726.271 949.517 903.635 660.002C1080.93 370.597 1240.36 227.52 1355.43 156.794C1412.97 121.431 1459.41 104.153 1491.46 95.7153C1507.48 91.4964 1519.91 89.4863 1528.32 88.5317C1532.53 88.0545 1535.73 87.8416 1537.88 87.7472C1538.96 87.7001 1539.77 87.6821 1540.31 87.6765C1540.58 87.6737 1540.78 87.6736 1540.92 87.6744C1540.98 87.6748 1541.04 87.6754 1541.07 87.6758L1541.11 87.6768C1541.11 87.6752 1541.12 87.6458 1541.13 87.1302C1541.14 86.6162 1541.14 86.5852 1541.14 86.5833L1541.08 86.5821C1541.05 86.5816 1540.99 86.581 1540.92 86.5805ZM1532.37 77.6351C1532.23 77.6342 1532.02 77.6339 1531.74 77.6367C1531.19 77.6425 1530.37 77.6609 1529.28 77.7086C1527.11 77.8041 1523.88 78.0191 1519.64 78.4993C1511.18 79.4596 1498.7 81.4788 1482.62 85.7115C1450.47 94.1772 1403.93 111.498 1346.3 146.916C1231.06 217.753 1071.51 360.969 894.146 650.484C716.849 939.89 557.416 1082.97 442.349 1153.69C384.816 1189.06 338.369 1206.33 306.322 1214.77C290.297 1218.99 277.871 1221 269.457 1221.95C265.251 1222.43 262.047 1222.65 259.897 1222.74C258.823 1222.79 258.012 1222.8 257.471 1222.81C257.201 1222.81 256.998 1222.81 256.864 1222.81C256.797 1222.81 256.746 1222.81 256.713 1222.81L256.668 1222.81C256.666 1222.81 256.664 1222.86 256.653 1223.36C256.641 1223.9 256.643 1223.9 256.646 1223.9C256.648 1223.9 256.652 1223.9 256.657 1223.9C256.666 1223.9 256.68 1223.9 256.698 1223.9C256.734 1223.9 256.787 1223.91 256.857 1223.91C256.997 1223.91 257.206 1223.91 257.482 1223.9C258.035 1223.9 258.859 1223.88 259.945 1223.83C262.119 1223.74 265.349 1223.52 269.581 1223.04C278.045 1222.08 290.523 1220.06 306.6 1215.83C338.753 1207.36 385.299 1190.04 442.922 1154.63C558.169 1083.79 717.715 940.571 895.079 651.056C1072.38 361.651 1231.81 218.575 1346.88 147.848C1404.41 112.485 1450.86 95.2076 1482.9 86.7698C1498.93 82.5509 1511.35 80.5408 1519.77 79.5863C1523.97 79.109 1527.18 78.8962 1529.33 78.8018C1530.4 78.7546 1531.21 78.7366 1531.75 78.731C1532.02 78.7282 1532.23 78.7281 1532.36 78.7289C1532.43 78.7293 1532.48 78.7299 1532.51 78.7304L1532.56 78.7314C1532.56 78.7297 1532.56 78.6998 1532.57 78.1847C1532.58 77.6863 1532.58 77.6418 1532.58 77.6379L1532.53 77.6367C1532.49 77.6362 1532.44 77.6355 1532.37 77.6351ZM1523.81 68.6887C1523.67 68.6878 1523.47 68.6875 1523.19 68.6903C1522.64 68.6961 1521.81 68.7145 1520.73 68.7622C1518.55 68.8577 1515.32 69.0727 1511.09 69.5529C1502.63 70.5133 1490.15 72.5324 1474.07 76.7652C1441.92 85.2308 1395.37 102.552 1337.75 137.97C1222.5 208.807 1062.96 352.023 885.592 641.538C708.296 930.943 548.863 1074.02 433.796 1144.75C376.263 1180.11 329.816 1197.39 297.768 1205.83C281.744 1210.04 269.318 1212.05 260.904 1213.01C256.698 1213.49 253.494 1213.7 251.344 1213.79C250.27 1213.84 249.459 1213.86 248.918 1213.86C248.648 1213.87 248.445 1213.87 248.311 1213.87C248.244 1213.86 248.193 1213.86 248.16 1213.86L248.114 1213.86C248.113 1213.86 248.112 1213.9 248.1 1214.41C248.088 1214.96 248.09 1214.96 248.093 1214.96C248.095 1214.96 248.099 1214.96 248.104 1214.96C248.113 1214.96 248.127 1214.96 248.145 1214.96C248.181 1214.96 248.234 1214.96 248.304 1214.96C248.444 1214.96 248.653 1214.96 248.929 1214.96C249.482 1214.95 250.305 1214.93 251.392 1214.89C253.566 1214.79 256.795 1214.58 261.028 1214.09C269.492 1213.13 281.97 1211.12 298.047 1206.88C330.2 1198.42 376.746 1181.1 434.369 1145.68C549.616 1074.84 709.162 931.625 886.526 642.11C1063.82 352.705 1223.26 209.628 1338.32 138.902C1395.86 103.539 1442.3 86.2612 1474.35 77.8234C1490.38 73.6045 1502.8 71.5945 1511.21 70.6399C1515.42 70.1626 1518.62 69.9498 1520.77 69.8554C1521.85 69.8082 1522.66 69.7902 1523.2 69.7846C1523.47 69.7818 1523.67 69.7817 1523.81 69.7826C1523.88 69.783 1523.93 69.7835 1523.96 69.784L1524 69.785C1524.01 69.7833 1524.01 69.7537 1524.02 69.2383C1524.03 68.7353 1524.03 68.6948 1524.03 68.6915L1523.97 68.6903C1523.94 68.6898 1523.88 68.6891 1523.81 68.6887ZM1515.26 59.7423C1515.12 59.7414 1514.91 59.741 1514.63 59.7439C1514.08 59.7496 1513.26 59.7681 1512.17 59.8158C1510 59.9113 1506.77 60.1263 1502.54 60.6065C1494.07 61.5668 1481.59 63.586 1465.52 67.8187C1433.36 76.2843 1386.82 93.6056 1329.2 129.024C1213.95 199.86 1054.4 343.076 877.037 632.592C699.741 921.997 540.308 1065.07 425.241 1135.8C367.708 1171.16 321.261 1188.44 289.213 1196.88C273.189 1201.1 260.763 1203.11 252.349 1204.06C248.143 1204.54 244.938 1204.75 242.789 1204.85C241.715 1204.89 240.904 1204.91 240.363 1204.92C240.093 1204.92 239.89 1204.92 239.756 1204.92C239.689 1204.92 239.638 1204.92 239.605 1204.92L239.559 1204.92C239.558 1204.92 239.557 1204.93 239.545 1205.46C239.533 1206.01 239.535 1206.01 239.538 1206.01C239.54 1206.01 239.544 1206.01 239.549 1206.01C239.558 1206.01 239.572 1206.01 239.59 1206.01C239.626 1206.01 239.679 1206.01 239.749 1206.01C239.889 1206.01 240.098 1206.01 240.374 1206.01C240.927 1206.01 241.751 1205.99 242.837 1205.94C245.011 1205.84 248.24 1205.63 252.472 1205.15C260.937 1204.19 273.415 1202.17 289.492 1197.94C321.645 1189.47 368.191 1172.15 425.814 1136.73C541.061 1065.9 700.607 922.679 877.971 633.163C1055.27 343.759 1214.7 200.682 1329.77 129.956C1387.3 94.5926 1433.75 77.3148 1465.8 68.877C1481.82 64.6581 1494.25 62.648 1502.66 61.6935C1506.87 61.2162 1510.07 61.0033 1512.22 60.909C1513.29 60.8618 1514.1 60.8438 1514.65 60.8382C1514.92 60.8354 1515.12 60.8353 1515.25 60.8361C1515.32 60.8365 1515.37 60.8371 1515.4 60.8376L1515.45 60.8386C1515.45 60.8358 1515.45 60.7986 1515.46 60.2919C1515.47 59.7873 1515.47 59.7481 1515.47 59.745L1515.42 59.7439C1515.38 59.7434 1515.33 59.7427 1515.26 59.7423ZM1506.7 50.7958C1506.56 50.795 1506.35 50.7946 1506.08 50.7975C1505.53 50.8032 1504.7 50.8216 1503.62 50.8694C1501.44 50.9648 1498.21 51.1799 1493.98 51.66C1485.52 52.6204 1473.04 54.6396 1456.96 58.8723C1424.81 67.3379 1378.26 84.6592 1320.64 120.077C1205.39 190.914 1045.85 334.13 868.481 623.645C691.185 913.05 531.752 1056.13 416.685 1126.85C359.151 1162.22 312.705 1179.49 280.657 1187.93C264.633 1192.15 252.207 1194.16 243.793 1195.12C239.587 1195.59 236.382 1195.81 234.233 1195.9C233.159 1195.95 232.348 1195.96 231.807 1195.97C231.537 1195.97 231.334 1195.97 231.2 1195.97C231.133 1195.97 231.082 1195.97 231.049 1195.97L231.003 1195.97C231.002 1195.97 231.001 1196 230.989 1196.52C230.978 1197.03 230.979 1197.06 230.982 1197.06C230.984 1197.06 230.988 1197.06 230.993 1197.06C231.002 1197.06 231.016 1197.06 231.034 1197.06C231.069 1197.07 231.123 1197.07 231.193 1197.07C231.333 1197.07 231.542 1197.07 231.818 1197.06C232.371 1197.06 233.195 1197.04 234.281 1196.99C236.455 1196.9 239.684 1196.68 243.916 1196.2C252.381 1195.24 264.859 1193.22 280.936 1188.99C313.089 1180.53 359.635 1163.2 417.258 1127.79C532.505 1056.95 692.051 913.732 869.415 624.217C1046.71 334.812 1206.14 191.735 1321.21 121.009C1378.74 85.6462 1425.19 68.3684 1457.24 59.9305C1473.26 55.7117 1485.69 53.7016 1494.1 52.747C1498.31 52.2698 1501.51 52.0569 1503.66 51.9625C1504.74 51.9153 1505.55 51.8973 1506.09 51.8917C1506.36 51.8889 1506.56 51.8889 1506.7 51.8897C1506.76 51.8901 1506.82 51.8906 1506.85 51.8911L1506.89 51.8921C1506.89 51.8905 1506.9 51.861 1506.91 51.3454C1506.92 50.8315 1506.92 50.8005 1506.92 50.7986L1506.86 50.7974C1506.83 50.7969 1506.77 50.7962 1506.7 50.7958ZM1498.15 41.8494C1498.01 41.8486 1497.8 41.8482 1497.53 41.8511C1496.97 41.8568 1496.15 41.8753 1495.06 41.923C1492.89 42.0185 1489.66 42.2335 1485.43 42.7136C1476.96 43.674 1464.48 45.6932 1448.41 49.9259C1416.25 58.3915 1369.71 75.7128 1312.09 111.131C1196.84 181.967 1037.29 325.183 859.928 614.699C682.632 904.104 523.199 1047.18 408.132 1117.91C350.598 1153.27 304.152 1170.55 272.104 1178.99C256.08 1183.21 243.654 1185.21 235.24 1186.17C231.034 1186.65 227.829 1186.86 225.68 1186.95C224.606 1187 223.795 1187.02 223.254 1187.02C222.984 1187.03 222.781 1187.03 222.647 1187.03C222.58 1187.03 222.529 1187.03 222.496 1187.02L222.45 1187.02C222.449 1187.02 222.448 1187.05 222.436 1187.57C222.424 1188.09 222.426 1188.12 222.429 1188.12C222.431 1188.12 222.435 1188.12 222.439 1188.12C222.449 1188.12 222.463 1188.12 222.481 1188.12C222.516 1188.12 222.57 1188.12 222.64 1188.12C222.78 1188.12 222.989 1188.12 223.265 1188.12C223.818 1188.11 224.641 1188.1 225.728 1188.05C227.902 1187.95 231.131 1187.74 235.363 1187.26C243.828 1186.3 256.306 1184.28 272.382 1180.04C304.536 1171.58 351.081 1154.26 408.705 1118.84C523.952 1048 683.498 904.786 860.862 615.271C1038.16 325.866 1197.59 182.789 1312.66 112.063C1370.19 76.6997 1416.64 59.422 1448.69 50.9842C1464.71 46.7652 1477.14 44.7552 1485.55 43.8006C1489.76 43.3234 1492.96 43.1105 1495.11 43.0161C1496.18 42.9689 1497 42.951 1497.54 42.9453C1497.81 42.9425 1498.01 42.9425 1498.14 42.9433C1498.21 42.9437 1498.26 42.9443 1498.29 42.9447L1498.34 42.9457C1498.34 42.9423 1498.34 42.9003 1498.35 42.399C1498.37 41.8853 1498.36 41.8541 1498.36 41.8522L1498.31 41.851C1498.27 41.8505 1498.22 41.8499 1498.15 41.8494ZM1489.6 32.904C1489.45 32.9031 1489.25 32.9028 1488.97 32.9056C1488.42 32.9114 1487.59 32.9298 1486.51 32.9775C1484.33 33.073 1481.1 33.288 1476.87 33.7682C1468.41 34.7286 1455.93 36.7477 1439.85 40.9804C1407.7 49.4461 1361.15 66.7673 1303.53 102.185C1188.28 173.022 1028.74 316.238 851.373 605.753C674.077 895.159 514.644 1038.24 399.577 1108.96C342.043 1144.32 295.597 1161.6 263.549 1170.04C247.525 1174.26 235.099 1176.27 226.685 1177.22C222.478 1177.7 219.274 1177.91 217.125 1178.01C216.051 1178.06 215.24 1178.07 214.699 1178.08C214.429 1178.08 214.226 1178.08 214.091 1178.08C214.024 1178.08 213.974 1178.08 213.941 1178.08L213.895 1178.08C213.894 1178.08 213.892 1178.11 213.881 1178.63C213.869 1179.17 213.871 1179.17 213.874 1179.17C213.876 1179.17 213.88 1179.17 213.884 1179.17C213.894 1179.17 213.908 1179.17 213.925 1179.17C213.961 1179.17 214.015 1179.17 214.085 1179.17C214.225 1179.18 214.434 1179.18 214.71 1179.17C215.263 1179.17 216.086 1179.15 217.173 1179.1C219.347 1179.01 222.576 1178.79 226.808 1178.31C235.273 1177.35 247.751 1175.33 263.827 1171.1C295.981 1162.63 342.526 1145.31 400.15 1109.89C515.397 1039.06 674.943 895.84 852.307 606.325C1029.6 316.92 1189.04 173.844 1304.1 103.117C1361.64 67.7543 1408.08 50.4765 1440.13 42.0387C1456.16 37.8198 1468.58 35.8098 1476.99 34.8552C1481.2 34.3779 1484.41 34.1651 1486.55 34.0707C1487.63 34.0235 1488.44 34.0055 1488.98 33.9999C1489.25 33.9971 1489.45 33.997 1489.59 33.9978C1489.66 33.9983 1489.71 33.9988 1489.74 33.9993L1489.78 34.0003C1489.79 33.9986 1489.79 33.969 1489.8 33.4536C1489.81 32.9497 1489.81 32.9099 1489.81 32.9068L1489.75 32.9056C1489.72 32.9051 1489.67 32.9044 1489.6 32.904ZM1481.04 23.9575C1480.9 23.9567 1480.69 23.9563 1480.41 23.9592C1479.86 23.9649 1479.04 23.9834 1477.95 24.0311C1475.78 24.1266 1472.55 24.3416 1468.32 24.8217C1459.85 25.7821 1447.37 27.8013 1431.3 32.034C1399.14 40.4996 1352.6 57.8209 1294.98 93.2389C1179.73 164.075 1020.18 307.291 842.817 596.807C665.521 886.212 506.088 1029.29 391.021 1100.02C333.487 1135.38 287.041 1152.66 254.993 1161.09C238.969 1165.31 226.543 1167.32 218.129 1168.28C213.923 1168.75 210.718 1168.97 208.569 1169.06C207.495 1169.11 206.684 1169.13 206.143 1169.13C205.873 1169.13 205.67 1169.13 205.535 1169.13C205.469 1169.13 205.418 1169.13 205.385 1169.13L205.339 1169.13C205.338 1169.13 205.337 1169.15 205.325 1169.68C205.313 1170.23 205.315 1170.23 205.318 1170.23C205.32 1170.23 205.324 1170.23 205.328 1170.23C205.338 1170.23 205.352 1170.23 205.369 1170.23C205.405 1170.23 205.459 1170.23 205.529 1170.23C205.669 1170.23 205.878 1170.23 206.154 1170.23C206.707 1170.22 207.53 1170.2 208.617 1170.16C210.791 1170.06 214.02 1169.84 218.252 1169.36C226.717 1168.4 239.195 1166.39 255.271 1162.15C287.425 1153.69 333.97 1136.37 391.594 1100.95C506.841 1030.11 666.387 886.894 843.751 597.379C1021.05 307.974 1180.48 164.897 1295.55 94.1709C1353.08 58.8079 1399.53 41.5301 1431.58 33.0923C1447.6 28.8734 1460.03 26.8633 1468.44 25.9087C1472.65 25.4315 1475.85 25.2186 1478 25.1242C1479.07 25.077 1479.88 25.0591 1480.42 25.0534C1480.69 25.0506 1480.9 25.0506 1481.03 25.0514C1481.1 25.0518 1481.15 25.0524 1481.18 25.0528L1481.23 25.0538C1481.23 25.0515 1481.23 25.0166 1481.24 24.5071C1481.25 24.0058 1481.25 23.9638 1481.25 23.9603L1481.2 23.9591C1481.16 23.9586 1481.11 23.958 1481.04 23.9575ZM1472.48 15.0111C1472.34 15.0103 1472.13 15.0099 1471.86 15.0128C1471.31 15.0185 1470.48 15.0369 1469.4 15.0847C1467.22 15.1801 1463.99 15.3952 1459.76 15.8753C1451.3 16.8357 1438.82 18.8549 1422.74 23.0876C1390.59 31.5532 1344.04 48.8745 1286.42 84.2925C1171.17 155.129 1011.63 298.345 834.262 587.86C656.966 877.266 497.533 1020.34 382.466 1091.07C324.932 1126.43 278.486 1143.71 246.438 1152.15C230.414 1156.37 217.987 1158.38 209.574 1159.33C205.367 1159.81 202.163 1160.02 200.014 1160.12C198.94 1160.16 198.129 1160.18 197.588 1160.19C197.318 1160.19 197.115 1160.19 196.98 1160.19C196.914 1160.19 196.863 1160.19 196.83 1160.19L196.784 1160.19C196.783 1160.19 196.781 1160.22 196.77 1160.73C196.758 1161.25 196.76 1161.28 196.763 1161.28C196.765 1161.28 196.769 1161.28 196.773 1161.28C196.783 1161.28 196.797 1161.28 196.814 1161.28C196.85 1161.28 196.904 1161.28 196.974 1161.28C197.114 1161.28 197.323 1161.28 197.599 1161.28C198.151 1161.27 198.975 1161.26 200.062 1161.21C202.236 1161.11 205.465 1160.9 209.697 1160.42C218.162 1159.46 230.64 1157.44 246.716 1153.21C278.87 1144.74 325.415 1127.42 383.039 1092C498.285 1021.16 657.832 877.948 835.196 588.432C1012.49 299.028 1171.92 155.951 1286.99 85.2245C1344.53 49.8615 1390.97 32.5837 1423.02 24.1458C1439.04 19.927 1451.47 17.9169 1459.88 16.9623C1464.09 16.4851 1467.29 16.2722 1469.44 16.1778C1470.52 16.1306 1471.33 16.1126 1471.87 16.107C1472.14 16.1042 1472.34 16.1042 1472.48 16.105C1472.54 16.1054 1472.6 16.1059 1472.63 16.1064L1472.67 16.1074C1472.68 16.1057 1472.68 16.0763 1472.69 15.5607C1472.7 15.0467 1472.7 15.0158 1472.7 15.0139L1472.64 15.0127C1472.61 15.0122 1472.55 15.0115 1472.48 15.0111ZM1463.93 6.06468C1463.79 6.06383 1463.58 6.06346 1463.3 6.06633C1462.75 6.07206 1461.93 6.09051 1460.84 6.13823C1458.67 6.23371 1455.44 6.44871 1451.21 6.92887C1442.74 7.88926 1430.26 9.90843 1414.19 14.1411C1382.03 22.6068 1335.49 39.928 1277.87 75.3461C1162.62 146.183 1003.07 289.399 825.707 578.914C648.41 868.319 488.978 1011.4 373.91 1082.12C316.377 1117.49 269.931 1134.76 237.883 1143.2C221.859 1147.42 209.433 1149.43 201.019 1150.38C196.812 1150.86 193.608 1151.08 191.459 1151.17C190.385 1151.22 189.574 1151.23 189.033 1151.24C188.763 1151.24 188.56 1151.24 188.425 1151.24C188.358 1151.24 188.308 1151.24 188.275 1151.24L188.229 1151.24C188.228 1151.24 188.227 1151.26 188.215 1151.79C188.203 1152.32 188.205 1152.33 188.208 1152.33C188.21 1152.33 188.214 1152.33 188.218 1152.33C188.228 1152.33 188.242 1152.33 188.259 1152.33C188.295 1152.33 188.349 1152.33 188.418 1152.34C188.559 1152.34 188.768 1152.34 189.044 1152.33C189.596 1152.33 190.42 1152.31 191.507 1152.26C193.681 1152.17 196.91 1151.95 201.142 1151.47C209.607 1150.51 222.085 1148.49 238.161 1144.26C270.315 1135.79 316.86 1118.47 374.484 1083.05C489.73 1012.22 649.277 869.001 826.641 579.486C1003.94 290.081 1163.37 147.004 1278.44 76.278C1335.97 40.915 1382.42 23.6372 1414.47 15.1994C1430.49 10.9805 1442.92 8.97047 1451.33 8.01588C1455.54 7.5386 1458.74 7.32577 1460.89 7.23137C1461.96 7.18418 1462.77 7.16621 1463.31 7.16059C1463.58 7.15779 1463.79 7.15774 1463.92 7.15855C1463.99 7.15895 1464.04 7.15951 1464.07 7.15998L1464.12 7.16098C1464.12 7.1579 1464.12 7.11824 1464.13 6.61429C1464.14 6.1005 1464.14 6.06936 1464.14 6.06746L1464.09 6.06628C1464.05 6.06577 1464 6.06509 1463.93 6.06468ZM1455.38 -2.88171C1455.24 -2.88256 1455.03 -2.88292 1454.75 -2.88006C1454.2 -2.87432 1453.37 -2.85589 1452.29 -2.80815C1450.11 -2.71267 1446.88 -2.49769 1442.65 -2.01751C1434.19 -1.05713 1421.71 0.962051 1405.63 5.19476C1373.48 13.6604 1326.94 30.9817 1269.31 66.3997C1154.07 137.236 994.518 280.452 817.154 569.968C639.857 859.373 480.425 1002.45 365.357 1073.18C307.824 1108.54 261.378 1125.82 229.33 1134.26C213.306 1138.47 200.879 1140.48 192.466 1141.44C188.259 1141.91 185.055 1142.13 182.906 1142.22C181.831 1142.27 181.021 1142.29 180.48 1142.29C180.21 1142.3 180.007 1142.3 179.872 1142.29C179.805 1142.29 179.755 1142.29 179.722 1142.29L179.676 1142.29C179.674 1142.29 179.674 1142.31 179.662 1142.84C179.65 1143.39 179.652 1143.39 179.654 1143.39C179.657 1143.39 179.661 1143.39 179.665 1143.39C179.675 1143.39 179.688 1143.39 179.706 1143.39C179.742 1143.39 179.795 1143.39 179.865 1143.39C180.006 1143.39 180.214 1143.39 180.491 1143.39C181.043 1143.38 181.867 1143.36 182.954 1143.32C185.128 1143.22 188.357 1143 192.589 1142.52C201.054 1141.56 213.532 1139.55 229.608 1135.31C261.762 1126.85 308.307 1109.53 365.93 1074.11C481.177 1003.27 640.724 860.055 818.088 570.539C995.384 281.135 1154.82 138.058 1269.88 67.3317C1327.42 31.9686 1373.86 14.6908 1405.91 6.25302C1421.94 2.0341 1434.36 0.0240685 1442.78 -0.930499C1446.98 -1.40778 1450.19 -1.62061 1452.34 -1.71501C1453.41 -1.7622 1454.22 -1.78017 1454.76 -1.7858C1455.03 -1.78861 1455.23 -1.78865 1455.37 -1.78784C1455.44 -1.78743 1455.49 -1.78687 1455.52 -1.78641L1455.57 -1.7854C1455.57 -1.79016 1455.57 -1.8391 1455.58 -2.3321C1455.59 -2.8457 1455.59 -2.87702 1455.59 -2.87892L1455.54 -2.8801C1455.5 -2.88061 1455.45 -2.88129 1455.38 -2.88171ZM1446.82 -11.8271C1446.68 -11.828 1446.47 -11.8283 1446.2 -11.8255C1445.64 -11.8197 1444.82 -11.8013 1443.73 -11.7536C1441.56 -11.6581 1438.33 -11.4431 1434.1 -10.9629C1425.63 -10.0026 1413.16 -7.98336 1397.08 -3.75067C1364.93 4.71496 1318.38 22.0362 1260.76 57.4543C1145.51 128.291 985.964 271.507 808.6 561.022C631.303 850.428 471.871 993.505 356.803 1064.23C299.27 1099.59 252.824 1116.87 220.776 1125.31C204.752 1129.53 192.325 1131.54 183.912 1132.49C179.705 1132.97 176.501 1133.18 174.352 1133.28C173.277 1133.32 172.467 1133.34 171.926 1133.35C171.656 1133.35 171.453 1133.35 171.318 1133.35C171.251 1133.35 171.201 1133.35 171.168 1133.35L171.122 1133.35C171.12 1133.35 171.12 1133.36 171.108 1133.89C171.095 1134.44 171.098 1134.44 171.1 1134.44C171.103 1134.44 171.107 1134.44 171.111 1134.44C171.12 1134.44 171.134 1134.44 171.152 1134.44C171.188 1134.44 171.241 1134.44 171.311 1134.44C171.452 1134.44 171.66 1134.44 171.936 1134.44C172.489 1134.44 173.313 1134.42 174.4 1134.37C176.573 1134.28 179.803 1134.06 184.035 1133.58C192.5 1132.62 204.978 1130.6 221.054 1126.37C253.208 1117.9 299.753 1100.58 357.376 1065.16C472.623 994.326 632.17 851.109 809.534 561.594C986.83 272.189 1146.26 129.112 1261.33 58.3862C1318.86 23.0232 1365.31 5.74541 1397.36 -2.6924C1413.38 -6.91131 1425.81 -8.92136 1434.22 -9.87593C1438.43 -10.3532 1441.63 -10.566 1443.78 -10.6604C1444.86 -10.7076 1445.67 -10.7256 1446.21 -10.7312C1446.48 -10.734 1446.68 -10.7341 1446.82 -10.7333C1446.88 -10.7329 1446.93 -10.7323 1446.97 -10.7318L1447.01 -10.7308C1447.01 -10.7326 1447.01 -10.763 1447.03 -11.2775C1447.04 -11.7804 1447.04 -11.821 1447.03 -11.8243L1446.98 -11.8255C1446.95 -11.826 1446.89 -11.8267 1446.82 -11.8271ZM1438.27 -20.7736C1438.12 -20.7745 1437.92 -20.7748 1437.64 -20.772C1437.09 -20.7662 1436.26 -20.7478 1435.18 -20.7001C1433 -20.6046 1429.77 -20.3895 1425.54 -19.9094C1417.08 -18.949 1404.6 -16.9298 1388.52 -12.6971C1356.37 -4.23146 1309.82 13.0899 1252.2 48.5078C1136.95 119.344 977.407 262.561 800.043 552.076C622.746 841.481 463.314 984.558 348.246 1055.28C290.713 1090.65 244.267 1107.93 212.219 1116.36C196.195 1120.58 183.768 1122.59 175.355 1123.55C171.148 1124.02 167.944 1124.24 165.795 1124.33C164.721 1124.38 163.909 1124.4 163.369 1124.4C163.099 1124.4 162.896 1124.4 162.761 1124.4C162.694 1124.4 162.644 1124.4 162.611 1124.4L162.565 1124.4C162.563 1124.4 162.562 1124.45 162.551 1124.95C162.539 1125.47 162.541 1125.49 162.543 1125.5C162.546 1125.5 162.55 1125.5 162.554 1125.5C162.563 1125.5 162.577 1125.49 162.595 1125.5C162.631 1125.5 162.684 1125.5 162.754 1125.5C162.895 1125.5 163.104 1125.5 163.379 1125.5C163.932 1125.49 164.756 1125.47 165.843 1125.42C168.016 1125.33 171.246 1125.11 175.478 1124.63C183.943 1123.67 196.421 1121.65 212.497 1117.42C244.65 1108.96 291.196 1091.63 348.819 1056.22C464.066 985.38 623.613 842.163 800.977 552.648C978.273 263.243 1137.71 120.166 1252.77 49.4398C1310.31 14.0768 1356.75 -3.20101 1388.8 -11.6389C1404.83 -15.8577 1417.25 -17.8678 1425.66 -18.8224C1429.87 -19.2997 1433.08 -19.5125 1435.22 -19.6069C1436.3 -19.6541 1437.11 -19.6721 1437.65 -19.6777C1437.92 -19.6805 1438.12 -19.6805 1438.26 -19.6797C1438.33 -19.6793 1438.38 -19.6788 1438.41 -19.6783L1438.45 -19.6773C1438.46 -19.679 1438.46 -19.7086 1438.47 -20.224C1438.48 -20.738 1438.48 -20.7689 1438.48 -20.7708L1438.42 -20.772C1438.39 -20.7725 1438.33 -20.7732 1438.27 -20.7736ZM1429.71 -29.72C1429.57 -29.7209 1429.36 -29.7212 1429.09 -29.7184C1428.53 -29.7126 1427.71 -29.6942 1426.62 -29.6465C1424.45 -29.551 1421.22 -29.336 1416.99 -28.8558C1408.52 -27.8954 1396.04 -25.8762 1379.97 -21.6435C1347.81 -13.1779 1301.27 4.14338 1243.65 39.5614C1128.4 110.398 968.853 253.614 791.489 543.129C614.192 832.535 454.76 975.612 339.692 1046.34C282.159 1081.7 235.713 1098.98 203.665 1107.42C187.641 1111.64 175.214 1113.64 166.801 1114.6C162.594 1115.08 159.39 1115.29 157.241 1115.38C156.166 1115.43 155.355 1115.45 154.815 1115.45C154.545 1115.46 154.342 1115.46 154.207 1115.46C154.14 1115.46 154.09 1115.46 154.057 1115.46L154.011 1115.45C154.009 1115.46 154.008 1115.49 153.997 1116C153.985 1116.53 153.987 1116.55 153.989 1116.55C153.992 1116.55 153.996 1116.55 154 1116.55C154.009 1116.55 154.023 1116.55 154.041 1116.55C154.077 1116.55 154.13 1116.55 154.2 1116.55C154.341 1116.55 154.549 1116.55 154.825 1116.55C155.378 1116.54 156.202 1116.53 157.288 1116.48C159.462 1116.38 162.692 1116.17 166.924 1115.69C175.388 1114.73 187.867 1112.71 203.943 1108.47C236.097 1100.01 282.642 1082.69 340.265 1047.27C455.512 976.434 615.059 833.216 792.422 543.701C969.719 254.296 1129.15 111.22 1244.22 40.4934C1301.75 5.13036 1348.2 -12.1474 1380.25 -20.5853C1396.27 -24.8042 1408.7 -26.8142 1417.11 -27.7688C1421.32 -28.2461 1424.52 -28.4589 1426.67 -28.5533C1427.74 -28.6005 1428.56 -28.6185 1429.1 -28.6241C1429.37 -28.6269 1429.57 -28.627 1429.7 -28.6261C1429.77 -28.6257 1429.82 -28.6252 1429.86 -28.6247L1429.9 -28.6237C1429.9 -28.6254 1429.9 -28.6549 1429.91 -29.1704C1429.93 -29.6844 1429.93 -29.7153 1429.92 -29.7172L1429.87 -29.7184C1429.83 -29.7189 1429.78 -29.7196 1429.71 -29.72ZM1421.16 -38.6655C1421.02 -38.6663 1420.81 -38.6667 1420.53 -38.6638C1419.98 -38.6581 1419.15 -38.6396 1418.07 -38.5919C1415.89 -38.4964 1412.66 -38.2814 1408.43 -37.8013C1399.97 -36.8409 1387.49 -34.8217 1371.41 -30.589C1339.26 -22.1233 1292.71 -4.80212 1235.09 30.6159C1119.84 101.452 960.298 244.669 782.934 534.184C605.637 823.589 446.204 966.666 331.137 1037.39C273.604 1072.76 227.158 1090.03 195.11 1098.47C179.085 1102.69 166.659 1104.7 158.246 1105.65C154.039 1106.13 150.835 1106.34 148.686 1106.44C147.611 1106.49 146.8 1106.5 146.26 1106.51C145.989 1106.51 145.787 1106.51 145.652 1106.51C145.585 1106.51 145.535 1106.51 145.502 1106.51L145.456 1106.51C145.454 1106.51 145.453 1106.56 145.441 1107.06C145.429 1107.6 145.431 1107.6 145.434 1107.6C145.436 1107.6 145.44 1107.6 145.445 1107.6C145.454 1107.6 145.468 1107.6 145.486 1107.6C145.522 1107.6 145.575 1107.6 145.645 1107.61C145.785 1107.61 145.994 1107.61 146.27 1107.6C146.823 1107.6 147.647 1107.58 148.733 1107.53C150.907 1107.44 154.137 1107.22 158.369 1106.74C166.834 1105.78 179.311 1103.76 195.388 1099.53C227.541 1091.06 274.087 1073.74 331.71 1038.32C446.957 967.488 606.503 824.271 783.867 534.756C961.164 245.351 1120.6 102.274 1235.66 31.5479C1293.2 -3.81515 1339.64 -21.0929 1371.69 -29.5307C1387.72 -33.7497 1400.14 -35.7597 1408.56 -36.7143C1412.76 -37.1916 1415.97 -37.4044 1418.12 -37.4988C1419.19 -37.546 1420 -37.5639 1420.54 -37.5695C1420.81 -37.5724 1421.01 -37.5724 1421.15 -37.5716C1421.22 -37.5712 1421.27 -37.5706 1421.3 -37.5702L1421.35 -37.5692C1421.35 -37.5708 1421.35 -37.6007 1421.36 -38.1158C1421.37 -38.611 1421.37 -38.6582 1421.37 -38.6627L1421.32 -38.6639C1421.28 -38.6644 1421.23 -38.665 1421.16 -38.6655ZM1412.6 -47.6119C1412.46 -47.6128 1412.25 -47.6131 1411.97 -47.6103C1411.42 -47.6045 1410.6 -47.5861 1409.51 -47.5384C1407.34 -47.4429 1404.11 -47.2279 1399.88 -46.7477C1391.41 -45.7873 1378.93 -43.7681 1362.86 -39.5354C1330.7 -31.0698 1284.16 -13.7486 1226.54 21.6695C1111.29 92.506 951.742 235.722 774.378 525.237C597.081 814.643 437.649 957.72 322.581 1028.45C265.048 1063.81 218.602 1081.09 186.554 1089.52C170.53 1093.74 158.103 1095.75 149.69 1096.71C145.483 1097.18 142.279 1097.4 140.13 1097.49C139.055 1097.54 138.244 1097.56 137.704 1097.56C137.434 1097.57 137.23 1097.57 137.096 1097.56C137.029 1097.56 136.978 1097.56 136.946 1097.56L136.9 1097.56C136.898 1097.56 136.897 1097.58 136.885 1098.11C136.873 1098.66 136.875 1098.66 136.878 1098.66C136.881 1098.66 136.885 1098.66 136.889 1098.66C136.898 1098.66 136.912 1098.66 136.93 1098.66C136.966 1098.66 137.019 1098.66 137.089 1098.66C137.229 1098.66 137.438 1098.66 137.714 1098.66C138.267 1098.65 139.091 1098.63 140.177 1098.59C142.351 1098.49 145.581 1098.27 149.813 1097.79C158.277 1096.83 170.756 1094.82 186.832 1090.58C218.985 1082.12 265.531 1064.8 323.154 1029.38C438.401 958.542 597.947 815.324 775.311 525.809C952.608 236.404 1112.04 93.3277 1227.11 22.6015C1284.64 -12.7616 1331.09 -30.0394 1363.14 -38.4772C1379.16 -42.6961 1391.59 -44.7061 1400 -45.6607C1404.21 -46.138 1407.41 -46.3508 1409.56 -46.4452C1410.63 -46.4924 1411.44 -46.5104 1411.99 -46.516C1412.26 -46.5188 1412.46 -46.5188 1412.59 -46.518C1412.66 -46.5176 1412.71 -46.5171 1412.74 -46.5166L1412.79 -46.5156C1412.79 -46.5173 1412.79 -46.547 1412.8 -47.0623C1412.81 -47.5573 1412.81 -47.6046 1412.81 -47.6091L1412.76 -47.6103C1412.72 -47.6108 1412.67 -47.6115 1412.6 -47.6119ZM1404.05 -56.5583C1403.91 -56.5592 1403.7 -56.5595 1403.42 -56.5567C1402.87 -56.5509 1402.04 -56.5325 1400.96 -56.4848C1398.78 -56.3893 1395.55 -56.1743 1391.32 -55.6941C1382.86 -54.7337 1370.38 -52.7145 1354.3 -48.4818C1322.15 -40.0162 1275.6 -22.6948 1217.98 12.7231C1102.73 83.5597 943.187 226.776 765.823 516.291C588.527 805.696 429.094 948.774 314.027 1019.5C256.494 1054.86 210.047 1072.14 178 1080.58C161.975 1084.8 149.549 1086.81 141.135 1087.76C136.929 1088.24 133.725 1088.45 131.575 1088.55C130.501 1088.59 129.69 1088.61 129.149 1088.62C128.88 1088.62 128.676 1088.62 128.542 1088.62C128.475 1088.62 128.424 1088.62 128.391 1088.62L128.346 1088.62C128.344 1088.62 128.343 1088.66 128.331 1089.16C128.32 1089.69 128.321 1089.71 128.324 1089.71C128.326 1089.71 128.331 1089.71 128.335 1089.71C128.344 1089.71 128.358 1089.71 128.376 1089.71C128.412 1089.71 128.465 1089.71 128.535 1089.71C128.675 1089.71 128.884 1089.71 129.16 1089.71C129.713 1089.7 130.537 1089.69 131.623 1089.64C133.797 1089.54 137.027 1089.33 141.259 1088.85C149.723 1087.89 162.202 1085.87 178.278 1081.64C210.431 1073.17 256.977 1055.85 314.6 1020.43C429.847 949.595 589.393 806.378 766.757 516.863C944.053 227.458 1103.49 84.3814 1218.55 13.6551C1276.09 -21.7078 1322.53 -38.9857 1354.58 -47.4236C1370.61 -51.6424 1383.03 -53.6525 1391.45 -54.6071C1395.65 -55.0844 1398.86 -55.2972 1401.01 -55.3916C1402.08 -55.4388 1402.89 -55.4568 1403.43 -55.4624C1403.7 -55.4652 1403.9 -55.4653 1404.04 -55.4644C1404.11 -55.464 1404.16 -55.4635 1404.19 -55.463L1404.24 -55.462C1404.24 -55.4637 1404.24 -55.4933 1404.25 -56.0087C1404.26 -56.5227 1404.26 -56.5536 1404.26 -56.5555L1404.2 -56.5567C1404.17 -56.5572 1404.12 -56.5579 1404.05 -56.5583ZM1395.49 -65.5047C1395.35 -65.5056 1395.14 -65.5059 1394.87 -65.5031C1394.31 -65.4973 1393.49 -65.4789 1392.4 -65.4312C1390.23 -65.3357 1387 -65.1207 1382.77 -64.6405C1374.3 -63.6801 1361.83 -61.6609 1345.75 -57.4283C1313.6 -48.9626 1267.05 -31.6413 1209.43 3.77668C1094.18 74.6132 934.633 217.829 757.269 507.345C579.973 796.75 420.54 939.827 305.473 1010.55C247.94 1045.92 201.493 1063.19 169.446 1071.63C153.421 1075.85 140.995 1077.86 132.581 1078.81C128.375 1079.29 125.171 1079.51 123.021 1079.6C121.947 1079.65 121.136 1079.66 120.595 1079.67C120.325 1079.67 120.122 1079.67 119.988 1079.67C119.921 1079.67 119.87 1079.67 119.837 1079.67L119.791 1079.67C119.79 1079.67 119.789 1079.71 119.777 1080.22C119.765 1080.75 119.767 1080.76 119.77 1080.76C119.772 1080.76 119.776 1080.76 119.781 1080.76C119.79 1080.76 119.804 1080.76 119.822 1080.76C119.858 1080.76 119.911 1080.77 119.981 1080.77C120.121 1080.77 120.33 1080.77 120.606 1080.76C121.159 1080.76 121.983 1080.74 123.069 1080.69C125.243 1080.6 128.472 1080.38 132.705 1079.9C141.169 1078.94 153.647 1076.92 169.724 1072.69C201.877 1064.22 248.423 1046.9 306.046 1011.49C421.293 940.649 580.839 797.432 758.203 507.916C935.499 218.512 1094.93 75.4349 1210 4.70865C1267.53 -30.6543 1313.98 -47.9321 1346.03 -56.37C1362.05 -60.5889 1374.48 -62.5989 1382.89 -63.5535C1387.1 -64.0308 1390.3 -64.2436 1392.45 -64.338C1393.53 -64.3852 1394.34 -64.4032 1394.88 -64.4088C1395.15 -64.4116 1395.35 -64.4117 1395.48 -64.4108C1395.55 -64.4104 1395.6 -64.4099 1395.64 -64.4094L1395.68 -64.4084C1395.68 -64.4101 1395.68 -64.4396 1395.7 -64.9551C1395.71 -65.4692 1395.71 -65.5 1395.7 -65.5019L1395.65 -65.5031C1395.61 -65.5036 1395.56 -65.5043 1395.49 -65.5047ZM1386.94 -74.4511C1386.8 -74.452 1386.59 -74.4523 1386.31 -74.4495C1385.76 -74.4437 1384.94 -74.4253 1383.85 -74.3776C1381.68 -74.2821 1378.45 -74.0671 1374.21 -73.5869C1365.75 -72.6265 1353.27 -70.6074 1337.19 -66.3747C1305.04 -57.909 1258.5 -40.5878 1200.87 -5.16973C1085.63 65.6668 926.079 208.883 748.715 498.398C571.419 787.804 411.986 930.881 296.919 1001.61C239.385 1036.97 192.939 1054.25 160.891 1062.69C144.867 1066.9 132.441 1068.91 124.027 1069.87C119.821 1070.35 116.616 1070.56 114.467 1070.65C113.393 1070.7 112.582 1070.72 112.041 1070.72C111.771 1070.73 111.568 1070.73 111.434 1070.73C111.367 1070.73 111.316 1070.72 111.283 1070.72L111.237 1070.72C111.236 1070.72 111.235 1070.74 111.223 1071.27C111.211 1071.81 111.213 1071.82 111.216 1071.82C111.218 1071.82 111.222 1071.82 111.227 1071.82C111.236 1071.82 111.25 1071.82 111.268 1071.82C111.304 1071.82 111.357 1071.82 111.427 1071.82C111.567 1071.82 111.776 1071.82 112.052 1071.82C112.605 1071.81 113.428 1071.79 114.515 1071.75C116.689 1071.65 119.918 1071.44 124.15 1070.96C132.615 1069.99 145.093 1067.98 161.17 1063.74C193.323 1055.28 239.868 1037.96 297.492 1002.54C412.739 931.702 572.285 788.485 749.649 498.97C926.945 209.565 1086.38 66.4885 1201.45 -4.23776C1258.98 -39.6008 1305.43 -56.8786 1337.47 -65.3164C1353.5 -69.5353 1365.92 -71.5453 1374.34 -72.4999C1378.54 -72.9772 1381.75 -73.19 1383.9 -73.2844C1384.97 -73.3316 1385.78 -73.3496 1386.32 -73.3552C1386.59 -73.358 1386.8 -73.3581 1386.93 -73.3573C1387 -73.3568 1387.05 -73.3563 1387.08 -73.3558L1387.13 -73.3548C1387.13 -73.3569 1387.13 -73.3895 1387.14 -73.9015C1387.15 -74.4155 1387.15 -74.4464 1387.15 -74.4483L1387.1 -74.4495C1387.06 -74.45 1387.01 -74.4507 1386.94 -74.4511ZM1378.38 -83.3966C1378.24 -83.3974 1378.03 -83.3978 1377.76 -83.3949C1377.2 -83.3892 1376.38 -83.3708 1375.29 -83.323C1373.12 -83.2276 1369.89 -83.0126 1365.66 -82.5324C1357.19 -81.572 1344.72 -79.5528 1328.64 -75.3201C1296.49 -66.8545 1249.94 -49.5333 1192.32 -14.1152C1077.07 56.7213 917.523 199.937 740.159 489.453C562.863 778.858 403.43 921.935 288.363 992.661C230.829 1028.02 184.383 1045.3 152.335 1053.74C136.311 1057.96 123.885 1059.97 115.471 1060.92C111.265 1061.4 108.06 1061.61 105.911 1061.71C104.837 1061.76 104.026 1061.77 103.485 1061.78C103.215 1061.78 103.012 1061.78 102.878 1061.78C102.811 1061.78 102.76 1061.78 102.727 1061.78L102.681 1061.78C102.68 1061.78 102.678 1061.82 102.667 1062.33C102.655 1062.87 102.657 1062.87 102.66 1062.87C102.662 1062.87 102.666 1062.87 102.671 1062.87C102.68 1062.87 102.694 1062.87 102.712 1062.87C102.748 1062.87 102.801 1062.87 102.871 1062.87C103.011 1062.87 103.22 1062.88 103.496 1062.87C104.049 1062.87 104.872 1062.85 105.959 1062.8C108.133 1062.71 111.362 1062.49 115.594 1062.01C124.059 1061.05 136.537 1059.03 152.614 1054.8C184.767 1046.33 231.312 1029.01 288.936 993.593C404.183 922.757 563.729 779.54 741.093 490.025C918.389 200.62 1077.82 57.543 1192.89 -13.1832C1250.42 -48.5463 1296.87 -65.824 1328.92 -74.2619C1344.94 -78.4808 1357.37 -80.4908 1365.78 -81.4454C1369.99 -81.9227 1373.19 -82.1355 1375.34 -82.2299C1376.42 -82.2771 1377.23 -82.2951 1377.77 -82.3007C1378.04 -82.3035 1378.24 -82.3035 1378.37 -82.3027C1378.44 -82.3023 1378.49 -82.3018 1378.53 -82.3013L1378.57 -82.3003C1378.57 -82.302 1378.57 -82.3318 1378.59 -82.847C1378.6 -83.3389 1378.6 -83.3888 1378.59 -83.3938L1378.54 -83.395C1378.5 -83.3955 1378.45 -83.3962 1378.38 -83.3966ZM1369.83 -92.343C1369.69 -92.3438 1369.48 -92.3442 1369.2 -92.3414C1368.65 -92.3356 1367.83 -92.3172 1366.74 -92.2694C1364.57 -92.174 1361.34 -91.9589 1357.1 -91.4788C1348.64 -90.5184 1336.16 -88.4992 1320.08 -84.2665C1287.93 -75.8009 1241.39 -58.4796 1183.76 -23.0616C1068.52 47.7749 908.969 190.991 731.605 480.506C554.309 769.912 394.876 912.989 279.809 983.715C222.275 1019.08 175.829 1036.36 143.781 1044.79C127.757 1049.01 115.331 1051.02 106.917 1051.98C102.711 1052.45 99.5063 1052.67 97.3572 1052.76C96.2831 1052.81 95.472 1052.83 94.9312 1052.83C94.6613 1052.83 94.4581 1052.83 94.3236 1052.83C94.2569 1052.83 94.2061 1052.83 94.1732 1052.83L94.1273 1052.83C94.1258 1052.83 94.125 1052.85 94.1131 1053.38C94.1009 1053.92 94.103 1053.93 94.1057 1053.93C94.1082 1053.93 94.1123 1053.93 94.1165 1053.93C94.1259 1053.93 94.14 1053.93 94.1575 1053.93C94.1935 1053.93 94.247 1053.93 94.3167 1053.93C94.4571 1053.93 94.6661 1053.93 94.9419 1053.93C95.4948 1053.92 96.3185 1053.9 97.405 1053.85C99.5788 1053.76 102.808 1053.54 107.04 1053.06C115.505 1052.1 127.983 1050.08 144.059 1045.85C176.213 1037.39 222.759 1020.07 280.382 984.647C395.629 913.811 555.175 770.593 732.539 481.078C909.835 191.673 1069.27 48.5966 1184.34 -22.1296C1241.87 -57.4927 1288.32 -74.7705 1320.36 -83.2083C1336.39 -87.4271 1348.81 -89.4372 1357.23 -90.3918C1361.43 -90.8691 1364.64 -91.0819 1366.79 -91.1763C1367.86 -91.2235 1368.67 -91.2415 1369.21 -91.2471C1369.48 -91.2499 1369.69 -91.2499 1369.82 -91.2491C1369.89 -91.2487 1369.94 -91.2482 1369.97 -91.2477L1370.02 -91.2467C1370.02 -91.2484 1370.02 -91.2784 1370.03 -91.7934C1370.04 -92.2854 1370.04 -92.3352 1370.04 -92.3402L1369.99 -92.3414C1369.95 -92.3419 1369.9 -92.3426 1369.83 -92.343ZM1361.27 -101.289C1361.13 -101.29 1360.92 -101.291 1360.65 -101.288C1360.09 -101.282 1359.27 -101.264 1358.18 -101.216C1356.01 -101.12 1352.78 -100.905 1348.55 -100.425C1340.08 -99.4648 1327.61 -97.4456 1311.53 -93.213C1279.38 -84.7473 1232.83 -67.426 1175.21 -32.008C1059.96 38.8285 900.414 182.045 723.05 471.56C545.754 760.965 386.321 904.042 271.254 974.769C213.72 1010.13 167.274 1027.41 135.226 1035.85C119.202 1040.07 106.776 1042.08 98.3621 1043.03C94.1554 1043.51 90.9512 1043.72 88.8021 1043.82C87.7279 1043.86 86.9169 1043.88 86.3761 1043.89C86.1061 1043.89 85.903 1043.89 85.7685 1043.89C85.7017 1043.89 85.6511 1043.89 85.6181 1043.89L85.5722 1043.88C85.5708 1043.89 85.5694 1043.92 85.558 1044.43C85.5462 1044.96 85.5481 1044.98 85.5507 1044.98C85.553 1044.98 85.5571 1044.98 85.5614 1044.98C85.5707 1044.98 85.5849 1044.98 85.6024 1044.98C85.6383 1044.98 85.6918 1044.98 85.7616 1044.98C85.902 1044.98 86.1108 1044.98 86.3868 1044.98C86.9396 1044.97 87.7633 1044.96 88.85 1044.91C91.0238 1044.81 94.2532 1044.6 98.4853 1044.12C106.95 1043.16 119.428 1041.14 135.504 1036.91C167.658 1028.44 214.203 1011.12 271.827 975.701C387.074 904.864 546.62 761.647 723.984 472.132C901.28 182.727 1060.71 39.6503 1175.78 -31.0761C1233.31 -66.439 1279.76 -83.7168 1311.81 -92.1547C1327.83 -96.3736 1340.26 -98.3836 1348.67 -99.3382C1352.88 -99.8155 1356.08 -100.028 1358.23 -100.123C1359.31 -100.17 1360.12 -100.188 1360.66 -100.194C1360.93 -100.196 1361.13 -100.196 1361.27 -100.196C1361.33 -100.195 1361.38 -100.195 1361.42 -100.194L1361.46 -100.193C1361.46 -100.195 1361.46 -100.224 1361.48 -100.74C1361.49 -101.254 1361.49 -101.285 1361.48 -101.287L1361.43 -101.288C1361.4 -101.288 1361.34 -101.289 1361.27 -101.289ZM1352.72 -110.236C1352.58 -110.237 1352.37 -110.237 1352.09 -110.234C1351.54 -110.228 1350.71 -110.21 1349.63 -110.162C1347.45 -110.067 1344.22 -109.852 1339.99 -109.372C1331.53 -108.411 1319.05 -106.392 1302.97 -102.159C1270.82 -93.6938 1224.28 -76.3725 1166.65 -40.9545C1051.41 29.882 891.858 173.098 714.494 462.613C537.198 752.019 377.765 895.096 262.698 965.822C205.164 1001.19 158.718 1018.46 126.67 1026.9C110.646 1031.12 98.2197 1033.13 89.8061 1034.08C85.5993 1034.56 82.3952 1034.77 80.2461 1034.87C79.1716 1034.92 78.3609 1034.93 77.8201 1034.94C77.5499 1034.94 77.347 1034.94 77.2125 1034.94C77.1454 1034.94 77.095 1034.94 77.0621 1034.94L77.0162 1034.94C77.0147 1034.94 77.0139 1034.95 77.002 1035.49C76.9898 1036.03 76.992 1036.03 76.9946 1036.03C76.997 1036.03 77.001 1036.03 77.0054 1036.03C77.0148 1036.03 77.0287 1036.03 77.0464 1036.03C77.0824 1036.03 77.1355 1036.03 77.2056 1036.03C77.346 1036.04 77.5546 1036.04 77.8308 1036.03C78.3837 1036.03 79.2071 1036.01 80.2939 1035.96C82.4677 1035.87 85.697 1035.65 89.9293 1035.17C98.394 1034.21 110.872 1032.19 126.948 1027.96C159.102 1019.49 205.647 1002.17 263.271 966.754C378.518 895.918 538.064 752.701 715.428 463.185C892.724 173.78 1052.16 30.7037 1167.22 -40.0225C1224.76 -75.3856 1271.2 -92.6633 1303.25 -101.101C1319.28 -105.32 1331.7 -107.33 1340.12 -108.285C1344.32 -108.762 1347.53 -108.975 1349.68 -109.069C1350.75 -109.116 1351.56 -109.134 1352.1 -109.14C1352.37 -109.143 1352.57 -109.143 1352.71 -109.142C1352.78 -109.142 1352.83 -109.141 1352.86 -109.141L1352.91 -109.14C1352.91 -109.142 1352.91 -109.18 1352.92 -109.686C1352.93 -110.2 1352.93 -110.231 1352.93 -110.233L1352.88 -110.234C1352.84 -110.235 1352.79 -110.235 1352.72 -110.236ZM1344.16 -119.182C1344.02 -119.183 1343.81 -119.183 1343.54 -119.181C1342.98 -119.175 1342.16 -119.156 1341.07 -119.109C1338.9 -119.013 1335.67 -118.798 1331.44 -118.318C1322.97 -117.358 1310.5 -115.338 1294.42 -111.106C1262.27 -102.64 1215.72 -85.3189 1158.1 -49.9009C1042.85 20.9356 883.304 164.152 705.94 453.667C528.644 743.072 369.211 886.15 254.144 956.876C196.61 992.239 150.164 1009.52 118.116 1017.95C102.092 1022.17 89.6656 1024.18 81.252 1025.14C77.0453 1025.61 73.8411 1025.83 71.692 1025.92C70.6178 1025.97 69.8068 1025.99 69.266 1025.99C68.996 1026 68.7929 1026 68.6584 1025.99C68.5916 1025.99 68.5409 1025.99 68.508 1025.99L68.4621 1025.99C68.4606 1025.99 68.4598 1026.01 68.4479 1026.54C68.4357 1027.09 68.4379 1027.09 68.4406 1027.09C68.443 1027.09 68.447 1027.09 68.4513 1027.09C68.4607 1027.09 68.4747 1027.09 68.4923 1027.09C68.5283 1027.09 68.5817 1027.09 68.6515 1027.09C68.7919 1027.09 69.0007 1027.09 69.2767 1027.09C69.8296 1027.08 70.6532 1027.06 71.7398 1027.02C73.9137 1026.92 77.1431 1026.7 81.3752 1026.22C89.8399 1025.26 102.318 1023.25 118.394 1019.01C150.548 1010.55 197.093 993.226 254.717 957.808C369.963 886.971 529.51 743.754 706.874 454.239C884.17 164.834 1043.6 21.7573 1158.67 -48.9689C1216.2 -84.3319 1262.65 -101.61 1294.7 -110.048C1310.72 -114.266 1323.15 -116.277 1331.56 -117.231C1335.77 -117.708 1338.97 -117.921 1341.12 -118.016C1342.2 -118.063 1343.01 -118.081 1343.55 -118.086C1343.82 -118.089 1344.02 -118.089 1344.16 -118.088C1344.22 -118.088 1344.27 -118.087 1344.31 -118.087L1344.35 -118.086C1344.35 -118.09 1344.35 -118.134 1344.37 -118.633C1344.38 -119.146 1344.38 -119.178 1344.37 -119.179L1344.32 -119.181C1344.29 -119.181 1344.23 -119.182 1344.16 -119.182ZM1335.61 -128.128C1335.47 -128.129 1335.26 -128.129 1334.98 -128.126C1334.43 -128.12 1333.61 -128.102 1332.52 -128.054C1330.35 -127.959 1327.12 -127.744 1322.88 -127.264C1314.42 -126.303 1301.94 -124.284 1285.87 -120.051C1253.71 -111.586 1207.17 -94.2644 1149.54 -58.8463C1034.3 11.9902 874.75 155.206 697.386 444.722C520.089 734.127 360.657 877.204 245.589 947.93C188.056 983.293 141.61 1000.57 109.562 1009.01C93.5379 1013.23 81.1115 1015.24 72.6979 1016.19C68.4913 1016.67 65.287 1016.88 63.1379 1016.98C62.0638 1017.02 61.2527 1017.04 60.7119 1017.05C60.442 1017.05 60.2388 1017.05 60.1043 1017.05C60.0376 1017.05 59.9868 1017.05 59.9539 1017.05L59.908 1017.05C59.9065 1017.05 59.9057 1017.06 59.8938 1017.59C59.8816 1018.14 59.8838 1018.14 59.8865 1018.14C59.8889 1018.14 59.893 1018.14 59.8972 1018.14C59.9066 1018.14 59.9208 1018.14 59.9382 1018.14C59.9742 1018.14 60.0277 1018.14 60.0974 1018.14C60.2378 1018.14 60.4467 1018.14 60.7226 1018.14C61.2755 1018.14 62.0992 1018.12 63.1857 1018.07C65.3596 1017.97 68.5891 1017.76 72.8211 1017.28C81.2858 1016.32 93.764 1014.3 109.84 1010.07C141.994 1001.6 188.539 984.28 246.162 948.862C361.409 878.026 520.956 734.809 698.32 445.293C875.616 155.888 1035.05 12.8119 1150.12 -57.9143C1207.65 -93.2774 1254.1 -110.555 1286.14 -118.993C1302.17 -123.212 1314.59 -125.222 1323.01 -126.177C1327.21 -126.654 1330.42 -126.867 1332.57 -126.961C1333.64 -127.008 1334.45 -127.026 1334.99 -127.032C1335.26 -127.035 1335.47 -127.035 1335.6 -127.034C1335.67 -127.033 1335.72 -127.033 1335.75 -127.032L1335.8 -127.031C1335.8 -127.033 1335.8 -127.063 1335.81 -127.578C1335.82 -128.067 1335.82 -128.119 1335.82 -128.125L1335.77 -128.126C1335.73 -128.127 1335.68 -128.127 1335.61 -128.128ZM1327.05 -137.074C1326.91 -137.075 1326.7 -137.075 1326.43 -137.073C1325.87 -137.067 1325.05 -137.048 1323.96 -137.001C1321.79 -136.905 1318.56 -136.69 1314.33 -136.21C1305.86 -135.25 1293.38 -133.23 1277.31 -128.998C1245.15 -120.532 1198.61 -103.211 1140.99 -67.7928C1025.74 3.04376 866.193 146.26 688.829 435.775C511.532 725.18 352.1 868.258 237.032 938.984C179.499 974.347 133.053 991.625 101.005 1000.06C84.9809 1004.28 72.5543 1006.29 64.1409 1007.25C59.9342 1007.72 56.73 1007.94 54.5809 1008.03C53.5067 1008.08 52.6957 1008.09 52.1549 1008.1C51.8849 1008.1 51.6818 1008.1 51.5473 1008.1C51.4804 1008.1 51.4298 1008.1 51.3969 1008.1L51.351 1008.1C51.3496 1008.1 51.348 1008.15 51.3368 1008.65C51.3249 1009.18 51.3269 1009.19 51.3294 1009.19C51.3318 1009.19 51.3359 1009.19 51.3402 1009.19C51.3495 1009.19 51.3636 1009.19 51.3812 1009.19C51.4171 1009.2 51.4704 1009.2 51.5404 1009.2C51.6808 1009.2 51.8896 1009.2 52.1656 1009.19C52.7183 1009.19 53.5421 1009.17 54.6287 1009.12C56.8026 1009.03 60.0319 1008.81 64.2641 1008.33C72.7287 1007.37 85.2069 1005.35 101.283 1001.12C133.437 992.655 179.982 975.334 237.605 939.916C352.852 869.079 512.399 725.862 689.763 436.347C867.059 146.942 1026.49 3.86552 1141.56 -66.8608C1199.09 -102.224 1245.54 -119.502 1277.59 -127.939C1293.61 -132.158 1306.04 -134.168 1314.45 -135.123C1318.66 -135.6 1321.86 -135.813 1324.01 -135.907C1325.08 -135.955 1325.9 -135.973 1326.44 -135.978C1326.71 -135.981 1326.91 -135.981 1327.04 -135.98C1327.11 -135.98 1327.16 -135.979 1327.2 -135.979L1327.24 -135.978C1327.24 -135.98 1327.24 -136.009 1327.25 -136.525C1327.27 -137.037 1327.27 -137.069 1327.26 -137.071L1327.21 -137.073C1327.17 -137.073 1327.12 -137.074 1327.05 -137.074ZM1318.5 -146.021C1318.36 -146.021 1318.15 -146.022 1317.87 -146.019C1317.32 -146.013 1316.5 -145.995 1315.41 -145.947C1313.24 -145.852 1310.01 -145.637 1305.78 -145.156C1297.31 -144.196 1284.83 -142.177 1268.76 -137.944C1236.6 -129.478 1190.06 -112.157 1132.43 -76.7391C1017.19 -5.90263 857.641 137.313 680.277 426.829C502.98 716.234 343.548 859.311 228.48 930.038C170.947 965.4 124.501 982.678 92.4529 991.116C76.4286 995.335 64.0023 997.344 55.5888 998.299C51.382 998.776 48.1779 998.99 46.0288 999.084C44.9544 999.131 44.1436 999.148 43.6028 999.154C43.3327 999.157 43.1297 999.157 42.9951 999.156C42.9282 999.156 42.8777 999.155 42.8448 999.155L42.7989 999.154C42.7975 999.156 42.7961 999.189 42.7847 999.701C42.7726 1000.24 42.7746 1000.25 42.7773 1000.25C42.7796 1000.25 42.7837 1000.25 42.7881 1000.25C42.7975 1000.25 42.8114 1000.25 42.8291 1000.25C42.865 1000.25 42.9183 1000.25 42.9883 1000.25C43.1287 1000.25 43.3375 1000.25 43.6135 1000.25C44.1662 1000.24 44.9899 1000.23 46.0766 1000.18C48.2504 1000.08 51.4798 999.866 55.7119 999.386C64.1766 998.425 76.6546 996.407 92.731 992.174C124.885 983.709 171.43 966.388 229.053 930.97C344.3 860.133 503.847 716.916 681.211 427.401C858.507 137.996 1017.94 -5.08088 1133.01 -75.8072C1190.54 -111.17 1236.99 -128.448 1269.04 -136.886C1285.06 -141.105 1297.49 -143.115 1305.9 -144.069C1310.11 -144.547 1313.31 -144.759 1315.46 -144.854C1316.53 -144.901 1317.34 -144.919 1317.88 -144.925C1318.15 -144.927 1318.36 -144.927 1318.49 -144.927C1318.56 -144.926 1318.61 -144.926 1318.64 -144.925L1318.69 -144.924C1318.69 -144.926 1318.69 -144.955 1318.7 -145.471C1318.71 -145.985 1318.71 -146.016 1318.71 -146.018L1318.66 -146.019C1318.62 -146.019 1318.57 -146.02 1318.5 -146.021ZM1309.94 -154.967C1309.8 -154.968 1309.59 -154.968 1309.32 -154.965C1308.77 -154.96 1307.94 -154.941 1306.86 -154.893C1304.68 -154.798 1301.45 -154.583 1297.22 -154.103C1288.76 -153.142 1276.28 -151.123 1260.2 -146.89C1228.05 -138.425 1181.5 -121.104 1123.88 -85.6856C1008.63 -14.8491 849.086 128.367 671.722 417.882C494.425 707.288 334.993 850.365 219.925 921.091C162.392 956.454 115.946 973.732 83.8978 982.17C67.8736 986.389 55.4473 988.398 47.0337 989.352C42.827 989.83 39.6228 990.043 37.4737 990.138C36.3994 990.185 35.5885 990.202 35.0477 990.208C34.7777 990.21 34.5746 990.21 34.4401 990.21C34.3732 990.209 34.3227 990.209 34.2897 990.208L34.2438 990.207C34.2423 990.208 34.2415 990.224 34.2296 990.755C34.2174 991.301 34.2196 991.302 34.2223 991.302C34.2247 991.302 34.2287 991.302 34.233 991.302C34.2424 991.302 34.2563 991.302 34.274 991.302C34.31 991.302 34.3633 991.303 34.4332 991.304C34.5736 991.304 34.7824 991.305 35.0584 991.302C35.6113 991.296 36.4349 991.279 37.5215 991.231C39.6954 991.135 42.9248 990.92 47.1569 990.439C55.6216 989.479 68.0997 987.461 84.176 983.228C116.33 974.762 162.875 957.441 220.498 922.023C335.745 851.187 495.292 707.969 672.655 418.454C849.952 129.049 1009.38 -14.0274 1124.45 -84.7536C1181.99 -120.117 1228.43 -137.394 1260.48 -145.832C1276.5 -150.051 1288.93 -152.061 1297.34 -153.016C1301.55 -153.493 1304.75 -153.706 1306.9 -153.8C1307.98 -153.847 1308.79 -153.865 1309.33 -153.871C1309.6 -153.874 1309.8 -153.874 1309.94 -153.873C1310 -153.873 1310.06 -153.872 1310.09 -153.872L1310.13 -153.871C1310.13 -153.874 1310.14 -153.918 1310.15 -154.417C1310.16 -154.931 1310.16 -154.962 1310.16 -154.964L1310.1 -154.965C1310.07 -154.966 1310.01 -154.967 1309.94 -154.967ZM1301.39 -163.913C1301.25 -163.914 1301.04 -163.915 1300.76 -163.912C1300.21 -163.906 1299.39 -163.888 1298.3 -163.84C1296.13 -163.744 1292.9 -163.529 1288.66 -163.049C1280.2 -162.089 1267.72 -160.07 1251.65 -155.837C1219.49 -147.371 1172.95 -130.05 1115.32 -94.632C1000.08 -23.7956 840.53 119.421 663.166 408.936C485.869 698.341 326.437 841.418 211.369 912.145C153.836 947.507 107.39 964.785 75.3418 973.223C59.3178 977.442 46.8912 979.451 38.4777 980.406C34.2711 980.883 31.0668 981.097 28.9177 981.191C27.8436 981.239 27.0325 981.256 26.4917 981.261C26.2219 981.264 26.0186 981.264 25.8841 981.263C25.8174 981.263 25.7666 981.262 25.7337 981.262L25.6878 981.261C25.6863 981.261 25.6854 981.278 25.6736 981.808C25.6614 982.355 25.6635 982.355 25.6662 982.355C25.6687 982.355 25.6728 982.355 25.677 982.356C25.6864 982.356 25.7005 982.355 25.718 982.355C25.754 982.356 25.8075 982.357 25.8772 982.357C26.0176 982.358 26.2266 982.358 26.5024 982.355C27.0553 982.35 27.8791 982.332 28.9655 982.284C31.1393 982.189 34.3688 981.973 38.6009 981.493C47.0656 980.532 59.5438 978.514 75.62 974.282C107.774 965.816 154.319 948.495 211.942 913.077C327.189 842.24 486.736 699.023 664.099 409.508C841.396 120.103 1000.83 -22.9738 1115.9 -93.7C1173.43 -129.063 1219.88 -146.341 1251.92 -154.779C1267.95 -158.998 1280.37 -161.008 1288.79 -161.962C1292.99 -162.439 1296.2 -162.652 1298.35 -162.747C1299.42 -162.794 1300.23 -162.812 1300.77 -162.818C1301.04 -162.82 1301.25 -162.82 1301.38 -162.82C1301.45 -162.819 1301.5 -162.819 1301.53 -162.818L1301.58 -162.817C1301.58 -162.822 1301.58 -162.872 1301.59 -163.364C1301.6 -163.874 1301.6 -163.908 1301.6 -163.911L1301.55 -163.912C1301.51 -163.912 1301.46 -163.913 1301.39 -163.913ZM1292.83 -172.859C1292.69 -172.86 1292.48 -172.86 1292.21 -172.857C1291.65 -172.851 1290.83 -172.833 1289.74 -172.785C1287.57 -172.69 1284.34 -172.475 1280.11 -171.995C1271.64 -171.034 1259.17 -169.015 1243.09 -164.782C1210.94 -156.317 1164.39 -138.995 1106.77 -103.577C991.522 -32.7409 831.974 110.475 654.611 399.99C477.314 689.396 317.881 832.473 202.814 903.199C145.281 938.562 98.8346 955.84 66.7867 964.278C50.7626 968.497 38.336 970.506 29.9226 971.46C25.7159 971.938 22.5117 972.151 20.3626 972.246C19.2884 972.293 18.4774 972.31 17.9366 972.316C17.6666 972.318 17.4635 972.319 17.329 972.318C17.2622 972.317 17.2115 972.317 17.1786 972.316L17.1327 972.315C17.1313 972.319 17.1297 972.364 17.1185 972.863C17.1066 973.393 17.1086 973.409 17.1112 973.41C17.1135 973.41 17.1176 973.41 17.1219 973.41C17.1312 973.41 17.1453 973.41 17.1629 973.41C17.1988 973.411 17.2523 973.411 17.3221 973.412C17.4625 973.412 17.6714 973.413 17.9473 973.41C18.5001 973.404 19.3238 973.387 20.4104 973.339C22.5843 973.244 25.8136 973.028 30.0458 972.547C38.5104 971.587 50.9886 969.569 67.0649 965.336C99.2184 956.87 145.764 939.549 203.387 904.131C318.634 833.295 478.181 690.077 655.544 400.562C832.84 111.158 992.273 -31.9192 1107.34 -102.645C1164.87 -138.008 1211.32 -155.286 1243.37 -163.724C1259.39 -167.943 1271.82 -169.953 1280.23 -170.908C1284.44 -171.385 1287.64 -171.598 1289.79 -171.692C1290.87 -171.739 1291.68 -171.757 1292.22 -171.763C1292.49 -171.766 1292.69 -171.766 1292.83 -171.765C1292.89 -171.765 1292.94 -171.764 1292.98 -171.764L1293.02 -171.763C1293.02 -171.764 1293.02 -171.794 1293.04 -172.309C1293.05 -172.823 1293.05 -172.854 1293.04 -172.856L1292.99 -172.857C1292.96 -172.858 1292.9 -172.858 1292.83 -172.859ZM1284.28 -181.805C1284.14 -181.806 1283.93 -181.807 1283.65 -181.804C1283.1 -181.798 1282.28 -181.779 1281.19 -181.732C1279.02 -181.636 1275.79 -181.421 1271.55 -180.941C1263.09 -179.981 1250.61 -177.962 1234.54 -173.729C1202.38 -165.263 1155.84 -147.942 1098.21 -112.524C982.967 -41.6874 823.42 101.529 646.056 391.044C468.759 680.449 309.327 823.527 194.259 894.253C136.726 929.616 90.2796 946.894 58.2317 955.331C42.2074 959.55 29.7811 961.559 21.3675 962.514C17.1607 962.991 13.9567 963.205 11.8075 963.299C10.7332 963.347 9.92233 963.364 9.38154 963.369C9.11139 963.372 8.90846 963.372 8.77392 963.371C8.70702 963.371 8.65648 963.37 8.62353 963.37L8.57764 963.369C8.57615 963.37 8.57505 963.397 8.56344 963.917C8.55131 964.459 8.55341 964.463 8.5561 964.463C8.55841 964.463 8.56244 964.464 8.56683 964.464C8.57623 964.464 8.59016 964.463 8.60786 964.464C8.64387 964.464 8.69709 964.465 8.76705 964.465C8.90744 964.466 9.1161 964.466 9.39224 964.464C9.94512 964.458 10.7686 964.44 11.8554 964.393C14.0292 964.297 17.2585 964.081 21.4907 963.601C29.9555 962.641 42.4334 960.622 58.5098 956.39C90.6634 947.924 137.209 930.603 194.832 895.185C310.079 824.348 469.625 681.131 646.989 391.616C824.286 102.211 983.718 -40.8656 1098.79 -111.592C1156.32 -146.955 1202.77 -164.233 1234.81 -172.671C1250.84 -176.889 1263.26 -178.9 1271.68 -179.854C1275.88 -180.331 1279.09 -180.544 1281.24 -180.639C1282.31 -180.686 1283.12 -180.704 1283.66 -180.709C1283.93 -180.712 1284.14 -180.712 1284.27 -180.711C1284.34 -180.711 1284.39 -180.71 1284.42 -180.71L1284.47 -180.709C1284.47 -180.711 1284.47 -180.74 1284.48 -181.256C1284.49 -181.769 1284.49 -181.801 1284.49 -181.803L1284.44 -181.804C1284.4 -181.804 1284.35 -181.805 1284.28 -181.805ZM1275.72 -190.752C1275.58 -190.753 1275.37 -190.753 1275.1 -190.75C1274.55 -190.744 1273.72 -190.726 1272.64 -190.678C1270.46 -190.583 1267.23 -190.368 1263 -189.887C1254.54 -188.927 1242.06 -186.908 1225.98 -182.675C1193.83 -174.21 1147.28 -156.888 1089.66 -121.47C974.413 -50.6338 814.866 92.5822 637.501 382.098C460.205 671.503 300.772 814.58 185.705 885.306C128.172 920.669 81.7255 937.947 49.6776 946.385C33.6533 950.604 21.227 952.613 12.8134 953.568C8.60678 954.045 5.40259 954.259 3.25346 954.353C2.17914 954.4 1.36825 954.417 0.827463 954.423C0.557437 954.426 0.354381 954.426 0.219844 954.425C0.152941 954.425 0.102403 954.424 0.0694471 954.424L0.0235601 954.422C0.0220847 954.423 0.0212391 954.439 0.00935946 954.97C-0.0028613 955.517 -0.000670042 955.517 0.00201483 955.517C0.00445563 955.517 0.00848294 955.517 0.0127543 955.517C0.0221514 955.517 0.036083 955.517 0.0537815 955.517C0.0897887 955.518 0.143012 955.518 0.212965 955.519C0.353363 955.52 0.562146 955.52 0.838158 955.517C1.39104 955.511 2.21463 955.494 3.3013 955.446C5.47512 955.351 8.70451 955.135 12.9366 954.655C21.4014 953.694 33.8793 951.676 49.9557 947.443C82.1093 938.978 128.655 921.657 186.278 886.238C301.525 815.402 461.071 672.185 638.435 382.669C815.732 93.2645 975.164 -49.8121 1090.23 -120.538C1147.77 -155.901 1194.21 -173.179 1226.26 -181.617C1242.28 -185.836 1254.71 -187.846 1263.12 -188.8C1267.33 -189.278 1270.53 -189.491 1272.68 -189.585C1273.76 -189.632 1274.57 -189.65 1275.11 -189.656C1275.38 -189.659 1275.58 -189.659 1275.72 -189.658C1275.78 -189.657 1275.84 -189.657 1275.87 -189.656L1275.91 -189.655C1275.91 -189.658 1275.92 -189.692 1275.93 -190.202C1275.94 -190.711 1275.94 -190.746 1275.94 -190.749L1275.88 -190.75C1275.85 -190.751 1275.79 -190.751 1275.72 -190.752Z" fill="url(#paint0_radial_102_775)"/>
<defs>
<radialGradient id="paint0_radial_102_775" cx="0" cy="0" r="1" gradientUnits="userSpaceOnUse" gradientTransform="translate(67.5288 1088.07) rotate(-44.425) scale(1194.94 1253.44)">
<stop stop-color="#BEF264" stop-opacity="0.13"/>
<stop offset="1" stop-color="#10B981" stop-opacity="0.29"/>
</radialGradient>
</defs>
</svg>
